<svg xmlns="http://www.w3.org/2000/svg" width="24.633" height="31.354" viewBox="0 0 24.633 31.354">
  <g id="clipboard" transform="translate(-47.037 0)">
    <g id="Grupo_527" data-name="Grupo 527" transform="translate(47.037 0)">
      <g id="Grupo_526" data-name="Grupo 526" transform="translate(0 0)">
        <path id="Caminho_2353" data-name="Caminho 2353" d="M68.535,4.108H65.7V2.839c0-.411-.448-.6-.858-.6h-2.2A3.339,3.339,0,0,0,59.316,0a3.4,3.4,0,0,0-3.322,2.239H53.83c-.411,0-.821.187-.821.6V4.108H50.172a3.172,3.172,0,0,0-3.135,3.023V28.517a3,3,0,0,0,3.135,2.837H68.535a3,3,0,0,0,3.135-2.837V7.131A3.173,3.173,0,0,0,68.535,4.108ZM54.5,3.735h2.053a.821.821,0,0,0,.709-.672,2.165,2.165,0,0,1,2.053-1.68,2.127,2.127,0,0,1,2.015,1.68.821.821,0,0,0,.746.672h2.127V6.721H54.5ZM70.177,28.517a1.514,1.514,0,0,1-1.642,1.344H50.172a1.514,1.514,0,0,1-1.642-1.344V7.131A1.679,1.679,0,0,1,50.172,5.6h2.837V7.5a.784.784,0,0,0,.821.709H64.84A.821.821,0,0,0,65.7,7.5V5.6h2.837a1.68,1.68,0,0,1,1.642,1.53V28.517Z" transform="translate(-47.037 0)" fill="#fff"/>
        <path id="Caminho_2354" data-name="Caminho 2354" d="M105.084,230.544a.746.746,0,0,0-1.045-.037l-2.389,2.277-1.008-1.045A.746.746,0,0,0,99.6,231.7a.784.784,0,0,0,0,1.082l1.53,1.568a.672.672,0,0,0,.522.224.746.746,0,0,0,.523-.224l2.911-2.762a.709.709,0,0,0,.043-1Q105.107,230.565,105.084,230.544Z" transform="translate(-95.641 -213.858)" fill="#fff"/>
        <path id="Caminho_2355" data-name="Caminho 2355" d="M207.879,256.034h-8.584a.746.746,0,0,0,0,1.493h8.584a.746.746,0,0,0,0-1.493Z" transform="translate(-187.724 -237.743)" fill="#fff"/>
        <path id="Caminho_2356" data-name="Caminho 2356" d="M105.084,146.952a.746.746,0,0,0-1.045-.037l-2.389,2.277-1.008-1.045a.746.746,0,0,0-1.045-.037.784.784,0,0,0,0,1.082l1.53,1.568a.672.672,0,0,0,.522.224.746.746,0,0,0,.523-.224L105.084,148a.709.709,0,0,0,.043-1Q105.107,146.973,105.084,146.952Z" transform="translate(-95.641 -136.238)" fill="#fff"/>
        <path id="Caminho_2357" data-name="Caminho 2357" d="M207.879,172.442h-8.584a.746.746,0,1,0,0,1.493h8.584a.746.746,0,1,0,0-1.493Z" transform="translate(-187.724 -160.123)" fill="#fff"/>
        <path id="Caminho_2358" data-name="Caminho 2358" d="M105.084,314.135a.747.747,0,0,0-1.045-.037l-2.389,2.277-1.008-1.045a.746.746,0,0,0-1.045-.037.784.784,0,0,0,0,1.082l1.53,1.568a.672.672,0,0,0,.522.224.746.746,0,0,0,.523-.224l2.911-2.762a.709.709,0,0,0,.043-1Q105.107,314.156,105.084,314.135Z" transform="translate(-95.641 -291.478)" fill="#fff"/>
        <path id="Caminho_2359" data-name="Caminho 2359" d="M207.879,339.626h-8.584a.746.746,0,1,0,0,1.493h8.584a.746.746,0,1,0,0-1.493Z" transform="translate(-187.724 -315.364)" fill="#fff"/>
      </g>
    </g>
  </g>
</svg>
