<svg xmlns="http://www.w3.org/2000/svg" width="25.389" height="34" viewBox="0 0 25.389 34">
  <g id="papeis" transform="translate(-78 -23.6)">
    <path id="Caminho_2333" data-name="Caminho 2333" d="M103.176,29.219a1.219,1.219,0,0,0-.133-.164l-4.974-5.089a1.216,1.216,0,0,0-.385-.264.5.5,0,0,0-.3-.1.524.524,0,0,0-.072.02c-.037,0-.074.009-.111.009H83.292a1.193,1.193,0,0,0-1.216,1.187v.958h-.93a1.2,1.2,0,0,0-1.216,1.2v.521h-.715A1.205,1.205,0,0,0,78,28.692V56.408A1.2,1.2,0,0,0,79.216,57.6H98.168a1.2,1.2,0,0,0,1.216-1.192v-.6h.715a1.2,1.2,0,0,0,1.216-1.2v-.8h.858a1.209,1.209,0,0,0,1.216-1.206v-22.7a1.223,1.223,0,0,0-.013-.166A.5.5,0,0,0,103.176,29.219Zm-1.463-.084H98.1a.222.222,0,0,1-.215-.222V25.208ZM98.383,56.408a.2.2,0,0,1-.215.191H79.216A.2.2,0,0,1,79,56.408V28.692a.2.2,0,0,1,.215-.2h.715V54.613a1.2,1.2,0,0,0,1.216,1.2H98.383Zm1.931-1.795a.2.2,0,0,1-.215.2H81.147a.2.2,0,0,1-.215-.2V26.97a.2.2,0,0,1,.215-.194h.93V52.6a1.209,1.209,0,0,0,1.216,1.206h17.021Zm1.859-1.8H83.292a.207.207,0,0,1-.215-.205V24.816a.192.192,0,0,1,.215-.186H96.881v4.283A1.224,1.224,0,0,0,98.1,30.137h4.291V52.6a.207.207,0,0,1-.215.205Z" transform="translate(0 0)" fill="#fff"/>
    <path id="Caminho_2334" data-name="Caminho 2334" d="M190.019,146H175.5a.5.5,0,1,0,0,1h14.518a.5.5,0,1,0,0-1Z" transform="translate(-90.063 -113.646)" fill="#fff"/>
    <path id="Caminho_2335" data-name="Caminho 2335" d="M190.019,186H175.5a.5.5,0,1,0,0,1h14.518a.5.5,0,1,0,0-1Z" transform="translate(-90.063 -150.785)" fill="#fff"/>
    <path id="Caminho_2336" data-name="Caminho 2336" d="M190.019,227H175.5a.5.5,0,1,0,0,1h14.518a.5.5,0,1,0,0-1Z" transform="translate(-90.063 -188.853)" fill="#fff"/>
    <path id="Caminho_2337" data-name="Caminho 2337" d="M190.019,268H175.5a.5.5,0,0,0,0,1h14.518a.5.5,0,0,0,0-1Z" transform="translate(-90.063 -226.921)" fill="#fff"/>
    <path id="Caminho_2338" data-name="Caminho 2338" d="M185.585,308H175.5a.5.5,0,1,0,0,1h10.084a.5.5,0,1,0,0-1Z" transform="translate(-90.063 -264.06)" fill="#fff"/>
  </g>
</svg>
