<svg xmlns="http://www.w3.org/2000/svg" width="33.973" height="28" viewBox="0 0 33.973 28">
  <g id="duas-setas-finas-formando-um-circulo" transform="translate(0.001 -72.107)">
    <g id="Grupo_525" data-name="Grupo 525" transform="translate(-0.001 72.107)">
      <path id="Caminho_2339" data-name="Caminho 2339" d="M26.211,385.5A13.072,13.072,0,0,1,3.9,376.274l2.666,2.669a.451.451,0,0,0,.637-.637l-3.534-3.535L.131,378.306a.45.45,0,0,0,0,.637.45.45,0,0,0,.635,0L3.011,376.7a13.963,13.963,0,0,0,23.834,9.443.45.45,0,0,0,0-.636A.446.446,0,0,0,26.211,385.5Z" transform="translate(0.001 -362.234)" fill="#fff"/>
      <path id="Caminho_2340" data-name="Caminho 2340" d="M195.687,83.4a.45.45,0,0,0-.636,0l-2.242,2.244A13.965,13.965,0,0,0,168.972,76.2a.45.45,0,0,0,.636.636,13.074,13.074,0,0,1,22.318,9.23L189.259,83.4a.451.451,0,0,0-.637.637l3.534,3.534,3.533-3.534A.451.451,0,0,0,195.687,83.4Z" transform="translate(-161.846 -72.107)" fill="#fff"/>
    </g>
  </g>
</svg>
