<svg xmlns="http://www.w3.org/2000/svg" width="26.7" height="27.529" viewBox="0 0 26.7 27.529">
  <g id="contorno-de-ferramenta-desenhada-a-mao-de-caneta" transform="translate(-6.789 -1)">
    <g id="Grupo_524" data-name="Grupo 524" transform="translate(6.789 1)">
      <path id="Caminho_2332" data-name="Caminho 2332" d="M7.6,27.519c3.455-.562,6.77-1.438,9.235-4.069a.689.689,0,0,0,.106-.15A188.256,188.256,0,0,0,31.114,8.247a5.65,5.65,0,0,1,.855.956q-3.392,4.3-7.136,8.308c-.6.639.507,1.432,1.1.8q3.91-4.16,7.42-8.664a.665.665,0,0,0,.07-.681,7.628,7.628,0,0,0-1.749-2.032.716.716,0,0,0-.113-.158,4.149,4.149,0,0,0-.584-5.69,5.038,5.038,0,0,0-6.225-.016h0a.551.551,0,0,0-.719.093A179.062,179.062,0,0,0,9.869,17.113a.616.616,0,0,0-.046.07.759.759,0,0,0-.1.124A22.485,22.485,0,0,0,6.795,26.6a.649.649,0,0,0,.059.373A.637.637,0,0,0,7.6,27.519ZM30.536,5.856c-1.5-1.342-2.987-2.7-4.568-3.951C28.764.353,32.363,2.806,30.536,5.856ZM24.568,2.545C26.516,4.022,28.3,5.687,30.13,7.308A182.34,182.34,0,0,1,16.354,21.98c-1.709-1.468-3.465-2.881-5.03-4.5A175.908,175.908,0,0,1,24.568,2.545ZM10.532,18.612c1.535,1.554,3.23,2.932,4.888,4.354A11.614,11.614,0,0,1,9.842,25.7a8.5,8.5,0,0,1-1.228-1.016.843.843,0,0,0-.128-.109A19.085,19.085,0,0,1,10.532,18.612Z" transform="translate(-6.789 0)" fill="#fff"/>
    </g>
  </g>
</svg>
