<svg id="request" xmlns="http://www.w3.org/2000/svg" width="32.198" height="32.198" viewBox="0 0 32.198 32.198">
  <path id="Caminho_2341" data-name="Caminho 2341" d="M191.125,115.566h5.991a.943.943,0,1,0,0-1.887h-5.991a.943.943,0,1,0,0,1.887Z" transform="translate(-178.222 -106.53)" fill="#fff"/>
  <path id="Caminho_2342" data-name="Caminho 2342" d="M23.019,0H.943A.943.943,0,0,0,0,.943V31.255a.943.943,0,0,0,.943.943H23.019a.943.943,0,0,0,.943-.943V.943A.943.943,0,0,0,23.019,0Zm-.943,30.312H1.887V1.887H22.075Z" fill="#fff"/>
  <path id="Caminho_2343" data-name="Caminho 2343" d="M416.58,22.86V3.2a3.2,3.2,0,0,0-6.4,0V22.859a.943.943,0,0,0,.858.939l-.8,2.215a.943.943,0,0,0,.03.715l2.258,4.92a.943.943,0,0,0,1.715,0l2.258-4.92a.943.943,0,0,0,.03-.715l-.8-2.215A.943.943,0,0,0,416.58,22.86Zm-4.517-.943V7.855h2.63V21.916h-2.63Zm1.315-20.03A1.317,1.317,0,0,1,414.693,3.2V5.968h-2.63V3.2A1.317,1.317,0,0,1,413.378,1.887Zm0,27.107-1.24-2.7.9-2.489h.678l.9,2.489Z" transform="translate(-384.382 0)" fill="#fff"/>
  <path id="Caminho_2344" data-name="Caminho 2344" d="M66.461,90.5a.943.943,0,0,0,1.334,0l2.865-2.865A.943.943,0,0,0,69.326,86.3l-2.2,2.2-.683-.683a.943.943,0,0,0-1.334,1.334Z" transform="translate(-60.757 -80.618)" fill="#fff"/>
  <path id="Caminho_2345" data-name="Caminho 2345" d="M191.125,206.571h5.991a.943.943,0,1,0,0-1.887h-5.991a.943.943,0,1,0,0,1.887Z" transform="translate(-178.222 -191.812)" fill="#fff"/>
  <path id="Caminho_2346" data-name="Caminho 2346" d="M66.461,181.508a.943.943,0,0,0,1.334,0l2.865-2.865a.943.943,0,0,0-1.334-1.334l-2.2,2.2-.683-.683a.943.943,0,0,0-1.334,1.334Z" transform="translate(-60.757 -165.899)" fill="#fff"/>
  <path id="Caminho_2347" data-name="Caminho 2347" d="M191.125,297.575h5.991a.943.943,0,1,0,0-1.887h-5.991a.943.943,0,1,0,0,1.887Z" transform="translate(-178.222 -277.093)" fill="#fff"/>
  <path id="Caminho_2348" data-name="Caminho 2348" d="M191.125,392.065h5.991a.943.943,0,1,0,0-1.887h-5.991a.943.943,0,1,0,0,1.887Z" transform="translate(-178.222 -365.641)" fill="#fff"/>
  <path id="Caminho_2349" data-name="Caminho 2349" d="M66.461,272.514a.943.943,0,0,0,1.334,0l2.865-2.865a.943.943,0,1,0-1.334-1.334l-2.2,2.2-.683-.683a.943.943,0,0,0-1.334,1.334Z" transform="translate(-60.757 -251.183)" fill="#fff"/>
</svg>
