<svg id="x-mark" xmlns="http://www.w3.org/2000/svg" width="31.067" height="31.067" viewBox="0 0 31.067 31.067">
  <path id="Caminho_2350" data-name="Caminho 2350" d="M15.533,31.067A15.533,15.533,0,1,1,31.067,15.533,15.551,15.551,0,0,1,15.533,31.067Zm0-28.848A13.314,13.314,0,1,0,28.848,15.533,13.33,13.33,0,0,0,15.533,2.219Zm0,0" fill="#fff"/>
  <path id="Caminho_2351" data-name="Caminho 2351" d="M158.492,159.6a1.105,1.105,0,0,1-.785-.325l-11.1-11.1a1.109,1.109,0,0,1,1.569-1.569l11.1,11.1a1.11,1.11,0,0,1-.784,1.894Zm0,0" transform="translate(-137.411 -137.412)" fill="#fff"/>
  <path id="Caminho_2352" data-name="Caminho 2352" d="M147.4,159.6a1.11,1.11,0,0,1-.784-1.894l11.1-11.1a1.109,1.109,0,0,1,1.569,1.569l-11.1,11.1A1.105,1.105,0,0,1,147.4,159.6Zm0,0" transform="translate(-137.41 -137.41)" fill="#fff"/>
</svg>
