<svg id="calendar" xmlns="http://www.w3.org/2000/svg" width="58.2" height="58.2" viewBox="0 0 58.2 58.2">
  <g id="Grupo_540" data-name="Grupo 540">
    <g id="Grupo_539" data-name="Grupo 539">
      <path id="Caminho_2362" data-name="Caminho 2362" d="M51.964,6.236H45.728V2.079a2.079,2.079,0,1,0-4.157,0V6.236H16.628V2.079a2.079,2.079,0,1,0-4.157,0V6.236H6.236A6.236,6.236,0,0,0,0,12.471V51.964A6.236,6.236,0,0,0,6.236,58.2H51.964A6.236,6.236,0,0,0,58.2,51.964V12.471A6.236,6.236,0,0,0,51.964,6.236Zm2.078,45.728a2.079,2.079,0,0,1-2.079,2.079H6.236a2.079,2.079,0,0,1-2.079-2.079V24.943H54.043Zm0-31.178H4.157V12.471a2.079,2.079,0,0,1,2.079-2.079h6.236V14.55a2.079,2.079,0,0,0,4.157,0V10.393H41.571V14.55a2.079,2.079,0,1,0,4.157,0V10.393h6.236a2.079,2.079,0,0,1,2.079,2.079v8.314Z" fill="#138898"/>
    </g>
  </g>
  <g id="Grupo_542" data-name="Grupo 542" transform="translate(10.393 29.1)">
    <g id="Grupo_541" data-name="Grupo 541">
      <path id="Caminho_2363" data-name="Caminho 2363" d="M91.569,238.933H87.412a2.079,2.079,0,0,0,0,4.157h4.157a2.079,2.079,0,0,0,0-4.157Z" transform="translate(-85.333 -238.933)" fill="#138898"/>
    </g>
  </g>
  <g id="Grupo_544" data-name="Grupo 544" transform="translate(24.943 29.1)">
    <g id="Grupo_543" data-name="Grupo 543">
      <path id="Caminho_2364" data-name="Caminho 2364" d="M211.036,238.933h-4.157a2.079,2.079,0,0,0,0,4.157h4.157a2.079,2.079,0,0,0,0-4.157Z" transform="translate(-204.8 -238.933)" fill="#138898"/>
    </g>
  </g>
  <g id="Grupo_546" data-name="Grupo 546" transform="translate(39.493 29.1)">
    <g id="Grupo_545" data-name="Grupo 545">
      <path id="Caminho_2365" data-name="Caminho 2365" d="M330.5,238.933h-4.157a2.079,2.079,0,0,0,0,4.157H330.5a2.079,2.079,0,1,0,0-4.157Z" transform="translate(-324.267 -238.933)" fill="#138898"/>
    </g>
  </g>
  <g id="Grupo_548" data-name="Grupo 548" transform="translate(10.393 37.414)">
    <g id="Grupo_547" data-name="Grupo 547">
      <path id="Caminho_2366" data-name="Caminho 2366" d="M91.569,307.2H87.412a2.079,2.079,0,0,0,0,4.157h4.157a2.079,2.079,0,1,0,0-4.157Z" transform="translate(-85.333 -307.2)" fill="#138898"/>
    </g>
  </g>
  <g id="Grupo_550" data-name="Grupo 550" transform="translate(24.943 37.414)">
    <g id="Grupo_549" data-name="Grupo 549">
      <path id="Caminho_2367" data-name="Caminho 2367" d="M211.036,307.2h-4.157a2.079,2.079,0,1,0,0,4.157h4.157a2.079,2.079,0,1,0,0-4.157Z" transform="translate(-204.8 -307.2)" fill="#138898"/>
    </g>
  </g>
  <g id="Grupo_552" data-name="Grupo 552" transform="translate(39.493 37.414)">
    <g id="Grupo_551" data-name="Grupo 551">
      <path id="Caminho_2368" data-name="Caminho 2368" d="M330.5,307.2h-4.157a2.079,2.079,0,0,0,0,4.157H330.5a2.079,2.079,0,1,0,0-4.157Z" transform="translate(-324.267 -307.2)" fill="#138898"/>
    </g>
  </g>
  <g id="Grupo_554" data-name="Grupo 554" transform="translate(10.393 45.728)">
    <g id="Grupo_553" data-name="Grupo 553">
      <path id="Caminho_2369" data-name="Caminho 2369" d="M91.569,375.467H87.412a2.079,2.079,0,1,0,0,4.157h4.157a2.079,2.079,0,1,0,0-4.157Z" transform="translate(-85.333 -375.467)" fill="#138898"/>
    </g>
  </g>
  <g id="Grupo_556" data-name="Grupo 556" transform="translate(24.943 45.728)">
    <g id="Grupo_555" data-name="Grupo 555">
      <path id="Caminho_2370" data-name="Caminho 2370" d="M211.036,375.467h-4.157a2.079,2.079,0,1,0,0,4.157h4.157a2.079,2.079,0,1,0,0-4.157Z" transform="translate(-204.8 -375.467)" fill="#138898"/>
    </g>
  </g>
  <g id="Grupo_558" data-name="Grupo 558" transform="translate(39.493 45.728)">
    <g id="Grupo_557" data-name="Grupo 557">
      <path id="Caminho_2371" data-name="Caminho 2371" d="M330.5,375.467h-4.157a2.079,2.079,0,0,0,0,4.157H330.5a2.079,2.079,0,1,0,0-4.157Z" transform="translate(-324.267 -375.467)" fill="#138898"/>
    </g>
  </g>
</svg>
