<svg xmlns="http://www.w3.org/2000/svg" width="25.983" height="25.482" viewBox="0 0 25.983 25.482">
  <g id="coronavirus" transform="translate(0 -4.927)">
    <path id="Caminho_2372" data-name="Caminho 2372" d="M63.977,140.155a1.173,1.173,0,0,0-1.335.77l-1.335-.583c0-.091,0-.181,0-.269a9.326,9.326,0,0,0-.292-2.32l.6-.406a1.334,1.334,0,0,0,2.123-1.49l-.282-.757a1.342,1.342,0,0,0-1.674-.823,1.337,1.337,0,0,0-.92,1.266l-.68.095c-.093-.171-.195-.344-.3-.516a.381.381,0,0,0-.645.407c.128.2.246.407.349.606a.533.533,0,0,0,.545.281l1.225-.171a.381.381,0,0,0,.306-.506.572.572,0,0,1,.36-.737.589.589,0,0,1,.721.365l.282.757a.592.592,0,0,1-.3.747.574.574,0,0,1-.717-.227.381.381,0,0,0-.54-.118l-1.016.689a.531.531,0,0,0-.214.582,8.554,8.554,0,0,1,.307,2.277c0,.127,0,.259-.009.393a.535.535,0,0,0,.318.512l1.905.832a.381.381,0,0,0,.527-.276l.06-.308a.409.409,0,0,1,.8.158l-.312,1.592a.409.409,0,0,1-.5.318.426.426,0,0,1-.3-.5l.008-.043a.381.381,0,0,0-.392-.454l-2.061.094a.535.535,0,0,0-.48.364,8.508,8.508,0,0,1-.753,1.656.532.532,0,0,0,.05.613l.912,1.083a.381.381,0,0,0,.555.031.57.57,0,0,1,.845.76l-.264.345a.59.59,0,0,1-.79.142.574.574,0,0,1-.217-.653.381.381,0,0,0-.208-.471l-1.314-.577a.531.531,0,0,0-.607.129,8.563,8.563,0,0,1-2.01,1.629.535.535,0,0,0-.257.545l.336,2.05a.381.381,0,0,0,.518.292l.291-.116a.409.409,0,0,1,.539.247.426.426,0,0,1-.256.521L56,151.58a.409.409,0,0,1-.539-.247.426.426,0,0,1,.256-.521l.04-.016a.381.381,0,0,0,.169-.576l-1.2-1.68a.535.535,0,0,0-.566-.205,8.584,8.584,0,0,1-3.861.1.535.535,0,0,0-.555.235l-1.2,1.882a.381.381,0,0,0,.191.563l.042.016a.581.581,0,0,1,.347.744.38.38,0,0,0-.023.131.3.3,0,0,1-.45.315l-1.474-.537a.583.583,0,0,1-.35-.734.562.562,0,0,1,.295-.324.621.621,0,0,1,.477-.024l.034.012a.381.381,0,0,0,.51-.316l.244-2.206a.535.535,0,0,0-.285-.531,8.538,8.538,0,0,1-2.371-1.81.533.533,0,0,0-.593-.132l-1.8.738a.381.381,0,0,0-.192.533.463.463,0,0,1-.155.609.482.482,0,0,1-.652-.143l-.461-.663a.479.479,0,0,1,.08-.65.466.466,0,0,1,.661.084.381.381,0,0,0,.59.023l1.267-1.432a.533.533,0,0,0,.066-.61,8.54,8.54,0,0,1-.377-.769.381.381,0,0,0-.7.3c.1.237.213.47.332.694l-.907,1.026a1.231,1.231,0,0,0-1.4.084,1.242,1.242,0,0,0-.234,1.684l.461.663a1.249,1.249,0,0,0,1.7.346,1.223,1.223,0,0,0,.542-1.206l1.326-.544a9.3,9.3,0,0,0,2.332,1.78l-.181,1.638a1.388,1.388,0,0,0-.636.134,1.319,1.319,0,0,0-.688.765,1.35,1.35,0,0,0,.81,1.7l1.474.537a1.285,1.285,0,0,0,.44.081,1.018,1.018,0,0,0,.589-.18,1.094,1.094,0,0,0,.444-.866,1.346,1.346,0,0,0-.455-1.455l.9-1.4a9.385,9.385,0,0,0,3.894-.1l.87,1.219a1.17,1.17,0,0,0,1.216,1.957l1.486-.594a1.182,1.182,0,0,0,.693-1.479,1.163,1.163,0,0,0-.621-.683,1.178,1.178,0,0,0-.77-.071l-.236-1.437a9.321,9.321,0,0,0,1.94-1.57l.887.39a1.333,1.333,0,0,0,2.4.868l.264-.345a1.334,1.334,0,0,0-1.644-2.009l-.585-.7a9.279,9.279,0,0,0,.687-1.512l1.5-.068a1.17,1.17,0,0,0,2.3.043l.312-1.592A1.173,1.173,0,0,0,63.977,140.155Z" transform="translate(-38.941 -122.71)" fill="#d97704"/>
    <path id="Caminho_2373" data-name="Caminho 2373" d="M2.457,18.476l1.429.33c.031.2.07.4.115.6a.381.381,0,1,0,.744-.167c-.053-.234-.1-.469-.127-.7a.535.535,0,0,0-.407-.446l-2.025-.468A.381.381,0,0,0,1.721,18l0,.237a.487.487,0,0,1-.486.481.47.47,0,0,1-.47-.474l.013-1.471a.513.513,0,0,1,.157-.362.458.458,0,0,1,.334-.134.48.48,0,0,1,.465.48.381.381,0,0,0,.468.373l2.01-.471a.534.534,0,0,0,.405-.447A8.446,8.446,0,0,1,5.676,13.1a.533.533,0,0,0-.055-.61l-.959-1.126a.381.381,0,0,0-.595.017l-.083.11a.373.373,0,0,1-.537.061.388.388,0,0,1-.045-.528l.639-.844a.372.372,0,0,1,.612.424.381.381,0,0,0,.17.555l1.341.58a.532.532,0,0,0,.6-.13,8.557,8.557,0,0,1,2.1-1.678.535.535,0,0,0,.264-.541L8.826,7.337a.381.381,0,0,0-.514-.3l-.293.113A.409.409,0,0,1,7.484,6.9a.425.425,0,0,1,.263-.518L9.24,5.8a.409.409,0,0,1,.536.254.426.426,0,0,1-.263.518l-.04.016a.381.381,0,0,0-.176.573l1.176,1.7a.535.535,0,0,0,.563.213,8.577,8.577,0,0,1,2.038-.245h0a.533.533,0,0,0,.5-.353l.389-1.09a.381.381,0,0,0-.245-.492.618.618,0,0,1-.429-.662.6.6,0,0,1,.232-.4.657.657,0,0,1,.483-.136l.535.067a.635.635,0,0,1,.563.683.614.614,0,0,1-.459.531.381.381,0,0,0-.282.412L14.5,8.569a.532.532,0,0,0,.414.458,8.472,8.472,0,0,1,2.426.943.534.534,0,0,0,.6-.047l1.613-1.31a.381.381,0,0,0,0-.595L19.3,7.824a.409.409,0,0,1-.053-.591.425.425,0,0,1,.579-.037l1.253,1a.409.409,0,0,1,.053.591.426.426,0,0,1-.579.037l-.034-.027a.381.381,0,0,0-.584.139l-.864,1.876a.535.535,0,0,0,.1.594c.054.056.108.113.171.182a.381.381,0,0,0,.561-.517l-.077-.083.628-1.362a1.17,1.17,0,0,0,1.1-2.026l-1.253-1a1.182,1.182,0,0,0-1.628.132,1.163,1.163,0,0,0-.285.878,1.178,1.178,0,0,0,.321.7l-1.13.918a9.232,9.232,0,0,0-2.345-.912l-.084-.732A1.38,1.38,0,0,0,14.637,5L14.1,4.937a1.426,1.426,0,0,0-1.048.292,1.358,1.358,0,0,0-.52.913,1.381,1.381,0,0,0,.6,1.307l-.221.618a9.341,9.341,0,0,0-1.9.229l-.853-1.23A1.17,1.17,0,0,0,8.966,5.092l-1.494.575a1.182,1.182,0,0,0-.713,1.47,1.163,1.163,0,0,0,.612.692,1.178,1.178,0,0,0,.769.081l.216,1.44a9.314,9.314,0,0,0-2.04,1.627L5.456,10.6a1.142,1.142,0,0,0-.432-1.1,1.135,1.135,0,0,0-1.59.221l-.639.844a1.145,1.145,0,0,0,.165,1.574,1.126,1.126,0,0,0,.857.256,1.14,1.14,0,0,0,.541-.212l.578.679a9.2,9.2,0,0,0-1.053,3.088L2.406,16.3a1.248,1.248,0,0,0-1.119-.784,1.219,1.219,0,0,0-.884.347,1.281,1.281,0,0,0-.39.9L0,18.236A1.233,1.233,0,0,0,1.233,19.48a1.253,1.253,0,0,0,1.224-1Z" transform="translate(0 0)" fill="#d97704"/>
    <path id="Caminho_2374" data-name="Caminho 2374" d="M146.87,134.911a.381.381,0,1,0-.357-.674,1.961,1.961,0,0,1-2.47-.3,1.641,1.641,0,0,1-.282-1.38,2.625,2.625,0,0,1,2.533-2,1.641,1.641,0,0,1,1.276.6,1.844,1.844,0,0,1-.014,2.112.381.381,0,0,0,.65.4,2.594,2.594,0,0,0-.037-2.983,2.39,2.39,0,0,0-1.853-.887,3.387,3.387,0,0,0-3.3,2.6,2.39,2.39,0,0,0,.43,2.009,2.432,2.432,0,0,0,1.942.884A3.179,3.179,0,0,0,146.87,134.911Z" transform="translate(-135.685 -118.517)" fill="#d97704"/>
    <path id="Caminho_2375" data-name="Caminho 2375" d="M304.258,136.416a1.655,1.655,0,1,0-1.64,1.434A1.549,1.549,0,0,0,304.258,136.416Zm-2.518,0a.909.909,0,1,1,.878.671A.8.8,0,0,1,301.74,136.416Z" transform="translate(-285.672 -123.442)" fill="#d97704"/>
    <path id="Caminho_2376" data-name="Caminho 2376" d="M212.851,259.28a1.757,1.757,0,1,0-1.757,1.757A1.759,1.759,0,0,0,212.851,259.28Zm-2.752,0a.995.995,0,1,1,.995.995A1,1,0,0,1,210.1,259.28Z" transform="translate(-198.691 -239.752)" fill="#d97704"/>
    <path id="Caminho_2377" data-name="Caminho 2377" d="M325.213,252.477a1.367,1.367,0,1,0-1.367,1.367A1.368,1.368,0,0,0,325.213,252.477Zm-1.97,0a.6.6,0,1,1,.6.6A.6.6,0,0,1,323.243,252.477Z" transform="translate(-306.082 -233.665)" fill="#d97704"/>
    <path id="Caminho_2378" data-name="Caminho 2378" d="M252.8,348.875a1.339,1.339,0,1,0-1.339-1.339A1.341,1.341,0,0,0,252.8,348.875Zm0-1.916a.576.576,0,1,1-.576.576A.577.577,0,0,1,252.8,346.96Z" transform="translate(-238.678 -323.917)" fill="#d97704"/>
    <path id="Caminho_2379" data-name="Caminho 2379" d="M134.2,303.112a1.379,1.379,0,1,0-1.379-1.379A1.381,1.381,0,0,0,134.2,303.112Zm0-2a.616.616,0,1,1-.616.616A.617.617,0,0,1,134.2,301.117Z" transform="translate(-126.064 -280.405)" fill="#d97704"/>
    <path id="Caminho_2380" data-name="Caminho 2380" d="M292.133,226.494a.381.381,0,0,0-.381-.381h-.337a.381.381,0,1,0,0,.763h.337A.381.381,0,0,0,292.133,226.494Z" transform="translate(-276.234 -209.939)" fill="#d97704"/>
    <path id="Caminho_2381" data-name="Caminho 2381" d="M202.906,357.976h.346a.381.381,0,1,0,0-.763h-.346a.381.381,0,1,0,0,.763Z" transform="translate(-192.227 -334.373)" fill="#d97704"/>
    <path id="Caminho_2382" data-name="Caminho 2382" d="M133.533,248.754a.381.381,0,0,0,0-.763H133.2a.381.381,0,0,0,0,.763Z" transform="translate(-126.064 -230.705)" fill="#d97704"/>
    <path id="Caminho_2383" data-name="Caminho 2383" d="M264.3,117.537a.381.381,0,1,0,0-.763h-.464a.381.381,0,0,0,0,.763Z" transform="translate(-250.058 -106.16)" fill="#d97704"/>
    <path id="Caminho_2384" data-name="Caminho 2384" d="M322.86,332.8a.381.381,0,1,0,0,.763h.513a.381.381,0,0,0,0-.763Z" transform="translate(-306.081 -311.198)" fill="#d97704"/>
  </g>
</svg>
