<svg xmlns="http://www.w3.org/2000/svg" width="727.808" height="719.415" viewBox="0 0 727.808 719.415">
  <g id="Grupo_561" data-name="Grupo 561" transform="translate(25.824 109.506)" opacity="0.04">
    <g id="Grupo_311" data-name="Grupo 311" transform="translate(-25.824 -109.506)">
      <g id="Grupo_125" data-name="Grupo 125" transform="translate(0 0)">
        <path id="Caminho_479" data-name="Caminho 479" d="M685.934,425.962c-.618,2.732-1.177,5.657-1.628,8.969C661.6,601.351,488.836,713.578,333.152,660.874,228.96,625.6,158.638,551.536,142.5,440.187c-15.827-109.221,25.984-199.1,115.6-264.159,35.742-25.951,75.053-46.636,120.357-48.446V40C192.615,61.536,54.156,215.736,53.982,402.858,53.825,565.672,177,718.806,334.6,751.727c166.067,34.689,335.342-50.566,405.631-203.965,17.54-38.278,30.021-77.42,31.848-120.087.028-.622,0-1.154-.009-1.713Z" transform="translate(-53.982 -40.001)" fill="#12565f"/>
      </g>
    </g>
    <g id="Grupo_312" data-name="Grupo 312" transform="translate(159.499 76.889)">
      <g id="Grupo_127" data-name="Grupo 127" transform="translate(0 0)">
        <path id="Caminho_480" data-name="Caminho 480" d="M716.187,203H374.7v.665c-1,.023-2.006.02-3.009.045C309.936,205.2,246.8,257.783,225.2,322.971c-22.478,67.855-2.175,132.98,45.679,178.679,65.616,62.663,168.429,66.859,237.953,8.6,32.193-26.98,50.4-66.143,53.768-107.676H470.527c-4.2,13.372-22.747,43.279-36.512,53.939a70.367,70.367,0,0,1-35.194,14.516c-31.1,3.7-63.7-9.639-83.285-34.082s-25.5-59.167-15.1-88.713c6.166-17.527,17.838-33.2,33.316-43.479,18.2-12.088,40.37-16.213,62.362-17.057H716.187a42.345,42.345,0,1,0,0-84.691Z" transform="translate(-216.048 -203.004)" fill="#12565f"/>
      </g>
    </g>
  </g>
</svg>
