<svg xmlns="http://www.w3.org/2000/svg" width="18.535" height="18.535" viewBox="0 0 18.535 18.535">
  <g id="logout" transform="translate(0 -0.008)">
    <path id="Caminho_2175" data-name="Caminho 2175" d="M285.248,209.166h-7.337a.579.579,0,0,1,0-1.158h7.337a.579.579,0,0,1,0,1.158Zm0,0" transform="translate(-267.293 -200.47)"/>
    <path id="Caminho_2176" data-name="Caminho 2176" d="M400.583,134.922a.58.58,0,0,1-.409-.989l2.487-2.487-2.487-2.487a.579.579,0,1,1,.819-.819l2.9,2.9a.579.579,0,0,1,0,.819l-2.9,2.9A.575.575,0,0,1,400.583,134.922Zm0,0" transform="translate(-385.524 -123.33)"/>
    <path id="Caminho_2177" data-name="Caminho 2177" d="M6.178,18.542a1.592,1.592,0,0,1-.479-.072L1.052,16.922A1.559,1.559,0,0,1,0,15.453V1.552A1.546,1.546,0,0,1,1.545.008,1.593,1.593,0,0,1,2.023.08L6.671,1.628A1.559,1.559,0,0,1,7.723,3.1V17A1.546,1.546,0,0,1,6.178,18.542ZM1.545,1.166a.387.387,0,0,0-.386.386v13.9a.4.4,0,0,0,.268.372l4.626,1.541a.42.42,0,0,0,.126.017A.387.387,0,0,0,6.564,17V3.1A.4.4,0,0,0,6.3,2.725L1.67,1.183A.419.419,0,0,0,1.545,1.166Zm0,0" transform="translate(0)"/>
    <path id="Caminho_2178" data-name="Caminho 2178" d="M37.48,6.186a.579.579,0,0,1-.579-.579V2.132a.967.967,0,0,0-.965-.965H27.247a.579.579,0,0,1,0-1.158h8.688a2.125,2.125,0,0,1,2.124,2.124V5.607A.579.579,0,0,1,37.48,6.186Zm0,0" transform="translate(-25.703 0)"/>
    <path id="Caminho_2179" data-name="Caminho 2179" d="M185,283.518h-3.089a.579.579,0,1,1,0-1.158H185a.967.967,0,0,0,.965-.965v-3.475a.579.579,0,0,1,1.158,0v3.475A2.125,2.125,0,0,1,185,283.518Zm0,0" transform="translate(-174.768 -267.293)"/>
  </g>
</svg>
