<svg xmlns="http://www.w3.org/2000/svg" width="21.51" height="24.973" viewBox="0 0 21.51 24.973">
  <g id="Grupo_576" data-name="Grupo 576" transform="translate(-28.353 -209.784)">
    <g id="Grupo_384" data-name="Grupo 384" transform="translate(28.353 210.756)">
      <g id="Grupo_383" data-name="Grupo 383" transform="translate(0)">
        <path id="Caminho_2212" data-name="Caminho 2212" d="M49.172,19.932H46.256v1.823h2.005v3.433a5.469,5.469,0,0,1-10.937,0V21.755h1.944V19.932H36.412a.911.911,0,0,0-.911.911v4.344a7.291,7.291,0,1,0,14.583,0V20.843A.911.911,0,0,0,49.172,19.932Z" transform="translate(-35.501 -19.932)" fill="#fff"/>
      </g>
    </g>
    <g id="Grupo_386" data-name="Grupo 386" transform="translate(34.642 222.422)">
      <g id="Grupo_385" data-name="Grupo 385" transform="translate(0)">
        <path id="Caminho_2213" data-name="Caminho 2213" d="M175.371,260.755v4.314a4.557,4.557,0,1,1-9.114,0v-5.955h-1.823v5.955a6.38,6.38,0,0,0,12.76,0v-4.314Z" transform="translate(-164.434 -259.114)" fill="#fff"/>
      </g>
    </g>
    <g id="Grupo_388" data-name="Grupo 388" transform="translate(43.118 218.169)">
      <g id="Grupo_387" data-name="Grupo 387" transform="translate(0)">
        <path id="Caminho_2214" data-name="Caminho 2214" d="M341.589,171.912a3.372,3.372,0,1,0,3.372,3.372A3.376,3.376,0,0,0,341.589,171.912Zm0,4.922a1.549,1.549,0,1,1,1.549-1.549A1.551,1.551,0,0,1,341.588,176.834Z" transform="translate(-338.216 -171.912)" fill="#fff"/>
      </g>
    </g>
    <g id="Grupo_390" data-name="Grupo 390" transform="translate(31.179 209.784)">
      <g id="Grupo_389" data-name="Grupo 389" transform="translate(0)">
        <path id="Caminho_2215" data-name="Caminho 2215" d="M94.339,0a.911.911,0,0,0-.911.911V2.856a.911.911,0,1,0,1.823,0V.911A.911.911,0,0,0,94.339,0Z" transform="translate(-93.428)" fill="#fff"/>
      </g>
    </g>
    <g id="Grupo_392" data-name="Grupo 392" transform="translate(38.227 209.784)">
      <g id="Grupo_391" data-name="Grupo 391" transform="translate(0)">
        <path id="Caminho_2216" data-name="Caminho 2216" d="M238.845,0a.911.911,0,0,0-.911.911V2.856a.911.911,0,1,0,1.823,0V.911A.911.911,0,0,0,238.845,0Z" transform="translate(-237.934)" fill="#fff"/>
      </g>
    </g>
  </g>
</svg>
