<svg id="Grupo_395" data-name="Grupo 395" xmlns="http://www.w3.org/2000/svg" width="20.329" height="26.988" viewBox="0 0 20.329 26.988">
  <path id="Caminho_2238" data-name="Caminho 2238" d="M192.787-20.267H177.975c-.259-.09-.528-.159-.775-.274a3.174,3.174,0,0,1-1.866-2.467l-.038-1.005c.03-1.23.026-2.46,0-3.689a6.279,6.279,0,0,0,0-1.056c.03-1.23.026-2.46,0-3.689a6.279,6.279,0,0,0,0-1.056c.03-1.23.026-2.46,0-3.689a6.279,6.279,0,0,0,0-1.056c.03-1.23.025-2.46,0-3.689a4.721,4.721,0,0,1,.245-1.265,3.435,3.435,0,0,1,1.749-1.737,4.542,4.542,0,0,1,1.212-.221c1.229,0,2.458,0,3.686.012a.407.407,0,0,0,.444-.28,3.032,3.032,0,0,1,2.426-1.793,3.12,3.12,0,0,1,2.83,1.065l.409.585c.089.149.033.416.305.417,1.043,0,2.085,0,3.128-.007l1,.009a3.33,3.33,0,0,1,2.3,1.329l.347.623a4.494,4.494,0,0,1,.232,1.647c-.005.611.008,1.222.013,1.833a6.323,6.323,0,0,0,0,1.056c-.028,1.23-.026,2.459,0,3.689a6.323,6.323,0,0,0,0,1.056c-.028,1.23-.026,2.459,0,3.689a6.323,6.323,0,0,0,0,1.056c-.028,1.23-.026,2.459,0,3.689a6.324,6.324,0,0,0,0,1.056c-.006.3-.012.594-.017.891a3.176,3.176,0,0,1-2.512,3.191C192.994-20.323,192.868-20.373,192.787-20.267Zm-12.81-22.769c-.5,0-1-.014-1.5,0a1.017,1.017,0,0,0-1.04.978,12.855,12.855,0,0,0,0,1.551,6.342,6.342,0,0,0,0,1.056c-.028,1.23-.026,2.459,0,3.689a6.342,6.342,0,0,0,0,1.056c-.028,1.23-.026,2.459,0,3.689a6.342,6.342,0,0,0,0,1.056c-.028,1.23-.026,2.459,0,3.689a6.343,6.343,0,0,0,0,1.056,16.914,16.914,0,0,0,0,1.89,1,1,0,0,0,1.008.943l1,0,3.741,0h1l3.74,0h1.036c1.15,0,2.3.006,3.451,0a1.754,1.754,0,0,0,.309-.056.907.907,0,0,0,.689-.671.376.376,0,0,0,.064-.275c0-1.174,0-2.349,0-3.523a6.289,6.289,0,0,0,0-1.056c.029-1.23.026-2.46,0-3.689a6.289,6.289,0,0,0,0-1.056c.029-1.23.026-2.459,0-3.689a6.29,6.29,0,0,0,0-1.056c.029-1.23.026-2.459,0-3.689a4.18,4.18,0,0,0-.016-1,1,1,0,0,0-.976-.891c-.526-.017-1.053,0-1.58-.008-.1,0-.157.014-.156.14.009,1.1.013,2.194.018,3.29a.079.079,0,0,0-.01.024c-.006.227.076.53-.039.663-.134.155-.447.02-.679.057h-9.488c-.276.038-.358-.061-.352-.355.02-.956,0-1.914-.006-2.871.006-.24,0-.481.021-.719C180.238-43.015,180.167-43.081,179.977-43.035ZM182.823-41h4.744c.313,0,.626,0,.939.012.116,0,.151-.039.147-.15-.012-.321-.015-.642-.022-.963.006-.254,0-.508.02-.761.01-.152-.041-.191-.189-.188-.473.009-.947,0-1.421,0-.493,0-.493,0-.5-.5,0-.043-.009-.087-.014-.13a1.363,1.363,0,0,0-.158-.969,1.017,1.017,0,0,0-1.1-.48,1.033,1.033,0,0,0-.818.915c-.013.122-.01.245-.017.368-.015.261.113.619-.049.757s-.5.041-.764.043c-.36,0-.72.009-1.08,0-.165-.005-.226.032-.22.212.014.456,0,.913,0,1.37C182.324-40.969,182.324-40.969,182.823-41Z" transform="translate(-175.295 47.254)" fill="#fff"/>
  <path id="Caminho_2239" data-name="Caminho 2239" d="M279.406,181.845h-1c-.1-.018-.078-.1-.078-.165,0-.588,0-1.176,0-1.764,0-.149.04-.192.19-.191.719,0,1.439,0,2.158-.006h1c.357.017.357.017.326-.31a6.279,6.279,0,0,0,0-1.056c.006-.681.025-1.363.01-2.044-.005-.242.07-.286.291-.279.533.016,1.066,0,1.6.007.082,0,.178-.039.242.052a6.327,6.327,0,0,0,0,1.055c-.005.816-.008,1.632-.019,2.448,0,.132.063.136.161.135.377-.006.755-.007,1.132-.01h1c.4,0,.807.012,1.21,0,.151,0,.192.043.19.191-.008.57-.01,1.141,0,1.711,0,.177-.051.216-.221.215-1.079-.008-2.158,0-3.236-.009-.2,0-.243.055-.242.246.009,1.07,0,2.141.009,3.211,0,.2-.048.249-.246.244-.552-.015-1.105-.013-1.657,0-.18,0-.218-.054-.215-.221.007-.385-.006-.771-.011-1.156a6.26,6.26,0,0,0,0-1.055c.006-.377.006-.754.02-1.131,0-.134-.065-.134-.162-.134Q280.63,181.842,279.406,181.845Z" transform="translate(-272.878 -164.233)" fill="#fff"/>
</svg>
