<svg id="Grupo_339" data-name="Grupo 339" xmlns="http://www.w3.org/2000/svg" width="26.679" height="34.522" viewBox="0 0 26.679 34.522">
  <path id="Caminho_2153" data-name="Caminho 2153" d="M449.788,136.356a9.716,9.716,0,0,1-1.611-3.8l-.165-1.358c0-.278-.011-.558.014-.835.019-.215-.07-.237-.249-.231-.371.013-.743.016-1.115,0-.594-.02-.6-.028-.666.578-.1.853-.188,1.707-.282,2.561l-.4,1.918-.489,1.621c.485-.129.936-.255,1.389-.368s.9-.223,1.356-.319a.633.633,0,1,1,.286,1.23,36.115,36.115,0,0,0-3.861,1.1c-.549.2-.879-.17-.84-.871a11.915,11.915,0,0,0,.75-2.221,23.5,23.5,0,0,0,.839-5.018q.075-.853.152-1.706l.278-1.753c.118-.42.229-.842.355-1.259.194-.64.574-.779,1.137-.425a.83.83,0,0,1,.085.791,2.063,2.063,0,0,0-.178.728,11.1,11.1,0,0,0-.347,1.705c-.061.305-.012.411.322.424a16.322,16.322,0,0,0,4.187-.394,14.106,14.106,0,0,0,2.141-.563,19.88,19.88,0,0,0,4.462-2.068c.428-.264.8-.217,1.011.117a.649.649,0,0,1-.294.939,21.56,21.56,0,0,1-5.045,2.319c-.747.235-1.51.409-2.272.585-.144.021-.288.038-.431.063-1.116.189-1.116.19-.969,1.349a7.665,7.665,0,0,0,1.4,4.231,3.3,3.3,0,0,0,.863.921,3.252,3.252,0,0,0,4.543-.18,7.561,7.561,0,0,0,2.029-6.413,2.749,2.749,0,0,0-.037-.474.7.7,0,0,1,.27-.843.657.657,0,0,1,.863.152,6.724,6.724,0,0,1,.25,2.278,11.435,11.435,0,0,1-.729,3.682c-.066.128-.135.254-.2.383a6.033,6.033,0,0,1-3.539,3.338,5.449,5.449,0,0,1-1.8.155,5.1,5.1,0,0,1-2.6-1.16Z" transform="translate(-440.43 -115.936)" fill="#1bb91f"/>
  <path id="Caminho_2154" data-name="Caminho 2154" d="M488.1,14.452a.832.832,0,0,1,.082.889c-.678,1.821-1.342,3.648-2,5.475a.681.681,0,0,1-1.015.468,12.126,12.126,0,0,0-3.217-.826,6.992,6.992,0,0,0-1.439-.144,13.836,13.836,0,0,0-5.689.939,1.019,1.019,0,0,1-.763.067c-.329-.231-.328-.64-.51-.95l-1.517-4.152-.412-1.13a.736.736,0,0,1,.4-.783c.414-.252.819-.519,1.228-.779a25.4,25.4,0,0,1,2.706-1.225,12.752,12.752,0,0,1,4.291-.627c.62.03,1.237.109,1.855.166l1.2.286a16.711,16.711,0,0,1,3.9,1.724Zm-1.6,1.686c.468-1.187.5-.86-.274-1.361a.106.106,0,0,0-.038-.007,11.282,11.282,0,0,0-4.159-1.587A4.726,4.726,0,0,0,480.682,13a.122.122,0,0,0-.036-.016,12,12,0,0,0-7.455,2.1.212.212,0,0,0-.09.3q.738,1.974,1.473,3.948c.157.574.157.574.7.4l.676-.211a16.61,16.61,0,0,1,5.987-.4l1.285.213c.585.17,1.173.33,1.753.515.153.049.191-.015.229-.122Q485.855,17.934,486.5,16.138Z" transform="translate(-466.613 -11.663)" fill="#1bb91f"/>
  <path id="Caminho_2155" data-name="Caminho 2155" d="M590.426,304.777l-1.519,0c-.571,0-1.142-.006-1.713-.013-.473-.006-.754-.242-.761-.631-.007-.4.28-.646.779-.647.9,0,1.807,0,2.71,0,.127,0,.3.072.282-.191-.09-1.351-.157-2.7-.367-4.043a1.514,1.514,0,0,0-.215-.635,2.55,2.55,0,0,0-.525-.968,4.18,4.18,0,0,0-2.466-1.733c-.455-.127-.925-.2-1.388-.3a2.048,2.048,0,0,0-.763-.1l.425.568c.19.286.386.569.57.858a.65.65,0,0,1-.423,1.039c-.58.142-1.164.268-1.739.427a1.018,1.018,0,0,1-.7-.037c-.457-.557-.313-1.018.376-1.2l.921-.244-.579-.79a15.357,15.357,0,0,0-.962-1.414l-1.964,4.128-.718,1.454c-.265.536-.534.63-1.085.38a.772.772,0,0,1-.083-.919c1.056-2.18,2.1-4.366,3.153-6.548a.633.633,0,0,1,1.182-.077,1.681,1.681,0,0,0,1.62,1.023,4.515,4.515,0,0,1,.744.121l1.288.261a6.264,6.264,0,0,1,3.5,2.122l.556.84a10.808,10.808,0,0,1,.821,4.24c.014.157.034.313.051.47a8.933,8.933,0,0,0,.108,1.433c0,.092,0,.184,0,.276.02.622-.185.838-.8.844C590.636,304.764,590.531,304.772,590.426,304.777Z" transform="translate(-564.863 -270.255)" fill="#1bb91f"/>
  <path id="Caminho_2156" data-name="Caminho 2156" d="M409.481,300.178a5.784,5.784,0,0,1,4.259-5.285c.441-.138.9-.218,1.352-.325.641-.106,1.281-.216,1.923-.318a.594.594,0,0,0,.415-.264c.247-.337.394-.756.778-.984a.762.762,0,0,1,.895.529c.422.923.888,1.826,1.336,2.736a4.968,4.968,0,0,0,.461.963l1.206,2.545c.045.1.094.19.135.287a.653.653,0,0,1-.262.892.642.642,0,0,1-.891-.343c-.33-.663-.644-1.334-.968-2-.063-.13-.137-.255-.207-.382l-.477-1-1.095-2.319-1.507,2.192a.49.49,0,0,0,.09.054q.4.109.8.214c.53.139.661.328.616.882a1.142,1.142,0,0,1-.376.383,1.23,1.23,0,0,1-.551-.029q-.807-.221-1.622-.41c-.714-.167-.879-.59-.46-1.179.3-.422.587-.855.921-1.344a6.675,6.675,0,0,0-1.251.257,4.53,4.53,0,0,0-4.214,4.248c-.131,1.141-.239,2.284-.256,3.434-.014.075.031.072.081.064l2.556,0c.352.036.739-.058,1.016.266.228.649-.023,1.017-.7,1.029-.1,0-.208.01-.313.014l-1.519,0c-.557,0-1.115-.01-1.672-.011-.607,0-.835-.236-.8-.851.043-.755.1-1.509.145-2.264Z" transform="translate(-409.182 -270.465)" fill="#1bb91f"/>
  <path id="Caminho_2157" data-name="Caminho 2157" d="M646.427,137.868a20.426,20.426,0,0,0-2.521-.694c-.1-.024-.208-.044-.309-.075a.622.622,0,0,1-.485-.748.616.616,0,0,1,.778-.486,27.611,27.611,0,0,1,2.761.712,33.681,33.681,0,0,1-.888-3.557l-.174-1.374c-.046-.529-.085-1.059-.138-1.588a22.159,22.159,0,0,0-.488-3.428l-.319-1.2a.7.7,0,0,1,.727-.692.826.826,0,0,1,.6.623,25.037,25.037,0,0,1,.794,4.885l.146,1.416a18.831,18.831,0,0,0,1.031,4.632,5.215,5.215,0,0,0,.406,1.119c-.018.646-.2.837-.8.826A7.5,7.5,0,0,0,646.427,137.868Z" transform="translate(-624.37 -115.686)" fill="#1bb91f"/>
  <path id="Caminho_2158" data-name="Caminho 2158" d="M553.679,39.411c.535.032.535.032.575.736-.031.557-.031.557.506.557.758,0,.758,0,.758.76,0,.52,0,.52-.52.52-.758,0-.758,0-.758.76,0,.518,0,.518-.521.518-.758,0-.758,0-.758-.761,0-.534,0-.534-.558-.5-.051,0-.1-.013-.154-.014-.549-.009-.549-.008-.581-.56.041-.719.041-.719.77-.722.519,0,.519,0,.521-.519C552.961,39.452,552.961,39.452,553.679,39.411Z" transform="translate(-540.26 -37.189)" fill="#1bb91f"/>
</svg>
