<svg xmlns="http://www.w3.org/2000/svg" width="25.532" height="27.714" viewBox="0 0 25.532 27.714">
  <g id="flask_1_" data-name="flask (1)" transform="translate(-20.155)">
    <path id="Caminho_2387" data-name="Caminho 2387" d="M45.044,21.475,36.98,8.8V4.872A2.436,2.436,0,0,0,36.98,0H28.861a2.436,2.436,0,0,0,0,4.872V8.8L20.8,21.475a4.058,4.058,0,0,0,3.425,6.239h17.4A4.058,4.058,0,0,0,45.044,21.475Zm-14.686-12a.812.812,0,0,0,.127-.436V4.872a.812.812,0,1,0,0-1.624H28.861a.812.812,0,1,1,0-1.624H36.98a.812.812,0,1,1,0,1.624H35.357a.812.812,0,1,0,0,1.624V9.04a.812.812,0,0,0,.127.436l2.208,3.469a7.288,7.288,0,0,0-5.576,1.069l-2.537,1.691a5.657,5.657,0,0,1-3.771.922ZM41.619,26.09h-17.4a2.435,2.435,0,0,1-2.055-3.744l2.694-4.233a7.263,7.263,0,0,0,5.618-1.058l2.537-1.691a5.667,5.667,0,0,1,6.154-.1l4.5,7.079A2.434,2.434,0,0,1,41.619,26.09Z" transform="translate(0)" fill="#fff"/>
    <path id="Caminho_2388" data-name="Caminho 2388" d="M123.436,362a2.436,2.436,0,1,0,2.436,2.436A2.439,2.439,0,0,0,123.436,362Zm0,3.248a.812.812,0,1,1,.812-.812A.813.813,0,0,1,123.436,365.248Z" transform="translate(-95.387 -342.405)" fill="#fff"/>
    <path id="Caminho_2389" data-name="Caminho 2389" d="M273.436,302a2.436,2.436,0,1,0,2.436,2.436A2.439,2.439,0,0,0,273.436,302Zm0,3.248a.812.812,0,1,1,.812-.812A.813.813,0,0,1,273.436,305.248Z" transform="translate(-237.267 -285.653)" fill="#fff"/>
    <circle id="Elipse_95" data-name="Elipse 95" cx="0.812" cy="0.812" r="0.812" transform="translate(32.109 21.219)" fill="#fff"/>
    <circle id="Elipse_96" data-name="Elipse 96" cx="0.812" cy="0.812" r="0.812" transform="translate(38.604 21.219)" fill="#fff"/>
    <circle id="Elipse_97" data-name="Elipse 97" cx="0.812" cy="0.812" r="0.812" transform="translate(35.356 22.843)" fill="#fff"/>
  </g>
</svg>
