<svg id="uti" xmlns="http://www.w3.org/2000/svg" width="29.069" height="29.069" viewBox="0 0 29.069 29.069">
  <path id="Caminho_2287" data-name="Caminho 2287" d="M0,0V29.069H29.069V0ZM27.366,1.7V20.553H1.7V1.7ZM1.7,27.366v-5.11H27.366v5.11Zm0,0" fill="#fff"/>
  <path id="Caminho_2288" data-name="Caminho 2288" d="M422,422h1.7v1.7H422Zm0,0" transform="translate(-398.041 -398.041)" fill="#fff"/>
  <path id="Caminho_2289" data-name="Caminho 2289" d="M362,422h1.7v1.7H362Zm0,0" transform="translate(-341.447 -398.041)" fill="#fff"/>
  <path id="Caminho_2290" data-name="Caminho 2290" d="M302,422h1.7v1.7H302Zm0,0" transform="translate(-284.854 -398.041)" fill="#fff"/>
  <path id="Caminho_2291" data-name="Caminho 2291" d="M60,422h1.7v1.7H60Zm0,0" transform="translate(-56.593 -398.041)" fill="#fff"/>
  <path id="Caminho_2292" data-name="Caminho 2292" d="M82.256,60H60V75.443H82.256Zm-1.7,1.7V66.87H76.774l-2.2-3.629-3.444,5.678-3.444-5.678-2.2,3.629H61.7V61.7ZM61.7,73.74V68.573h4.738l1.243-2.048L71.128,72.2l3.444-5.677,1.243,2.048h4.738V73.74Zm0,0" transform="translate(-56.593 -56.593)" fill="#fff"/>
</svg>
