<svg xmlns="http://www.w3.org/2000/svg" width="26.622" height="26.622" viewBox="0 0 26.622 26.622">
  <g id="hospital" transform="translate(-2 -2)">
    <path id="Caminho_2259" data-name="Caminho 2259" d="M28.178,9.986H22.41V2.444A.444.444,0,0,0,21.966,2H8.655a.444.444,0,0,0-.444.444V9.986H2.444A.444.444,0,0,0,2,10.43V28.178a.444.444,0,0,0,.444.444H28.178a.444.444,0,0,0,.444-.444V10.43A.444.444,0,0,0,28.178,9.986Zm-25.29.887H8.212v16.86H2.887ZM16.642,23.3v4.437H13.98V23.3Zm4.881,4.437H17.529V23.3h.887V22.41H12.2V23.3h.887v4.437H9.1V2.887H21.522Zm6.212,0H22.41V10.874h5.324Z" fill="#fff"/>
    <path id="Caminho_2260" data-name="Caminho 2260" d="M50.444,27.55h2.662a.444.444,0,0,0,.444-.444V24.444A.444.444,0,0,0,53.106,24H50.444a.444.444,0,0,0-.444.444v2.662A.444.444,0,0,0,50.444,27.55Zm.444-2.662h1.775v1.775H50.887Z" transform="translate(-26.703 -12.239)" fill="#fff"/>
    <path id="Caminho_2261" data-name="Caminho 2261" d="M50.444,37.55h2.662a.444.444,0,0,0,.444-.444V34.444A.444.444,0,0,0,53.106,34H50.444a.444.444,0,0,0-.444.444v2.662A.444.444,0,0,0,50.444,37.55Zm.444-2.662h1.775v1.775H50.887Z" transform="translate(-26.703 -17.802)" fill="#fff"/>
    <path id="Caminho_2262" data-name="Caminho 2262" d="M50.444,47.55h2.662a.444.444,0,0,0,.444-.444V44.444A.444.444,0,0,0,53.106,44H50.444a.444.444,0,0,0-.444.444v2.662A.444.444,0,0,0,50.444,47.55Zm.444-2.662h1.775v1.775H50.887Z" transform="translate(-26.703 -23.365)" fill="#fff"/>
    <path id="Caminho_2263" data-name="Caminho 2263" d="M9.106,24H6.444A.444.444,0,0,0,6,24.444v2.662a.444.444,0,0,0,.444.444H9.106a.444.444,0,0,0,.444-.444V24.444A.444.444,0,0,0,9.106,24Zm-.444,2.662H6.887V24.887H8.662Z" transform="translate(-2.225 -12.239)" fill="#fff"/>
    <path id="Caminho_2264" data-name="Caminho 2264" d="M20.444,24.662h1.775a.444.444,0,0,0,.444-.444V22.444A.444.444,0,0,0,22.218,22H20.444a.444.444,0,0,0-.444.444v1.775A.444.444,0,0,0,20.444,24.662Zm.444-1.775h.887v.887h-.887Z" transform="translate(-10.014 -11.126)" fill="#fff"/>
    <path id="Caminho_2265" data-name="Caminho 2265" d="M31.218,22H29.444a.444.444,0,0,0-.444.444v1.775a.444.444,0,0,0,.444.444h1.775a.444.444,0,0,0,.444-.444V22.444A.444.444,0,0,0,31.218,22Zm-.444,1.775h-.887v-.887h.887Z" transform="translate(-15.02 -11.126)" fill="#fff"/>
    <path id="Caminho_2266" data-name="Caminho 2266" d="M38,22.444v1.775a.444.444,0,0,0,.444.444h1.775a.444.444,0,0,0,.444-.444V22.444A.444.444,0,0,0,40.218,22H38.444A.444.444,0,0,0,38,22.444Zm.887.444h.887v.887h-.887Z" transform="translate(-20.027 -11.126)" fill="#fff"/>
    <path id="Caminho_2267" data-name="Caminho 2267" d="M20.444,32.662h1.775a.444.444,0,0,0,.444-.444V30.444A.444.444,0,0,0,22.218,30H20.444a.444.444,0,0,0-.444.444v1.775A.444.444,0,0,0,20.444,32.662Zm.444-1.775h.887v.887h-.887Z" transform="translate(-10.014 -15.577)" fill="#fff"/>
    <path id="Caminho_2268" data-name="Caminho 2268" d="M31.218,30H29.444a.444.444,0,0,0-.444.444v1.775a.444.444,0,0,0,.444.444h1.775a.444.444,0,0,0,.444-.444V30.444A.444.444,0,0,0,31.218,30Zm-.444,1.775h-.887v-.887h.887Z" transform="translate(-15.02 -15.577)" fill="#fff"/>
    <path id="Caminho_2269" data-name="Caminho 2269" d="M40.218,30H38.444a.444.444,0,0,0-.444.444v1.775a.444.444,0,0,0,.444.444h1.775a.444.444,0,0,0,.444-.444V30.444A.444.444,0,0,0,40.218,30Zm-.444,1.775h-.887v-.887h.887Z" transform="translate(-20.027 -15.577)" fill="#fff"/>
    <path id="Caminho_2270" data-name="Caminho 2270" d="M20.444,40.662h1.775a.444.444,0,0,0,.444-.444V38.444A.444.444,0,0,0,22.218,38H20.444a.444.444,0,0,0-.444.444v1.775A.444.444,0,0,0,20.444,40.662Zm.444-1.775h.887v.887h-.887Z" transform="translate(-10.014 -20.027)" fill="#fff"/>
    <path id="Caminho_2271" data-name="Caminho 2271" d="M31.218,38H29.444a.444.444,0,0,0-.444.444v1.775a.444.444,0,0,0,.444.444h1.775a.444.444,0,0,0,.444-.444V38.444A.444.444,0,0,0,31.218,38Zm-.444,1.775h-.887v-.887h.887Z" transform="translate(-15.02 -20.027)" fill="#fff"/>
    <path id="Caminho_2272" data-name="Caminho 2272" d="M40.218,38H38.444a.444.444,0,0,0-.444.444v1.775a.444.444,0,0,0,.444.444h1.775a.444.444,0,0,0,.444-.444V38.444A.444.444,0,0,0,40.218,38Zm-.444,1.775h-.887v-.887h.887Z" transform="translate(-20.027 -20.027)" fill="#fff"/>
    <path id="Caminho_2273" data-name="Caminho 2273" d="M9.106,34H6.444A.444.444,0,0,0,6,34.444v2.662a.444.444,0,0,0,.444.444H9.106a.444.444,0,0,0,.444-.444V34.444A.444.444,0,0,0,9.106,34Zm-.444,2.662H6.887V34.887H8.662Z" transform="translate(-2.225 -17.802)" fill="#fff"/>
    <path id="Caminho_2274" data-name="Caminho 2274" d="M9.106,44H6.444A.444.444,0,0,0,6,44.444v2.662a.444.444,0,0,0,.444.444H9.106a.444.444,0,0,0,.444-.444V44.444A.444.444,0,0,0,9.106,44Zm-.444,2.662H6.887V44.887H8.662Z" transform="translate(-2.225 -23.365)" fill="#fff"/>
    <path id="Caminho_2275" data-name="Caminho 2275" d="M25.444,10.437h1.331v1.331a.444.444,0,0,0,.444.444h1.775a.444.444,0,0,0,.444-.444V10.437h1.331a.444.444,0,0,0,.444-.444V8.218a.444.444,0,0,0-.444-.444H29.437V6.444A.444.444,0,0,0,28.993,6H27.218a.444.444,0,0,0-.444.444V7.775H25.444A.444.444,0,0,0,25,8.218V9.993A.444.444,0,0,0,25.444,10.437Zm.444-1.775h1.331a.444.444,0,0,0,.444-.444V6.887h.887V8.218a.444.444,0,0,0,.444.444h1.331V9.55H28.993a.444.444,0,0,0-.444.444v1.331h-.887V9.993a.444.444,0,0,0-.444-.444H25.887Z" transform="translate(-12.795 -2.225)" fill="#fff"/>
    <path id="Caminho_2276" data-name="Caminho 2276" d="M42,56h.887v.887H42Z" transform="translate(-22.252 -30.041)" fill="#fff"/>
    <path id="Caminho_2277" data-name="Caminho 2277" d="M42,52h.887v.887H42Z" transform="translate(-22.252 -27.815)" fill="#fff"/>
    <path id="Caminho_2278" data-name="Caminho 2278" d="M42,48h.887v.887H42Z" transform="translate(-22.252 -25.59)" fill="#fff"/>
  </g>
</svg>
