<svg xmlns="http://www.w3.org/2000/svg" width="29.227" height="29.228" viewBox="0 0 29.227 29.228">
  <g id="check-list" transform="translate(0 0.001)">
    <path id="Caminho_2391" data-name="Caminho 2391" d="M192.571,452a.571.571,0,1,0,.4.167A.575.575,0,0,0,192.571,452Zm0,0" transform="translate(-181.04 -426.198)" fill="#fff"/>
    <path id="Caminho_2392" data-name="Caminho 2392" d="M28.618,7.781a2.083,2.083,0,0,0-2.942,0l-2.613,2.613V1.94A1.943,1.943,0,0,0,21.122,0H1.941A1.943,1.943,0,0,0,0,1.94V27.287a1.943,1.943,0,0,0,1.941,1.941H21.122a1.943,1.943,0,0,0,1.941-1.941V16.28l5.556-5.556a2.083,2.083,0,0,0,0-2.942Zm-6.7-5.841v9.6l-1.142,1.142V2.854a.571.571,0,0,0-.571-.571H16.393V1.141h4.729a.8.8,0,0,1,.8.8ZM18.8,17.6l.771-1.731.961.961ZM15.251,1.141V3.467a.643.643,0,0,1-.642.642H8.453a.643.643,0,0,1-.642-.642V1.141Zm5.87,26.945H1.941a.8.8,0,0,1-.8-.8V1.94a.8.8,0,0,1,.8-.8H6.669V2.283H2.854a.571.571,0,0,0-.571.571v23.52a.571.571,0,0,0,.571.571H9.248a.571.571,0,1,0,0-1.142H3.425V3.425H6.669v.043A1.786,1.786,0,0,0,8.453,5.251h6.156a1.786,1.786,0,0,0,1.784-1.784V3.425h3.244v10.4l-.65.65a.578.578,0,0,0-.118.171L17.156,18.49a.571.571,0,0,0,.754.754l1.728-.769V25.8H13.815a.571.571,0,1,0,0,1.142h6.394a.571.571,0,0,0,.571-.571V17.966l.979-.436a.569.569,0,0,0,.163-.11v9.866a.8.8,0,0,1-.8.8Zm4.562-16.042L21.526,16.2,20.2,14.874l5.147-5.147,1.328,1.328Zm2.128-2.128-.33.33L26.153,8.919l.33-.33a.939.939,0,1,1,1.328,1.328Zm0,0" fill="#fff"/>
    <path id="Caminho_2393" data-name="Caminho 2393" d="M92.224,120H88.571a.571.571,0,0,0-.571.571v3.654a.571.571,0,0,0,.571.571h3.654a.571.571,0,0,0,.571-.571v-3.654A.571.571,0,0,0,92.224,120Zm-.571,3.654H89.142v-2.512h2.512Zm0,0" transform="translate(-82.977 -113.15)" fill="#fff"/>
    <path id="Caminho_2394" data-name="Caminho 2394" d="M92.224,230H88.571a.571.571,0,0,0-.571.571v3.654a.571.571,0,0,0,.571.571h3.654a.571.571,0,0,0,.571-.571v-3.654A.571.571,0,0,0,92.224,230Zm-.571,3.654H89.142v-2.512h2.512Zm0,0" transform="translate(-82.977 -216.871)" fill="#fff"/>
    <path id="Caminho_2395" data-name="Caminho 2395" d="M92.224,340H88.571a.571.571,0,0,0-.571.571v3.654a.571.571,0,0,0,.571.571h3.654a.571.571,0,0,0,.571-.571v-3.654A.571.571,0,0,0,92.224,340Zm-.571,3.654H89.142v-2.512h2.512Zm0,0" transform="translate(-82.977 -320.591)" fill="#fff"/>
    <path id="Caminho_2396" data-name="Caminho 2396" d="M209.839,132.978a.571.571,0,0,0,.807,0l2.577-2.577a.571.571,0,1,0-.807-.807l-2.174,2.174-.866-.866a.571.571,0,1,0-.807.807Zm0,0" transform="translate(-196.505 -122.039)" fill="#fff"/>
    <path id="Caminho_2397" data-name="Caminho 2397" d="M209.839,242.981a.571.571,0,0,0,.807,0l2.577-2.577a.571.571,0,0,0-.807-.807l-2.174,2.174-.866-.866a.571.571,0,1,0-.807.807Zm0,0" transform="translate(-196.505 -225.762)" fill="#fff"/>
    <path id="Caminho_2398" data-name="Caminho 2398" d="M221.386,352.093l.885.885a.571.571,0,1,0,.807-.807l-.885-.885.885-.885a.571.571,0,1,0-.807-.807l-.885.885-.885-.885a.571.571,0,1,0-.807.807l.885.885-.885.885a.571.571,0,1,0,.807.807Zm0,0" transform="translate(-206.995 -329.48)" fill="#fff"/>
  </g>
</svg>
