<svg xmlns="http://www.w3.org/2000/svg" width="26.761" height="26.764" viewBox="0 0 26.761 26.764">
  <path id="home" d="M26.543,11.64l0,0L15.623.721a2.464,2.464,0,0,0-3.485,0L1.226,11.633l-.011.011a2.463,2.463,0,0,0,1.639,4.2c.025,0,.051,0,.076,0h.435V23.88A2.887,2.887,0,0,0,6.25,26.763h4.271a.784.784,0,0,0,.784-.784v-6.3a1.317,1.317,0,0,1,1.316-1.316H15.14a1.317,1.317,0,0,1,1.316,1.316v6.3a.784.784,0,0,0,.784.784h4.271A2.887,2.887,0,0,0,24.4,23.88V15.846h.4a2.464,2.464,0,0,0,1.744-4.205Zm-1.11,2.374a.89.89,0,0,1-.633.263H23.611a.784.784,0,0,0-.784.784V23.88A1.317,1.317,0,0,1,21.511,25.2H18.024V19.68A2.887,2.887,0,0,0,15.14,16.8H12.621A2.887,2.887,0,0,0,9.737,19.68V25.2H6.25A1.317,1.317,0,0,1,4.934,23.88V15.062a.784.784,0,0,0-.784-.784H2.983l-.037,0a.895.895,0,0,1-.617-1.528h0L13.247,1.83a.9.9,0,0,1,1.266,0L25.429,12.745l.005,0a.9.9,0,0,1,0,1.265Zm0,0" transform="translate(-0.5 0.001)" fill="#fff"/>
</svg>
