<svg xmlns="http://www.w3.org/2000/svg" width="26.854" height="26.854" viewBox="0 0 26.854 26.854">
  <g id="Grupo_575" data-name="Grupo 575" transform="translate(-27.019 -267.262)">
    <path id="Caminho_2217" data-name="Caminho 2217" d="M23.4,4.476H14.448A.447.447,0,0,1,14,4.028V.448A.447.447,0,0,1,14.448,0H23.4a.447.447,0,0,1,.448.448v3.58A.447.447,0,0,1,23.4,4.476Zm-8.5-.9h8.056V.9H14.9Z" transform="translate(19.285 267.262)" fill="#fff"/>
    <path id="Caminho_2218" data-name="Caminho 2218" d="M21.9,28.378H4.448A.447.447,0,0,1,4,27.93V6.448A.447.447,0,0,1,4.448,6H8.923a.447.447,0,0,1,.448.448V6.9h8.056V6.448A.447.447,0,0,1,17.874,6H21.9a.447.447,0,0,1,.448.448V27.93A.447.447,0,0,1,21.9,28.378ZM4.9,27.483h16.56V6.9H18.322v.448a.447.447,0,0,1-.448.448H8.923a.447.447,0,0,1-.448-.448V6.9H4.9Z" transform="translate(24.809 263.948)" fill="#fff"/>
    <path id="Caminho_2219" data-name="Caminho 2219" d="M20.308,27.958H1.622A1.624,1.624,0,0,1,0,26.336V3.622A1.624,1.624,0,0,1,1.622,2H6.713a.447.447,0,0,1,.448.448V4.685h8.056V2.448A.447.447,0,0,1,15.665,2h4.643A1.624,1.624,0,0,1,21.93,3.622V26.336A1.624,1.624,0,0,1,20.308,27.958ZM1.622,2.9A.728.728,0,0,0,.9,3.622V26.336a.728.728,0,0,0,.727.727H20.308a.728.728,0,0,0,.727-.727V3.622a.728.728,0,0,0-.727-.727h-4.2V5.133a.447.447,0,0,1-.448.448H6.713a.447.447,0,0,1-.448-.448V2.9Z" transform="translate(27.019 266.158)" fill="#fff"/>
    <path id="Caminho_2220" data-name="Caminho 2220" d="M53.79,26.616a.447.447,0,0,1-.358-.179l-1.343-1.79a.446.446,0,0,1-.09-.269V3.133A1.134,1.134,0,0,1,53.133,2h1.315A1.134,1.134,0,0,1,55.58,3.133V24.378a.446.446,0,0,1-.09.269l-1.343,1.79a.447.447,0,0,1-.358.179Zm-.9-2.387.9,1.193.9-1.193V3.133a.238.238,0,0,0-.238-.238H53.133a.238.238,0,0,0-.238.238Zm2.238.149h0Z" transform="translate(-1.708 266.158)" fill="#fff"/>
    <path id="Caminho_2221" data-name="Caminho 2221" d="M55.418,57.238a.447.447,0,0,1-.448-.448V55.448a.448.448,0,1,1,.9,0V56.79A.447.447,0,0,1,55.418,57.238Z" transform="translate(-3.348 236.878)" fill="#fff"/>
    <path id="Caminho_2222" data-name="Caminho 2222" d="M55.133,5.58H52.448A.447.447,0,0,1,52,5.133v-2A1.134,1.134,0,0,1,53.133,2h1.315A1.134,1.134,0,0,1,55.58,3.133v2A.447.447,0,0,1,55.133,5.58Zm-2.238-.9h1.79V3.133a.238.238,0,0,0-.238-.238H53.133a.238.238,0,0,0-.238.238Z" transform="translate(-1.708 266.158)" fill="#fff"/>
    <path id="Caminho_2223" data-name="Caminho 2223" d="M53.76,50.371a.447.447,0,0,1-.358-.179L52.06,48.4a.446.446,0,0,1-.09-.269V45.448A.447.447,0,0,1,52.418,45H55.1a.447.447,0,0,1,.448.448v2.685a.446.446,0,0,1-.09.269l-1.343,1.79A.447.447,0,0,1,53.76,50.371Zm-.9-2.387.9,1.193.9-1.193V45.9h-1.79Z" transform="translate(-1.691 242.403)" fill="#fff"/>
    <path id="Caminho_2224" data-name="Caminho 2224" d="M55.133,25.476H52.448A.447.447,0,0,1,52,25.028v-3.58A.447.447,0,0,1,52.448,21h2.685a.447.447,0,0,1,.448.448v3.58A.447.447,0,0,1,55.133,25.476Zm-2.238-.9h1.79V21.9H52.9Z" transform="translate(-1.708 255.661)" fill="#fff"/>
    <path id="Caminho_2225" data-name="Caminho 2225" d="M18.923,22.846a4.923,4.923,0,1,1,4.923-4.923A4.929,4.929,0,0,1,18.923,22.846Zm0-8.951a4.028,4.028,0,1,0,4.028,4.028A4.032,4.032,0,0,0,18.923,13.9Z" transform="translate(19.285 260.081)" fill="#fff"/>
    <path id="Caminho_2226" data-name="Caminho 2226" d="M22.028,23.266h-1.79a.447.447,0,0,1-.448-.448V21.476H18.448A.447.447,0,0,1,18,21.028v-1.79a.447.447,0,0,1,.448-.448H19.79V17.448A.447.447,0,0,1,20.238,17h1.79a.447.447,0,0,1,.448.448V18.79h1.343a.447.447,0,0,1,.448.448v1.79a.447.447,0,0,1-.448.448H22.476v1.343A.447.447,0,0,1,22.028,23.266Zm-1.343-.9h.9V21.028a.447.447,0,0,1,.448-.448h1.343v-.9H22.028a.447.447,0,0,1-.448-.448V17.9h-.9v1.343a.447.447,0,0,1-.448.448H18.9v.9h1.343a.447.447,0,0,1,.448.448Z" transform="translate(17.075 257.871)" fill="#fff"/>
    <path id="Caminho_2227" data-name="Caminho 2227" d="M26.818,44.9H21.448a.448.448,0,1,1,0-.9h5.371a.448.448,0,0,1,0,.9Z" transform="translate(15.418 242.955)" fill="#fff"/>
    <path id="Caminho_2228" data-name="Caminho 2228" d="M12.476,44.9H8.448a.448.448,0,1,1,0-.9h4.028a.448.448,0,1,1,0,.9Z" transform="translate(22.6 242.955)" fill="#fff"/>
    <path id="Caminho_2229" data-name="Caminho 2229" d="M38.343,44.9h-.9a.448.448,0,1,1,0-.9h.9a.448.448,0,1,1,0,.9Z" transform="translate(6.579 242.955)" fill="#fff"/>
    <path id="Caminho_2230" data-name="Caminho 2230" d="M19.818,39.9H14.448a.448.448,0,1,1,0-.9h5.371a.448.448,0,1,1,0,.9Z" transform="translate(19.285 245.717)" fill="#fff"/>
    <path id="Caminho_2231" data-name="Caminho 2231" d="M34.476,39.9H30.448a.448.448,0,0,1,0-.9h4.028a.448.448,0,1,1,0,.9Z" transform="translate(10.446 245.717)" fill="#fff"/>
    <path id="Caminho_2232" data-name="Caminho 2232" d="M9.343,39.9h-.9a.448.448,0,1,1,0-.9h.9a.448.448,0,1,1,0,.9Z" transform="translate(22.6 245.717)" fill="#fff"/>
    <path id="Caminho_2233" data-name="Caminho 2233" d="M19.818,49.9H14.448a.448.448,0,1,1,0-.9h5.371a.448.448,0,1,1,0,.9Z" transform="translate(19.285 240.193)" fill="#fff"/>
    <path id="Caminho_2234" data-name="Caminho 2234" d="M34.476,49.9H30.448a.448.448,0,0,1,0-.9h4.028a.448.448,0,1,1,0,.9Z" transform="translate(10.446 240.193)" fill="#fff"/>
    <path id="Caminho_2235" data-name="Caminho 2235" d="M9.343,49.9h-.9a.448.448,0,1,1,0-.9h.9a.448.448,0,1,1,0,.9Z" transform="translate(22.6 240.193)" fill="#fff"/>
  </g>
</svg>
