<svg id="flask" xmlns="http://www.w3.org/2000/svg" width="18.21" height="25.534" viewBox="0 0 18.21 25.534">
  <path id="Caminho_2209" data-name="Caminho 2209" d="M18.023,22.123l-5.4-13.161a6.006,6.006,0,0,1-.451-2.29V3.193a1.393,1.393,0,0,1,.411-.992,1.7,1.7,0,0,0,.5-1.209V.5a.5.5,0,0,0-.5-.5H5.622a.5.5,0,0,0-.5.5V.992a1.7,1.7,0,0,0,.5,1.209,1.394,1.394,0,0,1,.411.992V6.672a6,6,0,0,1-.451,2.29L4.1,12.578l0,0L.184,22.123a2.473,2.473,0,0,0,2.288,3.412H15.735a2.473,2.473,0,0,0,2.288-3.412ZM6.507,9.34a6.994,6.994,0,0,0,.526-2.668V3.193a2.384,2.384,0,0,0-.7-1.7A.709.709,0,0,1,6.121,1h5.966a.708.708,0,0,1-.209.5,2.385,2.385,0,0,0-.7,1.7V6.672A7,7,0,0,0,11.7,9.34l1.2,2.935H5.3ZM16.961,23.883a1.454,1.454,0,0,1-1.226.654H2.472a1.478,1.478,0,0,1-1.461-1.689h.822a.5.5,0,1,0,0-1H1.374l.573-1.4h.841a.5.5,0,0,0,0-1H2.356l.573-1.4h.865a.5.5,0,1,0,0-1H3.338l.573-1.4H4.8a.5.5,0,0,0,0-1H4.321l.573-1.4h8.421L17.1,22.5A1.454,1.454,0,0,1,16.961,23.883Zm0,0" transform="translate(0.001 0)" fill="#fff"/>
  <path id="Caminho_2210" data-name="Caminho 2210" d="M293.734,438.309a.5.5,0,0,0-.923.378l0,.006a.5.5,0,1,0,.923-.378Zm0,0" transform="translate(-278.172 -416.155)" fill="#fff"/>
  <path id="Caminho_2211" data-name="Caminho 2211" d="M245.579,320.927l-1.786-4.353a.5.5,0,0,0-.923.379l1.786,4.353a.5.5,0,1,0,.923-.379Zm0,0" transform="translate(-230.722 -300.492)" fill="#fff"/>
</svg>
