<svg xmlns="http://www.w3.org/2000/svg" width="26.61" height="26.61" viewBox="0 0 26.61 26.61">
  <g id="Grupo_393" data-name="Grupo 393" transform="translate(0)">
    <g id="Grupo_393-2" data-name="Grupo 393" transform="translate(0 0)">
      <path id="Caminho_2236" data-name="Caminho 2236" d="M7.589-126.765v15.537c-.071.012-.059.077-.073.121A2.866,2.866,0,0,1,4.5-108.89q-10.2,0-20.4.005a3.285,3.285,0,0,1-2.019-.6l-.518-.517a3.082,3.082,0,0,1-.582-1.79q0-7.749,0-15.5a2.845,2.845,0,0,1,.15-.942,2.912,2.912,0,0,1,2.039-1.893A6.79,6.79,0,0,1-15.8-130.2c.483.024.483.024.459-.459q0-.494,0-.988c0-.935.025-1.87,0-2.8a.982.982,0,0,1,.579-1.04H-1.922a1.537,1.537,0,0,1,.579.406c.561.564,1.129,1.12,1.695,1.679a4.175,4.175,0,0,0,.526.527q.883.929,1.812,1.812a4.2,4.2,0,0,0,.526.527.925.925,0,0,0,.081.1c.347.322.689.644.6,1.189-.023.151.109.1.181.1a5.937,5.937,0,0,1,1.369.089l.635.241a2.962,2.962,0,0,1,1.462,2.039C7.55-126.779,7.575-126.773,7.589-126.765Zm-8.879-5.041v.988c-.027.478.013.519.495.519H1.163L-.244-131.76a4.23,4.23,0,0,0-.528-.527l-.518-.542Zm-12.473-1.559q0,.494,0,.988c0,.675,0,1.35-.012,2.025,0,.125.034.161.159.159.5-.01,1-.009,1.506-.012h.989c.537,0,1.074.02,1.61,0a3.821,3.821,0,0,1,1.768.315l.572.4a3.87,3.87,0,0,1,.787,1.14c.188.395.4.779.6,1.168a2.848,2.848,0,0,0,.283.563c.072.155.147.31.214.467a.166.166,0,0,0,.18.106c.958-.006,1.916-.008,2.874-.011h.989c1.143,0,2.286,0,3.429.011.124,0,.16-.033.159-.159q-.008-1.195,0-2.39c0-.125-.034-.164-.159-.159-.294.011-.588.009-.883.012H.313c-.387,0-.774-.02-1.161-.005a1.939,1.939,0,0,1-1.655-.73,2.6,2.6,0,0,1-.315-.683c-.013-.207-.036-.413-.037-.62-.006-1-.007-2.007-.01-3.01.035-.124-.013-.163-.139-.159-.28.01-.561.008-.841.01H-13.2C-13.792-133.958-13.792-133.958-13.762-133.365Zm17.671,6.7c0,.138,0,.277-.012.414-.019.169.039.216.21.213a4.338,4.338,0,0,1,1.391.1c.175.054.347.119.525.181.045-1.173-.33-1.746-1.187-1.832-.265,0-.529,0-.794-.015-.112,0-.149.03-.145.144C3.907-127.191,3.905-126.926,3.908-126.661Zm-17.731-1.967c-.8,0-1.609-.019-2.412,0a1.263,1.263,0,0,0-1.218,1.218c-.017.8,0,1.608,0,2.412q0,.494,0,.988,0,1.844,0,3.688,0,.494,0,.988,0,1.844,0,3.688,0,.494,0,.988c0,1-.007,2,0,3a.961.961,0,0,0,.165.535,1.034,1.034,0,0,0,.556.524.84.84,0,0,0,.51.149c1.026,0,2.051,0,3.077-.006H1.873c.969,0,1.937.015,2.906,0A1.27,1.27,0,0,0,6.025-111.7c.012-.968,0-1.937,0-2.905v-.988q0-1.844,0-3.688,0-.494,0-.988c0-1,.007-2,0-3a.966.966,0,0,0-.165-.535,1.04,1.04,0,0,0-.555-.525.857.857,0,0,0-.51-.148c-1.026,0-2.052,0-3.078.006H-3.949c-.57,0-1.14-.008-1.711-.007a.808.808,0,0,1-.773-.467c-.083-.16-.168-.319-.252-.479A3.7,3.7,0,0,0-7-126.06c-.326-.656-.648-1.313-.98-1.966a.76.76,0,0,0-.336-.347,1.125,1.125,0,0,0-.825-.255h-4.677Z" transform="translate(19.021 135.495)" fill="#fff"/>
      <path id="Caminho_2237" data-name="Caminho 2237" d="M146.564,125.611h-.988c-.241,0-.481,0-.722-.009a.779.779,0,0,1-.784-.788c-.008-.412-.007-.825-.009-1.238.029-.594.029-.594-.564-.564-.4,0-.791,0-1.186-.008a.788.788,0,0,1-.84-.836q0-.335-.008-.67v-.988c0-.448.006-.9.01-1.343a.786.786,0,0,1,.839-.839l1.343-.01c.432.025.432.025.407-.407,0-.448.005-.9.01-1.343a.786.786,0,0,1,.839-.839l1.343-.01h.988c.241,0,.481,0,.722.009a.779.779,0,0,1,.783.788c.008.412.007.825.01,1.238-.03.593-.03.593.564.564l1.186.008a.787.787,0,0,1,.84.836q0,.335.008.67,0,.494,0,.988c0,.448-.005.9-.01,1.343a.787.787,0,0,1-.839.839c-.448,0-.9.006-1.343.009-.432-.025-.432-.025-.407.407,0,.448-.005.9-.009,1.343a.788.788,0,0,1-.839.839C147.459,125.605,147.012,125.607,146.564,125.611Zm-1.4-4.116a1.228,1.228,0,0,1,.417.417,2.014,2.014,0,0,1,.051.538c0,.467,0,.934,0,1.4,0,.134.015.2.176.195.406-.012.813-.011,1.22,0,.143,0,.17-.047.168-.176-.006-.528,0-1.055,0-1.583a.784.784,0,0,1,.842-.842c.519,0,1.039-.007,1.558,0,.154,0,.21-.027.2-.2-.015-.363-.018-.727,0-1.09.011-.219-.037-.285-.274-.286a10.971,10.971,0,0,1-1.862-.042,1.238,1.238,0,0,1-.417-.417,1.992,1.992,0,0,1-.051-.538c0-.467,0-.934,0-1.4,0-.134-.015-.2-.176-.2-.406.012-.813.011-1.22,0-.143,0-.17.046-.169.176.007.528.005,1.055,0,1.583a.786.786,0,0,1-.842.842c-.519,0-1.038.007-1.557,0-.154,0-.21.028-.2.2.015.363.018.727,0,1.09-.011.219.037.285.274.286A11.035,11.035,0,0,1,145.161,121.494Z" transform="translate(-133.102 -102.634)" fill="#fff"/>
    </g>
  </g>
</svg>
