<svg xmlns="http://www.w3.org/2000/svg" width="24.428" height="28.361" viewBox="0 0 24.428 28.361">
  <g id="stethoscope" transform="translate(-35.501)">
    <g id="Grupo_408" data-name="Grupo 408" transform="translate(35.501 1.104)">
      <g id="Grupo_407" data-name="Grupo 407">
        <path id="Caminho_2282" data-name="Caminho 2282" d="M51.027,19.932H47.715V22h2.277v3.9a6.21,6.21,0,0,1-12.421,0V22h2.208v-2.07H36.536A1.035,1.035,0,0,0,35.5,20.967V25.9a8.281,8.281,0,0,0,16.561,0V20.967A1.035,1.035,0,0,0,51.027,19.932Z" transform="translate(-35.501 -19.932)" fill="#fff"/>
      </g>
    </g>
    <g id="Grupo_410" data-name="Grupo 410" transform="translate(42.643 14.353)">
      <g id="Grupo_409" data-name="Grupo 409">
        <path id="Caminho_2283" data-name="Caminho 2283" d="M176.855,260.977v4.9a5.175,5.175,0,1,1-10.351,0v-6.763h-2.07v6.763a7.246,7.246,0,0,0,14.491,0v-4.9Z" transform="translate(-164.434 -259.114)" fill="#fff"/>
      </g>
    </g>
    <g id="Grupo_412" data-name="Grupo 412" transform="translate(52.269 9.523)">
      <g id="Grupo_411" data-name="Grupo 411">
        <path id="Caminho_2284" data-name="Caminho 2284" d="M342.046,171.912a3.83,3.83,0,1,0,3.83,3.83A3.834,3.834,0,0,0,342.046,171.912Zm0,5.589a1.76,1.76,0,1,1,1.76-1.76A1.762,1.762,0,0,1,342.046,177.5Z" transform="translate(-338.216 -171.912)" fill="#fff"/>
      </g>
    </g>
    <g id="Grupo_414" data-name="Grupo 414" transform="translate(38.71)">
      <g id="Grupo_413" data-name="Grupo 413">
        <path id="Caminho_2285" data-name="Caminho 2285" d="M94.463,0a1.035,1.035,0,0,0-1.035,1.035V3.243a1.035,1.035,0,1,0,2.07,0V1.035A1.035,1.035,0,0,0,94.463,0Z" transform="translate(-93.428)" fill="#fff"/>
      </g>
    </g>
    <g id="Grupo_416" data-name="Grupo 416" transform="translate(46.714)">
      <g id="Grupo_415" data-name="Grupo 415">
        <path id="Caminho_2286" data-name="Caminho 2286" d="M238.969,0a1.035,1.035,0,0,0-1.035,1.035V3.243a1.035,1.035,0,1,0,2.07,0V1.035A1.035,1.035,0,0,0,238.969,0Z" transform="translate(-237.934)" fill="#fff"/>
      </g>
    </g>
  </g>
</svg>
