<svg xmlns="http://www.w3.org/2000/svg" width="18.602" height="27.714" viewBox="0 0 18.602 27.714">
  <g id="enfermeira" transform="translate(-78.376)">
    <g id="Grupo_569" data-name="Grupo 569" transform="translate(78.376 0)">
      <g id="Grupo_568" data-name="Grupo 568" transform="translate(0 0)">
        <path id="Caminho_2385" data-name="Caminho 2385" d="M96.972,27.175l-1.327-8.2a1.392,1.392,0,0,0-.987-1.19l-.082-.025A4.218,4.218,0,0,0,96,16.277a4.147,4.147,0,0,0,.326-3.351L94.174,7.4a6.518,6.518,0,0,0-1.3-3.581l.82-2.46a.465.465,0,0,0-.365-.6L90.006.193a14.163,14.163,0,0,0-4.659,0L82.02.748a.465.465,0,0,0-.365.6l.82,2.46a6.518,6.518,0,0,0-1.3,3.581l-2.159,5.559a4.134,4.134,0,0,0,.336,3.324,4.218,4.218,0,0,0,1.42,1.488l-.082.025a1.383,1.383,0,0,0-.984,1.166l-1.33,8.22a.465.465,0,0,0,.459.539H96.513a.465.465,0,0,0,.459-.539Zm-1.523-13.94a3.214,3.214,0,0,1-.263,2.584h0a3.263,3.263,0,0,1-1.963,1.54l-2.29-.687V15.423c.04-.032.082-.06.122-.093,1.672-1.4,2.521-4.551,2.651-6.578ZM84.9,14.616c-1.419-1.182-2.232-4.175-2.32-6.046a19.062,19.062,0,0,1,6.085-2.6,3.258,3.258,0,0,0,3.2,2.681h.918c-.111,2.076-1.033,4.9-2.322,5.968A4.343,4.343,0,0,1,84.9,14.616Zm.456,4.085,1.113.558-1.113.372ZM93.257,7.717h-1.4a2.329,2.329,0,0,1-2.279-1.86h2.279a.465.465,0,0,0,.441-.318l.2-.612A5.594,5.594,0,0,1,93.257,7.717ZM85.5,1.11a13.208,13.208,0,0,1,4.354,0l2.79.465L91.527,4.927h-7.7L82.71,1.575ZM82.1,7.717a5.593,5.593,0,0,1,.751-2.79l.2.61a.465.465,0,0,0,.441.32h2.361A19.979,19.979,0,0,0,82.1,7.767Zm-1.928,8.1a3.2,3.2,0,0,1-.271-2.558l1.624-4.177a.487.487,0,0,0,.11.027l.052-.008c.2,2.009,1.057,4.926,2.616,6.226.04.033.082.061.122.093v1.249l-2.29.687A3.263,3.263,0,0,1,80.168,15.819Zm7.044,10.965H82.535L82.1,19.316l-.93.055.437,7.413H79.387l1.246-7.706a.465.465,0,0,1,.33-.4l3.459-1.038v2.63a.465.465,0,0,0,.612.441l2.178-.726v6.8Zm-1.86-9.124V16.009a5.239,5.239,0,0,0,4.651,0V17.66l-2.325,1.163ZM90,18.7v.928l-1.113-.372Zm3.748,8.084.437-7.413-.93-.055-.439,7.468H88.142v-6.8l2.178.726a.465.465,0,0,0,.612-.441v-2.63l3.459,1.038a.474.474,0,0,1,.332.422h0l1.243,7.682Z" transform="translate(-78.376 0)" fill="#fff"/>
      </g>
    </g>
    <g id="Grupo_571" data-name="Grupo 571" transform="translate(90.467 21.669)">
      <g id="Grupo_570" data-name="Grupo 570" transform="translate(0)">
        <rect id="Retângulo_917" data-name="Retângulo 917" width="1.86" height="0.93" fill="#fff"/>
      </g>
    </g>
    <g id="Grupo_573" data-name="Grupo 573" transform="translate(86.282 1.671)">
      <g id="Grupo_572" data-name="Grupo 572">
        <path id="Caminho_2386" data-name="Caminho 2386" d="M216.236,29.68v-.93h-.93v.93h-.93v.93h.93v.93h.93v-.93h.93v-.93Z" transform="translate(-214.376 -28.75)" fill="#fff"/>
      </g>
    </g>
  </g>
</svg>
