<svg id="minimize" xmlns="http://www.w3.org/2000/svg" width="19.781" height="19.781" viewBox="0 0 19.781 19.781">
  <path id="Caminho_2171" data-name="Caminho 2171" d="M17.514,19.781H2.267A2.268,2.268,0,0,1,0,17.514V2.267A2.268,2.268,0,0,1,2.267,0H17.514a2.268,2.268,0,0,1,2.267,2.267V17.514A2.268,2.268,0,0,1,17.514,19.781ZM2.267,1.236a1.032,1.032,0,0,0-1.03,1.03V17.514a1.032,1.032,0,0,0,1.03,1.03H17.514a1.032,1.032,0,0,0,1.03-1.03V2.267a1.032,1.032,0,0,0-1.03-1.03Zm0,0"/>
  <path id="Caminho_2172" data-name="Caminho 2172" d="M219.307,134.594H213.95a.618.618,0,0,1-.618-.618v-5.357a.618.618,0,0,1,1.236,0v4.739h4.739a.618.618,0,1,1,0,1.236Zm0,0" transform="translate(-205.09 -123.055)"/>
  <path id="Caminho_2173" data-name="Caminho 2173" d="M213.958,93.559a.619.619,0,0,1-.437-1.056l7.006-7.006a.618.618,0,0,1,.875.875L214.4,93.378A.616.616,0,0,1,213.958,93.559Zm0,0" transform="translate(-205.098 -82.02)"/>
  <path id="Caminho_2174" data-name="Caminho 2174" d="M6.8,327.418a.618.618,0,0,1-.618-.618v-5.563H.618a.618.618,0,0,1,0-1.236H6.8a.618.618,0,0,1,.618.618V326.8A.618.618,0,0,1,6.8,327.418Zm0,0" transform="translate(0 -307.637)"/>
</svg>
