<svg xmlns="http://www.w3.org/2000/svg" width="26.259" height="26.489" viewBox="0 0 26.259 26.489">
  <g id="Grupo_331" data-name="Grupo 331" transform="translate(0 0)">
    <path id="Caminho_2167" data-name="Caminho 2167" d="M-20.071-176.274h.8a3.907,3.907,0,0,1,1.192.349,3.14,3.14,0,0,1,1.018.975l.308.62.007.044a5.1,5.1,0,0,1,.19,1.519c0,2.141,0,4.281-.006,6.422,0,.2.046.257.252.256,2.1-.008,4.2.007,6.294-.012a6.294,6.294,0,0,1,1.876.3l.239.123.425.309.355.349.3.459a.021.021,0,0,0,.008.029l.036.06a.02.02,0,0,0,.008.028l.04.086h0l.182.662.045.664-.046.66-.153.574-.177.394-.163.263a4.183,4.183,0,0,1-.511.527l-.24.182-.411.219-.518.156-.748.117-.665,0h-6.362c-.142.033-.065.147-.065.215q-.008,3.2,0,6.409a5.88,5.88,0,0,1-.088,1.18l-.1.357-.054.174-.181.383a3.225,3.225,0,0,1-1.144,1.118l-.534.193-.615.117h-.8l-.659-.145-.659-.31-.323-.248-.261-.269-.3-.424-.192-.416a5.375,5.375,0,0,1-.237-1.772q.01-3.174,0-6.348c0-.068.078-.182-.065-.215h-6.583l-.4,0a4.708,4.708,0,0,1-.926-.173l-.621-.269-.088-.046-.575-.483-.17-.194-.36-.6-.135-.351a.756.756,0,0,0-.077-.309l-.059-.663.045-.664a3.074,3.074,0,0,1,.568-1.322l.148-.17a5.2,5.2,0,0,1,.633-.489l.016,0,.012-.01a4.639,4.639,0,0,1,.661-.269l.446-.1.088-.02.131-.012c.25,0,.5-.012.75-.012,2.105,0,4.21,0,6.315,0,.2,0,.256-.046.255-.252-.008-2.251,0-4.5,0-6.752a4.679,4.679,0,0,1,.186-1.2l.274-.618.219-.309.364-.394.259-.194a3.388,3.388,0,0,1,.621-.3C-20.545-176.191-20.3-176.2-20.071-176.274Z" transform="translate(32.759 176.274)" fill="#1bb91f"/>
  </g>
</svg>
