<svg xmlns="http://www.w3.org/2000/svg" width="30.663" height="26.081" viewBox="0 0 30.663 26.081">
  <g id="heart-shape-outline-with-lifeline" transform="translate(31 -15.659)">
    <path id="Caminho_2281" data-name="Caminho 2281" d="M30.663,19.435a8.679,8.679,0,0,1-.432,2.709c-1.421,6.389-13.7,14.169-14.225,14.495a.675.675,0,0,1-.714,0A61.191,61.191,0,0,1,4.975,28.35a.67.67,0,1,1,.975-.919,59.832,59.832,0,0,0,9.7,7.845c2.033-1.33,12.1-8.151,13.291-13.486a7.591,7.591,0,0,0,.382-2.354,7.434,7.434,0,0,0-13.159-4.747.673.673,0,0,1-.516.243h0a.664.664,0,0,1-.515-.243A7.436,7.436,0,0,0,1.968,19.435a7.342,7.342,0,0,0,.368,2.29,8.019,8.019,0,0,0,.891,2.155H7.713l1.436-2.4a.667.667,0,0,1,.563-.325.645.645,0,0,1,.575.306l2.349,3.618L15.253,18a.67.67,0,0,1,.628-.438h0A.669.669,0,0,1,16.51,18L18.7,23.88h3.881a.67.67,0,0,1,0,1.34H18.235a.673.673,0,0,1-.63-.434l-1.72-4.627L13.432,26.8a.666.666,0,0,1-.555.432.654.654,0,0,1-.637-.3L9.749,23.09,8.67,24.9a.671.671,0,0,1-.575.327H.67a.67.67,0,1,1,0-1.34H1.7a8.261,8.261,0,0,1-.657-1.8,8.494,8.494,0,0,1-.417-2.645,8.778,8.778,0,0,1,15.019-6.172,8.775,8.775,0,0,1,15.016,6.17Z" transform="translate(-31 5)" fill="#fff"/>
  </g>
</svg>
