<svg xmlns="http://www.w3.org/2000/svg" width="20.808" height="20.806" viewBox="0 0 20.808 20.806">
  <g id="Grupo_334" data-name="Grupo 334" transform="translate(-1220 -82.977)">
    <g id="Grupo_333" data-name="Grupo 333" transform="translate(1220 82.977)">
      <g id="Grupo_332" data-name="Grupo 332" transform="translate(0 0)">
        <path id="Caminho_2168" data-name="Caminho 2168" d="M-96.076-38.117a.85.85,0,0,0-.333-.112,2.483,2.483,0,0,1-1.677-2.908,10.677,10.677,0,0,1,2.281-4.624,10.43,10.43,0,0,1,4.5-3.12l.247-.09a5.488,5.488,0,0,1-2.19-4.749,5.311,5.311,0,0,1,1.949-3.9,5.518,5.518,0,0,1,7.525.372,5.547,5.547,0,0,1-.629,8.26,1.013,1.013,0,0,0,.312.13.811.811,0,0,1,.547,1.044.8.8,0,0,1-1.068.5,10.262,10.262,0,0,0-1.965-.48,8.467,8.467,0,0,0-3.283.185,8.909,8.909,0,0,0-6.193,5.374,8.01,8.01,0,0,0-.426,1.393.844.844,0,0,0,.865,1.1c.9,0,1.8,0,2.7,0a1.156,1.156,0,0,1,.361.042.805.805,0,0,1,.558.806.767.767,0,0,1-.628.74c-.014,0-.025.025-.037.038Zm12.234-15.29a3.914,3.914,0,0,0-3.91-3.893,3.914,3.914,0,0,0-3.893,3.91,3.909,3.909,0,0,0,3.991,3.89A3.913,3.913,0,0,0-83.843-53.407Z" transform="translate(98.147 58.923)" fill="#010101"/>
        <path id="Caminho_2169" data-name="Caminho 2169" d="M56.74,261.345c-.088-.087-.211-.069-.317-.1a2.2,2.2,0,0,1-1.373-1.291,6.2,6.2,0,0,1-.317-1.024.809.809,0,0,1,1.557-.431c.088.262.157.531.249.791a.583.583,0,0,0,.613.434c.813,0,1.626,0,2.439,0a.58.58,0,0,0,.591-.377,4.973,4.973,0,0,0,.42-2.611,5.542,5.542,0,0,0-.439-1.512.536.536,0,0,0-.514-.333q-1.27-.008-2.54,0a.525.525,0,0,0-.536.386c-.082.25-.165.5-.241.752a.824.824,0,0,1-.866.648q-2.662,0-5.324,0a.386.386,0,0,0-.334.138,5.349,5.349,0,0,1-.393.41c-.065.063-.067.107.005.157a.117.117,0,0,1,.028.029,1.23,1.23,0,0,0,1.247.538,14.34,14.34,0,0,1,1.5-.01.816.816,0,1,1-.007,1.625c-.826,0-1.653,0-2.479,0a.95.95,0,0,1-.724-.3c-.438-.452-.884-.9-1.322-1.35a.8.8,0,0,1-.008-1.208c.434-.456.878-.9,1.314-1.358a.946.946,0,0,1,.727-.3c1.673,0,3.346,0,5.019.007a.246.246,0,0,0,.282-.2,2.17,2.17,0,0,1,2.253-1.591q1.148,0,2.3,0a2.2,2.2,0,0,1,2.169,1.463,6.936,6.936,0,0,1,.51,1.932c0,.028.007.052.04.059v1.219c-.057.013-.04.062-.045.1a7.81,7.81,0,0,1-.534,1.928,2.22,2.22,0,0,1-1,1.129,3.722,3.722,0,0,1-.774.26Z" transform="translate(-41.46 -240.54)" fill="#010101"/>
        <path id="Caminho_2170" data-name="Caminho 2170" d="M312.713,332.115a.812.812,0,1,1-.815.809A.816.816,0,0,1,312.713,332.115Z" transform="translate(-295.194 -316.185)" fill="#010101"/>
      </g>
    </g>
  </g>
</svg>
