<svg id="clock" xmlns="http://www.w3.org/2000/svg" width="25.633" height="25.633" viewBox="0 0 25.633 25.633">
  <g id="Grupo_403" data-name="Grupo 403" transform="translate(11.824 5.947)">
    <g id="Grupo_402" data-name="Grupo 402">
      <path id="Caminho_2279" data-name="Caminho 2279" d="M241.729,127.912l-3.574-2.68v-5.46a.993.993,0,1,0-1.986,0v5.957a.991.991,0,0,0,.4.794l3.971,2.978a.993.993,0,0,0,1.191-1.589Z" transform="translate(-236.169 -118.779)" fill="#fff"/>
    </g>
  </g>
  <g id="Grupo_405" data-name="Grupo 405">
    <g id="Grupo_404" data-name="Grupo 404">
      <path id="Caminho_2280" data-name="Caminho 2280" d="M12.817,0A12.817,12.817,0,1,0,25.633,12.817,12.831,12.831,0,0,0,12.817,0Zm0,23.648A10.831,10.831,0,1,1,23.648,12.817,10.844,10.844,0,0,1,12.817,23.648Z" fill="#fff"/>
    </g>
  </g>
</svg>
