<svg id="moleculas" xmlns="http://www.w3.org/2000/svg" width="28.227" height="28.227" viewBox="0 0 28.227 28.227">
  <g id="Grupo_574" data-name="Grupo 574">
    <path id="Caminho_2390" data-name="Caminho 2390" d="M24.032,13.8a4.195,4.195,0,1,0,0-8.39A4.151,4.151,0,0,0,19.8,9.566a4.273,4.273,0,0,0,.118,1.019l-3.45,1.568a3.063,3.063,0,0,0-3.881-.745L5.959,4.469A2.9,2.9,0,0,0,6.39,2.94,2.936,2.936,0,0,0,3.45,0,2.979,2.979,0,0,0,.431,2.94a2.962,2.962,0,0,0,2.94,2.94,2.9,2.9,0,0,0,1.411-.353l6.7,6.978a3.209,3.209,0,0,0-.47,1.607,2.9,2.9,0,0,0,.431,1.529L8.155,18.936a5.055,5.055,0,0,0-3.019-.98,5.136,5.136,0,1,0,5.136,5.136,5.332,5.332,0,0,0-.98-3.019l3.293-3.293a3,3,0,0,0,1.529.431,3.219,3.219,0,0,0,1.1-.2l2.744,2.744a4.078,4.078,0,0,0-.627,2.156,3.92,3.92,0,1,0,3.92-3.92,4.078,4.078,0,0,0-2.156.627l-2.548-2.548a2.933,2.933,0,0,0,.666-1.921,2.072,2.072,0,0,0-.039-.51l3.45-1.568A4.192,4.192,0,0,0,24.032,13.8Zm0-6.861a2.627,2.627,0,1,1-2.627,2.627A2.578,2.578,0,0,1,24.032,6.939ZM3.372,4.312A1.34,1.34,0,0,1,2,2.94a1.372,1.372,0,1,1,2.744,0A1.389,1.389,0,0,1,3.372,4.312ZM5.136,26.659a3.568,3.568,0,0,1,0-7.135,3.431,3.431,0,0,1,2.509,1.059,3.549,3.549,0,0,1-2.509,6.077ZM14.114,15.6a1.465,1.465,0,0,1-1.49-1.49,1.49,1.49,0,1,1,1.49,1.49Zm7.1,3.92a2.352,2.352,0,1,1-2.352,2.352A2.359,2.359,0,0,1,21.21,19.524Z" fill="#fff"/>
  </g>
</svg>
