<svg xmlns="http://www.w3.org/2000/svg" width="28.477" height="28.554" viewBox="0 0 28.477 28.554">
  <g id="medical-report" transform="translate(-1 -0.834)">
    <path id="Caminho_2198" data-name="Caminho 2198" d="M46.837,7.919v.919h-.919A.92.92,0,0,0,45,9.756v.919a.92.92,0,0,0,.919.919h.919v.919a.92.92,0,0,0,.919.919h.919a.92.92,0,0,0,.919-.919v-.919h.919a.92.92,0,0,0,.919-.919V9.756a.92.92,0,0,0-.919-.919h-.919V7.919A.92.92,0,0,0,48.675,7h-.919A.92.92,0,0,0,46.837,7.919Zm3.675,1.837v.919H48.675v1.837h-.919V10.675H45.919V9.756h1.837V7.919h.919V9.756Z" transform="translate(-23.79 -3.334)" fill="#d97704"/>
    <path id="Caminho_2199" data-name="Caminho 2199" d="M29.018,2.288a7.829,7.829,0,0,1-4.029-1.116L24.425.834l-.564.338a7.829,7.829,0,0,1-4.029,1.116h-.459v2.3h-.919V4.125a3.215,3.215,0,0,0-6.43,0v.459H5.593a.92.92,0,0,0-.919.919v3.68a3.516,3.516,0,0,0-2.661,1.323,4.662,4.662,0,0,0,.352,6.2l2.309,2.309v9.455a.92.92,0,0,0,.919.919H24.884a.92.92,0,0,0,.919-.919V12.32a6.851,6.851,0,0,0,3.675-6.1V2.288Zm-5.971,15.9-.971,1.093H16.617v5.512h5.512V20.606l.919-1.033v7.06H7.43V21.77l.459.459L13.414,16.7a4.666,4.666,0,0,0,.815-1.1h4.309a1.378,1.378,0,1,0,0-.919H14.6a4.723,4.723,0,0,0,.182-1.295,4.641,4.641,0,0,0-1.013-2.889A3.539,3.539,0,0,0,8.5,10.215l-.61.61-.459-.459V7.341H19.462a6.836,6.836,0,0,0,3.585,4.979Zm-3.2,4.978,1.358-1.528v2.237H17.535V20.2H21.21v.055l-1.4,1.572L18.779,20.8l-.649.649Zm-.479-8.018a.459.459,0,1,1,.459.459A.46.46,0,0,1,19.373,15.149ZM12.942,4.125a2.3,2.3,0,1,1,4.593,0v.459h-.919V4.125a1.378,1.378,0,0,0-2.756,0v.459h-.919Zm2.756.459h-.919V4.125a.459.459,0,1,1,.919,0Zm3.675.919V6.22c0,.068.006.135.008.2H6.512V9.634a3.481,3.481,0,0,0-.919-.358V5.5ZM1.919,13.395a3.718,3.718,0,0,1,.813-2.315,2.62,2.62,0,0,1,3.9-.216l1.26,1.26,1.26-1.26a2.62,2.62,0,0,1,3.9.216,3.729,3.729,0,0,1,.584,3.61H9.443L8.434,16.708,7.01,12.436,5.742,15.608H4.675v.919H6.363l.569-1.421,1.332,4,1.747-3.494h3.131a3.808,3.808,0,0,1-.377.447L7.89,20.93,3.015,16.055A3.727,3.727,0,0,1,1.919,13.395ZM24.884,28.469H5.593V19.932l.919.919v6.7H23.966V12.721c.109.039.216.079.327.113l.132.04.132-.04c.112-.034.219-.074.327-.113ZM28.559,6.22a5.948,5.948,0,0,1-4.134,5.692A5.948,5.948,0,0,1,20.291,6.22V3.195A8.753,8.753,0,0,0,24.334,1.96l.091-.055.091.055a8.747,8.747,0,0,0,4.043,1.235Z" transform="translate(0 0)" fill="#d97704"/>
    <path id="Caminho_2200" data-name="Caminho 2200" d="M31,51h.919v.919H31Z" transform="translate(-16.221 -27.124)" fill="#d97704"/>
    <path id="Caminho_2201" data-name="Caminho 2201" d="M27,51h.919v.919H27Z" transform="translate(-14.058 -27.124)" fill="#d97704"/>
    <path id="Caminho_2202" data-name="Caminho 2202" d="M23,51h.919v.919H23Z" transform="translate(-11.895 -27.124)" fill="#d97704"/>
    <path id="Caminho_2203" data-name="Caminho 2203" d="M33,25h2.756v.919H33Z" transform="translate(-17.302 -13.066)" fill="#d97704"/>
    <path id="Caminho_2204" data-name="Caminho 2204" d="M33,21h2.756v.919H33Z" transform="translate(-17.302 -10.903)" fill="#d97704"/>
    <path id="Caminho_2205" data-name="Caminho 2205" d="M33,17h2.756v.919H33Z" transform="translate(-17.302 -8.741)" fill="#d97704"/>
  </g>
</svg>
