<svg id="info" xmlns="http://www.w3.org/2000/svg" width="8" height="8" viewBox="0 0 8 8">
  <g id="Grupo_499" data-name="Grupo 499">
    <g id="Grupo_498" data-name="Grupo 498">
      <path id="Caminho_2329" data-name="Caminho 2329" d="M4,0A4,4,0,1,0,8,4,4,4,0,0,0,4,0ZM4,7.442A3.442,3.442,0,1,1,7.442,4,3.446,3.446,0,0,1,4,7.442Z" fill="#fff"/>
    </g>
  </g>
  <g id="Grupo_501" data-name="Grupo 501" transform="translate(3.721 3.181)">
    <g id="Grupo_500" data-name="Grupo 500">
      <path id="Caminho_2330" data-name="Caminho 2330" d="M238.419,203.609a.279.279,0,0,0-.279.279v2.288a.279.279,0,1,0,.558,0v-2.288A.279.279,0,0,0,238.419,203.609Z" transform="translate(-238.14 -203.609)" fill="#fff"/>
    </g>
  </g>
  <g id="Grupo_503" data-name="Grupo 503" transform="translate(3.721 1.972)">
    <g id="Grupo_502" data-name="Grupo 502">
      <path id="Caminho_2331" data-name="Caminho 2331" d="M238.419,126.214a.279.279,0,0,0-.279.279v.335a.279.279,0,1,0,.558,0v-.335A.279.279,0,0,0,238.419,126.214Z" transform="translate(-238.14 -126.214)" fill="#fff"/>
    </g>
  </g>
</svg>
