<svg id="Grupo_451" data-name="Grupo 451" xmlns="http://www.w3.org/2000/svg" width="28.591" height="34.053" viewBox="0 0 28.591 34.053">
  <path id="Caminho_2181" data-name="Caminho 2181" d="M708.714-270.421l-2,0c-1.553-.111-2.023-.609-2.11-2.184-.049-.886-.14-1.769-.213-2.654l-.127-1.894-.5-6.935-.127-1.894-.5-6.935-.127-1.894c-.008-.174-.027-.348-.021-.521.009-.266-.113-.324-.369-.357a1.679,1.679,0,0,1-1.569-1.814,1.681,1.681,0,0,1,1.794-1.529q2.2-.016,4.4-.026c.294.008.589.008.882.029.193.014.264-.066.318-.245.144-.478.314-.948.474-1.422a7.6,7.6,0,0,1,3.17-3.134,9.733,9.733,0,0,1,2.62-.64,7.841,7.841,0,0,1,4.191.844c.433.253.836.557,1.253.838l1.06,1.174a7.947,7.947,0,0,1,1.022,2.331.27.27,0,0,0,.313.256c1.205-.017,2.411-.021,3.616-.03l2.1.028a1.691,1.691,0,0,1,.959,2.753,1.572,1.572,0,0,1-1.183.588c-.291.009-.341.137-.355.375-.084,1.395-.175,2.789-.264,4.183a20.8,20.8,0,0,0-.176,2.209q-.278,3.993-.555,7.986a21.7,21.7,0,0,0-.173,2.209c-.153,2.074-.323,4.146-.454,6.222-.094,1.487-.673,2.058-2.173,2.062q-2.858.008-5.715.025l-2,0Zm14.095-4.317a19.294,19.294,0,0,0,.175-2.208c.062-.783.132-1.565.185-2.348.127-1.879.247-3.759.369-5.639a19.787,19.787,0,0,0,.176-2.209c.064-.817.136-1.634.191-2.451.125-1.844.243-3.69.363-5.535.156-.42.035-.594-.433-.552-.448.04-.9.022-1.352.03l-7.461,0-2,0c-2.128-.007-4.256-.011-6.385-.027-.267,0-.309.083-.286.336.075.834.111,1.671.175,2.506.087,1.129.188,2.257.283,3.385a11.468,11.468,0,0,0,.13,1.892c.082,1.288.156,2.577.248,3.864.073,1.025.168,2.049.253,3.073a11.41,11.41,0,0,0,.13,1.892c.1,1.548.207,3.1.3,4.644.015.244.125.282.329.278.732-.015,1.464-.02,2.2-.028l2.086,0,7.373,0,2.106,0c.834.056.835.056.864-.753A1.218,1.218,0,0,0,722.809-274.738Zm-7.472-24.3v0c.962,0,1.923.005,2.885-.005.16,0,.391.109.47-.084.065-.161-.117-.312-.205-.459-1.231-2.045-5-2.026-6.252-.082-.057.088-.109.179-.168.265-.206.3-.1.376.228.373C713.307-299.043,714.321-299.035,715.336-299.035Z" transform="translate(-701.04 304.474)" fill="#fff"/>
  <path id="Caminho_2182" data-name="Caminho 2182" d="M786.56-173.49l0-2.1.014-7.367a1.789,1.789,0,0,1,1.505-1.558,1.767,1.767,0,0,1,1.871,2.013c0,1.078.015,2.156.023,3.234q0,1,0,2c-.009,1.728,0,3.456-.031,5.184a1.674,1.674,0,0,1-2.481,1.553,1.572,1.572,0,0,1-.872-1.392C786.573-172.444,786.569-172.967,786.56-173.49Z" transform="translate(-777.565 197.124)" fill="#fff"/>
  <path id="Caminho_2183" data-name="Caminho 2183" d="M858.346-177.151l0,2.1c-.009.888-.02,1.775-.025,2.663a1.752,1.752,0,0,1-1.254,1.922,1.767,1.767,0,0,1-2.017-1.016,13.461,13.461,0,0,1-.12-1.889q0-3.731,0-7.462,0-1,0-2a1.785,1.785,0,0,1,1.792-1.79,2.245,2.245,0,0,1,1.254.651,2.383,2.383,0,0,1,.35,1.385C858.321-180.769,858.338-178.96,858.346-177.151Z" transform="translate(-838.752 197.218)" fill="#fff"/>
</svg>
