<svg xmlns="http://www.w3.org/2000/svg" width="31.998" height="32" viewBox="0 0 31.998 32">
  <g id="Grupo_452" data-name="Grupo 452" transform="translate(-1486.359 -2522.451)">
    <g id="Retângulo_793" data-name="Retângulo 793" transform="translate(1487.668 2523.727)" fill="#ce0814" stroke="#707070" stroke-width="1">
      <rect width="29.119" height="29.478" stroke="none"/>
      <rect x="0.5" y="0.5" width="28.119" height="28.478" fill="none"/>
    </g>
    <path id="Caminho_2180" data-name="Caminho 2180" d="M612.91-340.275l0-1.357,0-5.066,0-1.357,0-5.066,0-1.357,0-5.066,0-1.357q.006-.909.013-1.818a3.866,3.866,0,0,1,3.963-3.963c.606,0,1.212-.009,1.818-.013l1.357,0,5.066,0,1.357,0,5.066,0,1.357,0,5.066,0,1.357,0c.641.006,1.283,0,1.923.021a3.984,3.984,0,0,1,2.139.777l.782.8a4.4,4.4,0,0,1,.726,2.731c-.021.462,0,.926.007,1.389s0,.9,0,1.357q0,2.533,0,5.066,0,.679,0,1.357,0,2.533,0,5.066,0,.679,0,1.358,0,2.533,0,5.066,0,.679,0,1.357c-.058.805.054,1.615-.074,2.419a3.854,3.854,0,0,1-3.616,3.21c-.653.023-1.306.015-1.96.021H618.63c-.688-.006-1.377,0-2.065-.021a4.059,4.059,0,0,1-2.054-.712l-.8-.783a4.26,4.26,0,0,1-.791-2.744C612.936-339.4,612.914-339.836,612.91-340.275ZM622.485-337l5.066,0,1.357,0,5.066,0,1.358,0,5.066,0c.247,0,.5.021.742.007a1.571,1.571,0,0,0,1.465-1.465c.014-.246,0-.495-.007-.742q0-2.533,0-5.066,0-.679,0-1.357,0-2.533,0-5.066,0-.679,0-1.357,0-2.533,0-5.066,0-.679,0-1.357c0-1.473.009-2.947.008-4.42a1.07,1.07,0,0,0-.188-.637,1.208,1.208,0,0,0-.658-.664,1,1,0,0,0-.629-.2c-1.434,0-2.867,0-4.3.007H617.56c-.283,0-.567-.019-.85-.009a1.55,1.55,0,0,0-1.444,1.155,4.151,4.151,0,0,0-.049,1.2q0,2.533,0,5.066,0,.679,0,1.357,0,2.533,0,5.066,0,.679,0,1.358,0,2.533,0,5.066,0,.679,0,1.357c0,1.433-.01,2.867-.007,4.3a1,1,0,0,0,.2.629,1.215,1.215,0,0,0,.665.659,1.07,1.07,0,0,0,.637.188c1.473,0,2.946,0,4.418-.008Z" transform="translate(873.451 2889.147)" fill="#ce0814"/>
    <g id="Grupo_451" data-name="Grupo 451" transform="translate(1492.651 2526.894)">
      <path id="Caminho_2181" data-name="Caminho 2181" d="M706.251-281.35l-1.356,0c-1.055-.075-1.374-.414-1.433-1.483-.033-.6-.1-1.2-.145-1.8l-.086-1.286q-.171-2.355-.342-4.709l-.086-1.286-.342-4.709-.087-1.286c-.005-.118-.018-.236-.014-.354.006-.181-.076-.22-.25-.243a1.14,1.14,0,0,1-1.065-1.232,1.142,1.142,0,0,1,1.219-1.038q1.493-.011,2.987-.018c.2.006.4.005.6.019.131.009.18-.045.216-.166.1-.325.213-.644.322-.965a5.159,5.159,0,0,1,2.153-2.128,6.61,6.61,0,0,1,1.779-.435,5.325,5.325,0,0,1,2.846.573c.294.172.568.378.851.569l.72.8a5.4,5.4,0,0,1,.694,1.583.183.183,0,0,0,.213.173c.819-.012,1.637-.014,2.456-.02l1.429.019a1.148,1.148,0,0,1,.651,1.87,1.067,1.067,0,0,1-.8.4c-.2.006-.231.093-.241.254-.057.947-.119,1.894-.179,2.841a14.11,14.11,0,0,0-.119,1.5q-.188,2.712-.377,5.423a14.748,14.748,0,0,0-.118,1.5c-.1,1.408-.219,2.816-.308,4.225-.064,1.01-.457,1.4-1.476,1.4q-1.94.005-3.881.017l-1.357,0Zm9.571-2.931a13.108,13.108,0,0,0,.119-1.5c.042-.531.089-1.062.125-1.594.086-1.276.167-2.553.25-3.829a13.438,13.438,0,0,0,.12-1.5c.044-.555.092-1.109.13-1.665.085-1.253.165-2.506.246-3.758.106-.286.024-.4-.294-.375s-.612.015-.918.02l-5.067,0-1.357,0c-1.445-.005-2.89-.008-4.335-.018-.181,0-.21.056-.194.228.051.566.075,1.135.119,1.7.059.767.127,1.532.192,2.3a7.786,7.786,0,0,0,.088,1.284c.056.875.106,1.75.169,2.624.05.7.114,1.391.172,2.087a7.748,7.748,0,0,0,.088,1.285c.069,1.051.141,2.1.2,3.154.01.166.085.192.224.189.5-.01.994-.013,1.491-.019l1.416,0,5.007,0,1.43,0c.566.038.567.038.587-.511A.859.859,0,0,0,715.822-284.281Zm-5.074-16.5v0c.653,0,1.306,0,1.959,0,.109,0,.266.074.319-.057.044-.109-.079-.212-.14-.312a2.726,2.726,0,0,0-4.245-.055c-.038.06-.074.121-.114.18-.14.2-.066.256.155.253C709.37-300.786,710.059-300.781,710.748-300.781Z" transform="translate(-701.04 304.474)" fill="#fff"/>
      <path id="Caminho_2182" data-name="Caminho 2182" d="M786.559-177.027l0-1.423.01-5a1.215,1.215,0,0,1,1.022-1.058,1.2,1.2,0,0,1,1.271,1.367c0,.732.01,1.464.016,2.2q0,.678,0,1.356c-.006,1.173,0,2.347-.021,3.52a1.137,1.137,0,0,1-1.685,1.055,1.068,1.068,0,0,1-.592-.946C786.568-176.316,786.565-176.672,786.559-177.027Z" transform="translate(-780.451 193.075)" fill="#fff"/>
      <path id="Caminho_2183" data-name="Caminho 2183" d="M857.25-179.546l0,1.429c-.006.6-.014,1.206-.017,1.808a1.19,1.19,0,0,1-.852,1.305,1.2,1.2,0,0,1-1.37-.69,9.156,9.156,0,0,1-.081-1.283q0-2.534,0-5.067,0-.678,0-1.356a1.212,1.212,0,0,1,1.217-1.215,1.524,1.524,0,0,1,.852.442,1.618,1.618,0,0,1,.238.941C857.234-182,857.245-180.775,857.25-179.546Z" transform="translate(-843.945 193.173)" fill="#fff"/>
    </g>
  </g>
</svg>
