<svg xmlns="http://www.w3.org/2000/svg" width="9.16" height="10.91" viewBox="0 0 9.16 10.91">
  <g id="Grupo_579" data-name="Grupo 579" transform="translate(-2.969 -2.096)">
    <path id="Caminho_2181" data-name="Caminho 2181" d="M703.5-293.564h-.64c-.5-.036-.648-.2-.676-.7-.016-.284-.045-.567-.068-.85l-.041-.607-.161-2.222-.041-.607-.161-2.222-.041-.607c0-.056-.009-.111-.007-.167,0-.085-.036-.1-.118-.115a.538.538,0,0,1-.5-.581.539.539,0,0,1,.575-.49l1.409-.008c.094,0,.189,0,.282.009.062,0,.085-.021.1-.078.046-.153.1-.3.152-.455a2.434,2.434,0,0,1,1.016-1,3.118,3.118,0,0,1,.839-.205,2.512,2.512,0,0,1,1.343.27c.139.081.268.179.4.269l.34.376a2.549,2.549,0,0,1,.327.747.086.086,0,0,0,.1.082c.386-.006.772-.007,1.159-.01l.674.009a.542.542,0,0,1,.307.882.5.5,0,0,1-.379.189c-.093,0-.109.044-.114.12-.027.447-.056.894-.085,1.34a6.663,6.663,0,0,0-.056.708l-.178,2.559a6.966,6.966,0,0,0-.056.708c-.049.664-.1,1.328-.145,1.993-.03.476-.216.659-.7.661l-1.831.008H703.5Zm4.516-1.383a6.164,6.164,0,0,0,.056-.707c.02-.251.042-.5.059-.752.041-.6.079-1.2.118-1.807a6.357,6.357,0,0,0,.056-.708c.021-.262.044-.523.061-.785.04-.591.078-1.182.116-1.773.05-.135.011-.19-.139-.177s-.289.007-.433.009h-3.031c-.682,0-1.364,0-2.046-.009-.085,0-.1.026-.092.108.024.267.036.535.056.8.028.362.06.723.091,1.084a3.669,3.669,0,0,0,.042.606c.026.413.05.826.08,1.238.023.328.054.656.081.985a3.656,3.656,0,0,0,.041.606c.032.5.066.992.1,1.488,0,.078.04.09.105.089.234,0,.469-.006.7-.009h3.705c.267.018.267.018.277-.241A.405.405,0,0,0,708.015-294.947Zm-2.394-7.785h0c.308,0,.616,0,.924,0,.051,0,.125.035.151-.027s-.037-.1-.066-.147a1.286,1.286,0,0,0-2-.026c-.018.028-.035.057-.054.085-.066.1-.031.121.073.119C704.971-302.734,705.3-302.732,705.62-302.732Z" transform="translate(-698.071 306.57)" fill="#ce0814"/>
    <path id="Caminho_2182" data-name="Caminho 2182" d="M786.557-180.979v-.671l0-2.36a.573.573,0,0,1,.482-.5.566.566,0,0,1,.6.645c0,.345,0,.691.007,1.036q0,.32,0,.64c0,.554,0,1.107-.01,1.661a.536.536,0,0,1-.795.5.5.5,0,0,1-.28-.446C786.561-180.644,786.56-180.812,786.557-180.979Z" transform="translate(-780.706 190.647)" fill="#ce0814"/>
    <path id="Caminho_2183" data-name="Caminho 2183" d="M856.026-182.224v.674c0,.284-.006.569-.008.853a.561.561,0,0,1-.4.616.566.566,0,0,1-.646-.325,4.308,4.308,0,0,1-.038-.605q0-1.2,0-2.391,0-.32,0-.64a.572.572,0,0,1,.574-.573.72.72,0,0,1,.4.209.764.764,0,0,1,.112.444C856.018-183.383,856.024-182.8,856.026-182.224Z" transform="translate(-846.78 190.749)" fill="#ce0814"/>
  </g>
</svg>
