<svg xmlns="http://www.w3.org/2000/svg" width="239.165" height="81.914" viewBox="0 0 239.165 81.914">
  <g id="Marca" transform="translate(-147.456 -49.011)">
    <g id="Grupo_121" data-name="Grupo 121" transform="translate(251.439 56.891)">
      <path id="Caminho_462" data-name="Caminho 462" d="M888.067,136.753H868.639q-3.543,0-3.542-4.413V114.572a3.523,3.523,0,0,1,.871-2.468,3.055,3.055,0,0,1,2.381-.959h21.365l-.471-10.626H865.1q-7.608,0-10.509,3.542-1.975,2.381-1.976,7.084v23.982q0,5.866,3.951,9.058a13.086,13.086,0,0,0,8.537,2.787h23.423Z" transform="translate(-852.612 -100.519)" fill="#fff"/>
    </g>
    <g id="Grupo_122" data-name="Grupo 122" transform="translate(345.025 56.891)">
      <path id="Caminho_463" data-name="Caminho 463" d="M1612.528,136.753h-25.112q-3.543,0-3.542-4.413V114.572a3.526,3.526,0,0,1,.871-2.468,3.056,3.056,0,0,1,2.382-.959H1612.1l-.471-10.626h-27.758q-7.607,0-10.511,3.542-1.975,2.381-1.975,7.084v23.982q0,5.866,3.951,9.058a13.084,13.084,0,0,0,8.535,2.787h29.109Z" transform="translate(-1571.389 -100.519)" fill="#fff"/>
    </g>
    <g id="Grupo_123" data-name="Grupo 123" transform="translate(295.169 56.891)">
      <path id="Caminho_464" data-name="Caminho 464" d="M1233.018,125.077q0,10.627-11.9,10.626h-20.149V146.97h-12.486V100.515h32.634q11.9,0,11.9,10.626Zm-12.484-3.134v-6.5q0-4.3-3.832-4.3h-15.736v15.1H1216.7q3.83,0,3.83-4.3Z" transform="translate(-1188.479 -100.515)" fill="#fff"/>
    </g>
    <g id="Grupo_124" data-name="Grupo 124" transform="translate(254.011 114.014)">
      <path id="Caminho_465" data-name="Caminho 465" d="M872.383,541.963a9.044,9.044,0,0,1,1.712-.151,3,3,0,0,1,1.993.528,1.52,1.52,0,0,1,.6,1.282,1.722,1.722,0,0,1-1.227,1.593v.023a1.872,1.872,0,0,1,1.5,1.82,1.953,1.953,0,0,1-.614,1.455,3.638,3.638,0,0,1-2.51.68,11.062,11.062,0,0,1-1.456-.086Zm.936,2.973h.849c.992,0,1.573-.52,1.573-1.217,0-.851-.646-1.184-1.594-1.184a4.017,4.017,0,0,0-.832.063Zm0,3.479a4.941,4.941,0,0,0,.786.043c.969,0,1.864-.354,1.864-1.412,0-.99-.851-1.4-1.871-1.4h-.775Z" transform="translate(-872.381 -541.478)" fill="#fff"/>
      <path id="Caminho_466" data-name="Caminho 466" d="M953.389,558.775c0-.614-.009-1.143-.043-1.625h.832l.032,1.023h.043a1.56,1.56,0,0,1,1.443-1.144,1.046,1.046,0,0,1,.269.032v.894a1.443,1.443,0,0,0-.323-.032,1.33,1.33,0,0,0-1.27,1.218,2.709,2.709,0,0,0-.043.443v2.779h-.936Z" transform="translate(-942.802 -554.714)" fill="#fff"/>
      <path id="Caminho_467" data-name="Caminho 467" d="M1017.176,562.362l-.075-.657h-.032a1.944,1.944,0,0,1-1.595.775,1.486,1.486,0,0,1-1.595-1.5c0-1.259,1.121-1.949,3.134-1.939v-.1a1.074,1.074,0,0,0-1.184-1.206,2.6,2.6,0,0,0-1.358.387l-.216-.624a3.226,3.226,0,0,1,1.712-.464c1.595,0,1.982,1.088,1.982,2.133v1.949a7.423,7.423,0,0,0,.086,1.248Zm-.14-2.661c-1.035-.021-2.208.162-2.208,1.175a.84.84,0,0,0,.9.9,1.3,1.3,0,0,0,1.259-.872.987.987,0,0,0,.054-.3Z" transform="translate(-995.457 -554.714)" fill="#fff"/>
      <path id="Caminho_468" data-name="Caminho 468" d="M1091.029,561.394a2.485,2.485,0,0,0,1.248.375c.689,0,1.013-.345,1.013-.775,0-.452-.27-.7-.97-.958-.936-.335-1.379-.851-1.379-1.477a1.609,1.609,0,0,1,1.8-1.529,2.6,2.6,0,0,1,1.282.323l-.237.689a2.031,2.031,0,0,0-1.066-.3c-.56,0-.872.323-.872.71,0,.431.312.624.992.884.9.345,1.367.8,1.367,1.573,0,.915-.711,1.56-1.949,1.56a2.965,2.965,0,0,1-1.465-.357Z" transform="translate(-1062.353 -554.714)" fill="#fff"/>
      <path id="Caminho_469" data-name="Caminho 469" d="M1163.335,542.731a.587.587,0,0,1-1.175,0,.578.578,0,0,1,.592-.593.564.564,0,0,1,.582.593Zm-1.056,6.678V544.2h.947v5.213Z" transform="translate(-1124.425 -541.761)" fill="#fff"/>
      <path id="Caminho_470" data-name="Caminho 470" d="M1219.14,539.24h.947v7.652h-.947Z" transform="translate(-1173.991 -539.24)" fill="#fff"/>
      <path id="Caminho_471" data-name="Caminho 471" d="M1327.309,547.548a3.327,3.327,0,0,0,1.679.474c.958,0,1.519-.506,1.519-1.238,0-.68-.387-1.067-1.367-1.444-1.186-.416-1.918-1.034-1.918-2.056a2.091,2.091,0,0,1,2.348-1.975,3.3,3.3,0,0,1,1.606.357l-.259.764a2.9,2.9,0,0,0-1.379-.345c-.992,0-1.369.593-1.369,1.089,0,.678.443,1.013,1.444,1.4,1.229.474,1.852,1.067,1.852,2.133,0,1.121-.832,2.09-2.542,2.09a3.734,3.734,0,0,1-1.853-.464Z" transform="translate(-1267.864 -541.041)" fill="#fff"/>
      <path id="Caminho_472" data-name="Caminho 472" d="M1407.385,542.731a.586.586,0,1,1-1.172,0,.576.576,0,0,1,.591-.592.561.561,0,0,1,.581.592Zm-1.055,6.678V544.2h.947v5.213Z" transform="translate(-1336.702 -541.761)" fill="#fff"/>
      <path id="Caminho_473" data-name="Caminho 473" d="M1460.609,561.394a2.484,2.484,0,0,0,1.248.375c.689,0,1.012-.345,1.012-.775,0-.452-.269-.7-.97-.958-.935-.335-1.379-.851-1.379-1.477a1.609,1.609,0,0,1,1.8-1.529,2.6,2.6,0,0,1,1.283.323l-.237.689a2.027,2.027,0,0,0-1.067-.3c-.56,0-.872.323-.872.71,0,.431.312.624.992.884.905.345,1.367.8,1.367,1.573,0,.915-.711,1.56-1.949,1.56a2.969,2.969,0,0,1-1.466-.357Z" transform="translate(-1383.813 -554.714)" fill="#fff"/>
      <path id="Caminho_474" data-name="Caminho 474" d="M1529.836,546.441v1.5h1.358v.72h-1.358v2.807c0,.647.183,1.013.711,1.013a2.179,2.179,0,0,0,.55-.063l.043.711a2.322,2.322,0,0,1-.84.129,1.317,1.317,0,0,1-1.024-.4,1.93,1.93,0,0,1-.366-1.358v-2.844h-.809v-.72h.809v-1.247Z" transform="translate(-1442.722 -545.503)" fill="#fff"/>
      <path id="Caminho_475" data-name="Caminho 475" d="M1594.255,559.928a1.671,1.671,0,0,0,1.787,1.81,3.441,3.441,0,0,0,1.444-.269l.162.678a4.239,4.239,0,0,1-1.735.323,2.421,2.421,0,0,1-2.563-2.628,2.531,2.531,0,0,1,2.445-2.807,2.21,2.21,0,0,1,2.153,2.456,3.841,3.841,0,0,1-.031.443Zm2.779-.68a1.352,1.352,0,0,0-1.315-1.541,1.572,1.572,0,0,0-1.455,1.541Z" transform="translate(-1499.48 -554.713)" fill="#fff"/>
      <path id="Caminho_476" data-name="Caminho 476" d="M1674.112,558.559c0-.538-.011-.981-.043-1.41h.832l.042.84h.032a1.8,1.8,0,0,1,1.636-.959,1.544,1.544,0,0,1,1.477,1.046h.021a2.153,2.153,0,0,1,.581-.68,1.778,1.778,0,0,1,1.152-.366c.689,0,1.713.452,1.713,2.262v3.07h-.926v-2.952c0-1-.366-1.6-1.132-1.6a1.228,1.228,0,0,0-1.119.861,1.547,1.547,0,0,0-.075.474v3.223h-.926v-3.119c0-.832-.368-1.432-1.089-1.432a1.294,1.294,0,0,0-1.175.947,1.31,1.31,0,0,0-.075.464v3.145h-.926Z" transform="translate(-1569.681 -554.714)" fill="#fff"/>
      <path id="Caminho_477" data-name="Caminho 477" d="M1780.246,562.362l-.075-.657h-.032a1.945,1.945,0,0,1-1.595.776,1.486,1.486,0,0,1-1.6-1.5c0-1.259,1.121-1.949,3.135-1.939v-.1a1.074,1.074,0,0,0-1.184-1.206,2.6,2.6,0,0,0-1.358.387l-.215-.624a3.226,3.226,0,0,1,1.712-.464c1.595,0,1.982,1.088,1.982,2.133v1.949a7.436,7.436,0,0,0,.086,1.248Zm-.14-2.661c-1.034-.021-2.209.162-2.209,1.175a.841.841,0,0,0,.9.9,1.3,1.3,0,0,0,1.26-.872.975.975,0,0,0,.054-.3Z" transform="translate(-1659.167 -554.714)" fill="#fff"/>
      <path id="Caminho_478" data-name="Caminho 478" d="M1854.09,561.394a2.483,2.483,0,0,0,1.247.375c.689,0,1.013-.345,1.013-.775,0-.452-.269-.7-.97-.958-.936-.335-1.378-.851-1.378-1.477a1.608,1.608,0,0,1,1.8-1.529,2.6,2.6,0,0,1,1.282.323l-.237.689a2.028,2.028,0,0,0-1.066-.3c-.561,0-.872.323-.872.71,0,.431.312.624.992.884.9.345,1.367.8,1.367,1.573,0,.915-.711,1.56-1.949,1.56a2.968,2.968,0,0,1-1.465-.357Z" transform="translate(-1726.064 -554.714)" fill="#fff"/>
    </g>
    <g id="Grupo_126" data-name="Grupo 126" transform="translate(147.456 49.011)">
      <g id="Grupo_125" data-name="Grupo 125" transform="translate(0 0)">
        <path id="Caminho_479" data-name="Caminho 479" d="M125.942,83.948c-.071.312-.134.645-.185,1.021-2.591,18.949-22.262,31.727-39.989,25.725C73.905,106.678,65.9,98.245,64.06,85.567,62.258,73.131,67.02,62.9,77.223,55.49c4.07-2.955,8.546-5.31,13.7-5.516V40A41.46,41.46,0,0,0,53.982,81.317c-.018,18.539,14.008,35.971,31.952,39.723A41.573,41.573,0,0,0,132.12,97.815a36.26,36.26,0,0,0,3.626-13.673v-.2Z" transform="translate(-53.982 -40)" fill="#fff"/>
      </g>
    </g>
    <g id="Grupo_128" data-name="Grupo 128" transform="translate(168.556 70.232)">
      <g id="Grupo_127" data-name="Grupo 127" transform="translate(0 0)">
        <path id="Caminho_480" data-name="Caminho 480" d="M272.994,203H234.113v.076h-.343c-7.032.168-14.22,6.157-16.68,13.578a19.1,19.1,0,0,0,5.2,20.344,20.368,20.368,0,0,0,27.094.978,17.713,17.713,0,0,0,6.122-12.25h-10.48a17.239,17.239,0,0,1-4.158,6.142,8.012,8.012,0,0,1-4.008,1.653,10.554,10.554,0,0,1-11.2-13.982,9.9,9.9,0,0,1,3.794-4.951,13.644,13.644,0,0,1,7.1-1.942H273A4.822,4.822,0,1,0,273,203Z" transform="translate(-216.047 -203)" fill="#fff"/>
      </g>
    </g>
  </g>
</svg>
