<svg id="Marca" xmlns="http://www.w3.org/2000/svg" width="261.203" height="89.462" viewBox="0 0 261.203 89.462">
  <g id="Grupo_121" data-name="Grupo 121" transform="translate(113.564 8.606)">
    <path id="Caminho_462" data-name="Caminho 462" d="M891.334,140.092H870.116q-3.869,0-3.868-4.82V115.866a3.848,3.848,0,0,1,.951-2.7,3.337,3.337,0,0,1,2.6-1.047h23.334l-.514-11.605H866.247q-8.309,0-11.478,3.868-2.157,2.6-2.157,7.737v26.192q0,6.406,4.315,9.893a14.291,14.291,0,0,0,9.323,3.044H891.83Z" transform="translate(-852.612 -100.519)" fill="#138898"/>
  </g>
  <g id="Grupo_122" data-name="Grupo 122" transform="translate(215.774 8.606)">
    <path id="Caminho_463" data-name="Caminho 463" d="M1616.319,140.092h-27.426q-3.869,0-3.868-4.82V115.866a3.852,3.852,0,0,1,.952-2.7,3.338,3.338,0,0,1,2.6-1.047h27.278l-.514-11.605h-30.316q-8.308,0-11.479,3.868-2.157,2.6-2.157,7.737v26.192q0,6.406,4.315,9.893a14.289,14.289,0,0,0,9.321,3.044h31.792Z" transform="translate(-1571.389 -100.519)" fill="#138898"/>
  </g>
  <g id="Grupo_123" data-name="Grupo 123" transform="translate(161.324 8.606)">
    <path id="Caminho_464" data-name="Caminho 464" d="M1237.121,127.34q0,11.606-13,11.605h-22.005v12.306h-13.636V100.515h35.641q13,0,13,11.605Zm-13.634-3.423v-7.1q0-4.693-4.185-4.693h-17.186V128.61H1219.3q4.183,0,4.183-4.693Z" transform="translate(-1188.479 -100.515)" fill="#138898"/>
  </g>
  <g id="Grupo_124" data-name="Grupo 124" transform="translate(116.373 70.993)">
    <path id="Caminho_465" data-name="Caminho 465" d="M872.383,541.978a9.88,9.88,0,0,1,1.87-.165,3.279,3.279,0,0,1,2.177.577,1.66,1.66,0,0,1,.659,1.4,1.88,1.88,0,0,1-1.34,1.739v.025a2.044,2.044,0,0,1,1.634,1.987,2.132,2.132,0,0,1-.671,1.589,3.974,3.974,0,0,1-2.741.743,12.067,12.067,0,0,1-1.59-.094Zm1.022,3.247h.928c1.083,0,1.718-.568,1.718-1.33,0-.93-.705-1.293-1.742-1.293a4.383,4.383,0,0,0-.908.069Zm0,3.8a5.4,5.4,0,0,0,.858.047c1.058,0,2.036-.387,2.036-1.542,0-1.081-.93-1.529-2.044-1.529h-.846Z" transform="translate(-872.381 -541.448)" fill="#138898"/>
    <path id="Caminho_466" data-name="Caminho 466" d="M953.393,558.935c0-.671-.01-1.249-.047-1.775h.908l.035,1.117h.048a1.7,1.7,0,0,1,1.576-1.249,1.139,1.139,0,0,1,.294.035v.977a1.576,1.576,0,0,0-.353-.035,1.452,1.452,0,0,0-1.387,1.33,2.963,2.963,0,0,0-.047.484v3.035H953.4Z" transform="translate(-941.831 -554.5)" fill="#138898"/>
    <path id="Caminho_467" data-name="Caminho 467" d="M1017.479,562.853l-.082-.718h-.035a2.123,2.123,0,0,1-1.742.847,1.623,1.623,0,0,1-1.742-1.636c0-1.375,1.224-2.129,3.423-2.118v-.114a1.173,1.173,0,0,0-1.293-1.317,2.839,2.839,0,0,0-1.483.422l-.236-.681a3.522,3.522,0,0,1,1.87-.506c1.742,0,2.164,1.189,2.164,2.33v2.129a8.132,8.132,0,0,0,.094,1.363Zm-.153-2.907c-1.13-.023-2.412.177-2.412,1.283a.917.917,0,0,0,.978.988,1.416,1.416,0,0,0,1.375-.953,1.07,1.07,0,0,0,.059-.33Z" transform="translate(-993.759 -554.5)" fill="#138898"/>
    <path id="Caminho_468" data-name="Caminho 468" d="M1091.051,561.8a2.715,2.715,0,0,0,1.363.41c.753,0,1.106-.377,1.106-.846,0-.494-.294-.765-1.059-1.047-1.022-.366-1.506-.93-1.506-1.614a1.757,1.757,0,0,1,1.964-1.67,2.838,2.838,0,0,1,1.4.353l-.259.753a2.218,2.218,0,0,0-1.165-.33c-.612,0-.953.353-.953.775,0,.471.341.681,1.083.965.988.377,1.493.871,1.493,1.718,0,1-.776,1.7-2.129,1.7a3.24,3.24,0,0,1-1.6-.389Z" transform="translate(-1059.733 -554.502)" fill="#138898"/>
    <path id="Caminho_469" data-name="Caminho 469" d="M1163.443,542.785a.641.641,0,1,1-1.283,0,.631.631,0,0,1,.647-.647.615.615,0,0,1,.636.647Zm-1.153,7.294v-5.693h1.035v5.693Z" transform="translate(-1120.948 -541.726)" fill="#138898"/>
    <path id="Caminho_470" data-name="Caminho 470" d="M1219.14,539.24h1.034V547.6h-1.034Z" transform="translate(-1169.831 -539.24)" fill="#138898"/>
    <path id="Caminho_471" data-name="Caminho 471" d="M1327.331,548.124a3.633,3.633,0,0,0,1.834.518c1.047,0,1.659-.553,1.659-1.352,0-.743-.422-1.165-1.493-1.577-1.3-.454-2.095-1.13-2.095-2.246a2.284,2.284,0,0,1,2.564-2.157,3.61,3.61,0,0,1,1.754.389l-.283.834a3.158,3.158,0,0,0-1.506-.377c-1.083,0-1.5.647-1.5,1.189,0,.74.484,1.106,1.577,1.529,1.342.518,2.023,1.165,2.023,2.33,0,1.224-.908,2.282-2.776,2.282a4.077,4.077,0,0,1-2.023-.506Z" transform="translate(-1262.408 -541.018)" fill="#138898"/>
    <path id="Caminho_472" data-name="Caminho 472" d="M1407.493,542.785a.64.64,0,1,1-1.281,0,.63.63,0,0,1,.646-.647.613.613,0,0,1,.635.647Zm-1.152,7.294v-5.693h1.034v5.693Z" transform="translate(-1330.297 -541.726)" fill="#138898"/>
    <path id="Caminho_473" data-name="Caminho 473" d="M1460.631,561.8a2.713,2.713,0,0,0,1.362.41c.753,0,1.106-.377,1.106-.846,0-.494-.294-.765-1.059-1.047-1.022-.366-1.505-.93-1.505-1.614a1.756,1.756,0,0,1,1.964-1.67,2.838,2.838,0,0,1,1.4.353l-.259.753a2.214,2.214,0,0,0-1.165-.33c-.612,0-.953.353-.953.775,0,.471.341.681,1.083.965.989.377,1.493.871,1.493,1.718,0,1-.777,1.7-2.129,1.7a3.244,3.244,0,0,1-1.6-.389Z" transform="translate(-1376.759 -554.502)" fill="#138898"/>
    <path id="Caminho_474" data-name="Caminho 474" d="M1530,546.441v1.636h1.483v.787H1530v3.066c0,.706.2,1.106.776,1.106a2.388,2.388,0,0,0,.6-.069l.047.777a2.536,2.536,0,0,1-.917.141,1.437,1.437,0,0,1-1.118-.435,2.108,2.108,0,0,1-.4-1.483v-3.107h-.883v-.787h.883V546.71Z" transform="translate(-1434.854 -545.417)" fill="#138898"/>
    <path id="Caminho_475" data-name="Caminho 475" d="M1594.34,560.195a1.825,1.825,0,0,0,1.952,1.977,3.756,3.756,0,0,0,1.577-.294l.177.74a4.628,4.628,0,0,1-1.895.353,2.644,2.644,0,0,1-2.8-2.87,2.764,2.764,0,0,1,2.67-3.066,2.413,2.413,0,0,1,2.352,2.682,4.216,4.216,0,0,1-.034.484Zm3.035-.743a1.476,1.476,0,0,0-1.436-1.683,1.716,1.716,0,0,0-1.589,1.683Z" transform="translate(-1490.832 -554.5)" fill="#138898"/>
    <path id="Caminho_476" data-name="Caminho 476" d="M1674.116,558.7c0-.587-.012-1.071-.048-1.54h.908l.046.917h.035a1.964,1.964,0,0,1,1.787-1.047,1.686,1.686,0,0,1,1.614,1.142h.023a2.346,2.346,0,0,1,.635-.743,1.942,1.942,0,0,1,1.258-.4c.753,0,1.871.494,1.871,2.471v3.353h-1.012V559.63c0-1.093-.4-1.752-1.236-1.752a1.341,1.341,0,0,0-1.222.94,1.687,1.687,0,0,0-.082.518v3.52h-1.011V559.45c0-.908-.4-1.565-1.189-1.565a1.413,1.413,0,0,0-1.283,1.034,1.436,1.436,0,0,0-.082.506v3.435h-1.011Z" transform="translate(-1560.062 -554.501)" fill="#138898"/>
    <path id="Caminho_477" data-name="Caminho 477" d="M1780.55,562.853l-.082-.718h-.035a2.124,2.124,0,0,1-1.742.847,1.623,1.623,0,0,1-1.742-1.636c0-1.375,1.224-2.129,3.424-2.118v-.114a1.173,1.173,0,0,0-1.293-1.317,2.838,2.838,0,0,0-1.483.422l-.235-.681a3.522,3.522,0,0,1,1.87-.506c1.742,0,2.164,1.189,2.164,2.33v2.129a8.106,8.106,0,0,0,.094,1.363Zm-.153-2.907c-1.13-.023-2.413.177-2.413,1.283a.918.918,0,0,0,.978.988,1.416,1.416,0,0,0,1.376-.953,1.07,1.07,0,0,0,.059-.331Z" transform="translate(-1648.314 -554.5)" fill="#138898"/>
    <path id="Caminho_478" data-name="Caminho 478" d="M1854.111,561.8a2.714,2.714,0,0,0,1.362.41c.753,0,1.106-.377,1.106-.846,0-.494-.294-.765-1.059-1.047-1.022-.366-1.505-.93-1.505-1.614a1.756,1.756,0,0,1,1.964-1.67,2.839,2.839,0,0,1,1.4.353l-.259.753a2.216,2.216,0,0,0-1.165-.33c-.612,0-.953.353-.953.775,0,.471.341.681,1.083.965.988.377,1.493.871,1.493,1.718,0,1-.776,1.7-2.129,1.7a3.242,3.242,0,0,1-1.6-.389Z" transform="translate(-1714.288 -554.502)" fill="#138898"/>
  </g>
  <g id="Grupo_126" data-name="Grupo 126">
    <g id="Grupo_125" data-name="Grupo 125" transform="translate(0 0)">
      <path id="Caminho_479" data-name="Caminho 479" d="M132.573,88c-.077.341-.146.7-.2,1.115-2.829,20.7-24.314,34.651-43.674,28.1-12.956-4.386-21.7-13.6-23.709-27.443-1.968-13.582,3.233-24.758,14.375-32.848,4.445-3.227,9.333-5.8,14.967-6.025V40A45.28,45.28,0,0,0,53.982,85.124c-.019,20.247,15.3,39.285,34.9,43.383a45.4,45.4,0,0,0,50.442-25.364,39.6,39.6,0,0,0,3.96-14.933V88Z" transform="translate(-53.982 -40)" fill="#138898"/>
    </g>
  </g>
  <g id="Grupo_128" data-name="Grupo 128" transform="translate(23.045 23.176)">
    <g id="Grupo_127" data-name="Grupo 127" transform="translate(0 0)">
      <path id="Caminho_480" data-name="Caminho 480" d="M278.242,203H235.777v.083H235.4c-7.68.184-15.53,6.724-18.217,14.83a20.861,20.861,0,0,0,5.677,22.219,22.245,22.245,0,0,0,29.59,1.068,19.345,19.345,0,0,0,6.686-13.379H247.693a18.827,18.827,0,0,1-4.542,6.708,8.75,8.75,0,0,1-4.377,1.805,11.527,11.527,0,0,1-12.233-15.27,10.816,10.816,0,0,1,4.143-5.407,14.9,14.9,0,0,1,7.755-2.121h39.8a5.266,5.266,0,1,0,0-10.532Z" transform="translate(-216.047 -203)" fill="#138898"/>
    </g>
  </g>
</svg>
