<svg xmlns="http://www.w3.org/2000/svg" width="17.337" height="17.489" viewBox="0 0 17.337 17.489">
  <g id="Grupo_535" data-name="Grupo 535" transform="translate(0 0)">
    <path id="Caminho_2167" data-name="Caminho 2167" d="M-24.382-176.274h.525a2.58,2.58,0,0,1,.787.23,2.073,2.073,0,0,1,.672.644l.2.409,0,.029a3.365,3.365,0,0,1,.126,1c0,1.413,0,2.827,0,4.24,0,.132.03.169.166.169,1.385-.005,2.77,0,4.156-.008a4.156,4.156,0,0,1,1.239.2l.158.081.281.2.235.231.2.3a.014.014,0,0,0,.006.019l.024.04a.013.013,0,0,0,.005.019l.027.057h0l.12.437.03.439-.03.436-.1.379-.117.26-.107.174a2.762,2.762,0,0,1-.337.348l-.159.12-.271.145-.342.1-.494.077-.439,0h-4.2c-.094.022-.043.1-.043.142q-.005,2.116,0,4.232a3.882,3.882,0,0,1-.058.779l-.064.236-.035.115-.12.253a2.129,2.129,0,0,1-.755.738l-.352.127-.406.077h-.525l-.435-.1-.435-.2-.213-.164-.173-.177-.2-.28-.127-.274a3.549,3.549,0,0,1-.157-1.17q.007-2.1,0-4.191c0-.045.051-.12-.043-.142h-4.346l-.264,0a3.108,3.108,0,0,1-.611-.114l-.41-.178-.058-.03-.38-.319-.112-.128-.238-.4-.089-.232a.5.5,0,0,0-.051-.2l-.039-.438.03-.439a2.029,2.029,0,0,1,.375-.873l.1-.112a3.434,3.434,0,0,1,.418-.323h.01l.008-.007a3.063,3.063,0,0,1,.436-.178l.295-.065.058-.013.086-.008c.165,0,.33-.008.495-.008,1.39,0,2.78,0,4.17,0,.132,0,.169-.03.168-.166-.005-1.486,0-2.972,0-4.458a3.089,3.089,0,0,1,.123-.789l.181-.408.145-.2.24-.26.171-.128a2.237,2.237,0,0,1,.41-.2C-24.7-176.219-24.533-176.222-24.382-176.274Z" transform="translate(32.759 176.274)" fill="#12565f"/>
  </g>
</svg>
