<svg xmlns="http://www.w3.org/2000/svg" width="29.856" height="27.368" viewBox="0 0 29.856 27.368">
  <g id="mecanismo-de-busca" style="isolation: isolate">
    <g id="Grupo_327" data-name="Grupo 327" transform="translate(7.443 8.729)">
      <path id="Caminho_2163" data-name="Caminho 2163" d="M12.825,21.7a6.842,6.842,0,1,1,6.842-6.842A6.849,6.849,0,0,1,12.825,21.7Zm0-11.818A4.976,4.976,0,1,0,17.8,14.859,4.981,4.981,0,0,0,12.825,9.883Z" transform="translate(-5.983 -8.017)" fill="#138898"/>
    </g>
    <g id="Grupo_328" data-name="Grupo 328" transform="translate(17.791 18.992)">
      <path id="Caminho_2164" data-name="Caminho 2164" d="M19.235,22.134a.926.926,0,0,1-.659-.274l-4-4a.933.933,0,0,1,1.32-1.32l4,4a.934.934,0,0,1-.661,1.594Z" transform="translate(-14.301 -16.266)" fill="#138898"/>
    </g>
    <g id="Grupo_329" data-name="Grupo 329" transform="translate(0 0)">
      <path id="Caminho_2165" data-name="Caminho 2165" d="M26.435,28.368H3.421A3.424,3.424,0,0,1,0,24.947V4.421A3.424,3.424,0,0,1,3.421,1H26.435a3.424,3.424,0,0,1,3.421,3.421V24.947A3.424,3.424,0,0,1,26.435,28.368ZM3.421,2.866A1.557,1.557,0,0,0,1.866,4.421V24.947A1.557,1.557,0,0,0,3.421,26.5H26.435a1.557,1.557,0,0,0,1.555-1.555V4.421a1.557,1.557,0,0,0-1.555-1.555Z" transform="translate(0 -1)" fill="#138898"/>
    </g>
    <g id="Grupo_330" data-name="Grupo 330" transform="translate(0 4.354)">
      <path id="Caminho_2166" data-name="Caminho 2166" d="M28.923,6.366H.933a.933.933,0,1,1,0-1.866h27.99a.933.933,0,0,1,0,1.866Z" transform="translate(0 -4.5)" fill="#138898"/>
    </g>
  </g>
</svg>
