<svg xmlns="http://www.w3.org/2000/svg" width="23.216" height="28.302" viewBox="0 0 23.216 28.302">
  <g id="nebulizer" transform="translate(-46)">
    <path id="Caminho_2311" data-name="Caminho 2311" d="M106,391h1.658v1.658H106Z" transform="translate(-56.683 -369.387)" fill="#fff"/>
    <path id="Caminho_2312" data-name="Caminho 2312" d="M166,391h1.658v1.658H166Z" transform="translate(-113.367 -369.387)" fill="#fff"/>
    <path id="Caminho_2313" data-name="Caminho 2313" d="M226,391h4.975v1.658H226Z" transform="translate(-170.05 -369.387)" fill="#fff"/>
    <path id="Caminho_2314" data-name="Caminho 2314" d="M66.729,18.3H46V28.3H64.241V19.955h2.487a2.487,2.487,0,1,0,0-4.975h-9.95a.83.83,0,0,1-.829-.829v-.972A2.5,2.5,0,0,0,57.486,11.6a4.152,4.152,0,0,0,3.438-4.084V2.044A11.048,11.048,0,0,0,55.121,0a11.047,11.047,0,0,0-5.8,2.044V7.518A4.152,4.152,0,0,0,52.755,11.6a2.5,2.5,0,0,0,1.537,1.577v.972a2.49,2.49,0,0,0,2.487,2.487h9.95a.829.829,0,1,1,0,1.658Zm-4.146,8.347H47.658V19.955H62.583ZM55.95,10.834a.829.829,0,0,1-1.658,0V8.347H55.95ZM50.975,7.518V2.955a9.183,9.183,0,0,1,4.146-1.3,9.184,9.184,0,0,1,4.146,1.3V7.518a2.491,2.491,0,0,1-1.658,2.345V6.688H52.633V9.862A2.491,2.491,0,0,1,50.975,7.518Z" fill="#fff"/>
  </g>
</svg>
