<svg xmlns="http://www.w3.org/2000/svg" width="27.948" height="27.948" viewBox="0 0 27.948 27.948">
  <g id="search" transform="translate(0)">
    <path id="Caminho_2306" data-name="Caminho 2306" d="M18.084,0a9.858,9.858,0,0,0-7.528,16.23L8.631,18.154,7.4,16.921.752,23.568A2.566,2.566,0,1,0,4.38,27.2l6.646-6.646L9.793,19.317l1.925-1.925A9.862,9.862,0,1,0,18.084,0ZM3.217,26.034a.922.922,0,1,1-1.3-1.3L7.4,19.246l1.3,1.3Zm14.866-7.95a8.22,8.22,0,1,1,8.22-8.22A8.229,8.229,0,0,1,18.084,18.084Z" fill="#fff"/>
    <path id="Caminho_2307" data-name="Caminho 2307" d="M216.576,60a6.576,6.576,0,1,0,6.576,6.576A6.583,6.583,0,0,0,216.576,60Zm0,11.508a4.932,4.932,0,1,1,4.932-4.932A4.938,4.938,0,0,1,216.576,71.508Z" transform="translate(-198.492 -56.712)" fill="#fff"/>
    <path id="Caminho_2308" data-name="Caminho 2308" d="M276.619,142.1l-1.063-1.063-1.162,1.162,2.225,2.225,3.869-3.869-1.162-1.162Z" transform="translate(-259.357 -131.755)" fill="#fff"/>
  </g>
</svg>
