<svg xmlns="http://www.w3.org/2000/svg" width="27.676" height="28.297" viewBox="0 0 27.676 28.297">
  <g id="oxygen-structure" transform="translate(-6.724)">
    <g id="Grupo_474" data-name="Grupo 474" transform="translate(6.724)">
      <path id="Caminho_2309" data-name="Caminho 2309" d="M22.432,8.686C22.432,3.147,19.259,0,14.578,0S6.724,3.121,6.724,8.686s3.173,8.842,7.854,8.842S22.432,14.251,22.432,8.686Zm-11.131,0c0-3.069,1.248-4.837,3.277-4.837s3.277,1.768,3.277,4.837-1.248,4.993-3.277,4.993S11.3,11.755,11.3,8.686Z" transform="translate(-6.724)" fill="#fff"/>
      <path id="Caminho_2310" data-name="Caminho 2310" d="M358.516,262.689v0a.971.971,0,0,0-.969-.971l-4.332-.007c2.237-2.289,4.521-4.984,4.521-7.637,0-3.277-2.34-5.409-5.669-5.409a6.8,6.8,0,0,0-5,1.941.97.97,0,0,0-.03,1.4l1.033,1.033a.972.972,0,0,0,1.329.042,3.131,3.131,0,0,1,2.045-.933,1.92,1.92,0,0,1,2.028,2.185c0,2.176-2.856,4.845-6.6,8.293a.971.971,0,0,0-.314.715v1.152a.971.971,0,0,0,.971.971h10.021a.971.971,0,0,0,.971-.971Z" transform="translate(-330.84 -237.165)" fill="#fff"/>
    </g>
  </g>
</svg>
