<svg xmlns="http://www.w3.org/2000/svg" width="20.175" height="28.694" viewBox="0 0 20.175 28.694">
  <g id="ventilation" transform="translate(-9.5)">
    <path id="Caminho_2315" data-name="Caminho 2315" d="M31.777,7.483V3.448A.448.448,0,0,0,31.328,3h-5.38a.448.448,0,0,0-.448.448V7.483a.448.448,0,0,0,.448.448h5.38A.448.448,0,0,0,31.777,7.483Zm-.9-.448H26.4V3.9H30.88Z" transform="translate(-8.827 -1.655)" fill="#fff"/>
    <path id="Caminho_2316" data-name="Caminho 2316" d="M31.976,30.9a.448.448,0,0,0,0-.9h0a.448.448,0,0,0,0,.9Z" transform="translate(-12.151 -16.55)" fill="#fff"/>
    <path id="Caminho_2317" data-name="Caminho 2317" d="M14.3,9.1l-.9-.9a.447.447,0,0,0-.317-.131H11.292a.446.446,0,0,0-.317.131l-.9.9a.448.448,0,0,0-.131.317v.9a.448.448,0,0,0,0,.9V13a.448.448,0,0,0,.448.448h1.346v5.157a2.914,2.914,0,1,0,5.828,0V15.694h.9v7.618H14.431a.448.448,0,0,0-.448.448v2.326a1.345,1.345,0,1,0,.9,0v-.531h4.484v.531a1.345,1.345,0,1,0,.9,0v-.531h4.484v.531a1.345,1.345,0,1,0,.9,0V23.761a.448.448,0,0,0-.448-.448H21.157V15.694h.9v2.912a2.914,2.914,0,1,0,5.828,0V14.3a2.244,2.244,0,0,0,1.791-2.187s0-.006,0-.009V10.312a2.242,2.242,0,1,0-4.483,0V12.1s0,.006,0,.009A2.245,2.245,0,0,0,26.986,14.3v4.306a2.018,2.018,0,1,1-4.035,0V15.694h.9a.448.448,0,0,0,.448-.448V8.52a.448.448,0,0,0-.448-.448H22.5v-.45h.449A1.347,1.347,0,0,0,24.3,6.277V1.345A1.347,1.347,0,0,0,22.95,0H16.673a1.347,1.347,0,0,0-1.345,1.345V6.277a1.347,1.347,0,0,0,1.345,1.345h.449v.45H15.777a.448.448,0,0,0-.448.448v6.725a.448.448,0,0,0,.448.448h.9v2.912a2.018,2.018,0,1,1-4.035,0V13.449h1.345A.448.448,0,0,0,14.432,13V11.208a.448.448,0,0,0,0-.9v-.9A.448.448,0,0,0,14.3,9.1Zm5.511,18.7a.448.448,0,1,1,.448-.448A.449.449,0,0,1,19.812,27.8ZM26.089,12.1s0,0,0,0V10.312a1.345,1.345,0,0,1,2.69,0V12.1s0,0,0,0a1.344,1.344,0,1,1-2.688,0ZM20.709,14.8H18.915V12.105h1.793Zm-6.277,13a.448.448,0,1,1,.448-.448A.449.449,0,0,1,14.431,27.8Zm.448-3.138v-.45h9.864v.45ZM25.192,27.8a.448.448,0,1,1,.448-.448A.449.449,0,0,1,25.192,27.8ZM20.26,23.312h-.9V15.694h.9ZM16.225,6.277V1.345A.449.449,0,0,1,16.673.9H22.95a.449.449,0,0,1,.448.448V6.277a.449.449,0,0,1-.448.448H16.673A.449.449,0,0,1,16.225,6.277Zm1.794,1.345H21.6v.45H18.019ZM16.225,8.969H23.4V14.8H21.605v-3.14a.448.448,0,0,0-.448-.448h-2.69a.448.448,0,0,0-.448.448V14.8H16.225Zm-2.69,3.584h-.9V12.1a.448.448,0,0,0,0-.9H12.2l-.009,0-.009,0h-.439a.448.448,0,0,0,0,.9v.448h-.9V9.6l.634-.635H12.9l.634.635Z" fill="#fff"/>
  </g>
</svg>
