<svg xmlns="http://www.w3.org/2000/svg" width="33.841" height="30.899" viewBox="0 0 33.841 30.899">
  <g id="fisioterapia" transform="translate(0 -22.261)">
    <g id="Grupo_476" data-name="Grupo 476" transform="translate(15.449 22.261)">
      <g id="Grupo_475" data-name="Grupo 475">
        <path id="Caminho_2318" data-name="Caminho 2318" d="M238.153,22.261a4.414,4.414,0,1,0,4.414,4.414A4.419,4.419,0,0,0,238.153,22.261Zm0,6.621a2.207,2.207,0,1,1,2.207-2.207A2.21,2.21,0,0,1,238.153,28.882Z" transform="translate(-233.739 -22.261)" fill="#fff"/>
      </g>
    </g>
    <g id="Grupo_478" data-name="Grupo 478" transform="translate(0 31.089)">
      <g id="Grupo_477" data-name="Grupo 477">
        <path id="Caminho_2319" data-name="Caminho 2319" d="M33.841,170.172a3.315,3.315,0,0,0-3.134-3.306,3.327,3.327,0,0,0-.035-2.325,3.313,3.313,0,1,0-1.925-6.338l-.342.114a5.494,5.494,0,0,0-4.612-2.491H16.55a5.524,5.524,0,0,0-5.514,5.518v2.207a5.489,5.489,0,0,0,1.107,3.311h0a3.309,3.309,0,0,0-3.121,4.414H8.234A4.413,4.413,0,1,0,0,169.068a4.4,4.4,0,0,0,1.173,2.993A3.309,3.309,0,0,0,3.311,177.9h27.22A3.308,3.308,0,0,0,33,172.379,3.3,3.3,0,0,0,33.841,170.172ZM29.448,160.3a1.1,1.1,0,0,1,1.394.7h0a1.1,1.1,0,0,1-.7,1.4l-5.112,1.7a1.1,1.1,0,0,0-.754,1.047v1.72H22.071v-3.067c.04-.178-.055-1.02.754-1.29Zm-1.512,6.509a1.1,1.1,0,0,1-1.395-.7l-.057-.17h0l2.094-.7.057.17A1.105,1.105,0,0,1,27.936,166.805Zm-14.694-5.462a3.314,3.314,0,0,1,3.311-3.311h7.241a3.3,3.3,0,0,1,2.394,1.023l-4.061,1.354A3.274,3.274,0,0,0,20,162.69a3.291,3.291,0,0,0-1.242-.243H17.649v-1.1a1.1,1.1,0,1,0-2.2,0v2.2s0,0,0,.006a1.1,1.1,0,0,0,1.1,1.1H18.76a1.1,1.1,0,1,1,0,2.207H16.553a3.314,3.314,0,0,1-3.311-3.311v-2.207Zm-8.828,5.518a2.207,2.207,0,1,1-2.207,2.207A2.21,2.21,0,0,1,4.414,166.861Zm26.117,8.828H3.311a1.1,1.1,0,1,1,0-2.207h27.22a1.1,1.1,0,1,1,0,2.207Zm0-4.414H12.139a1.1,1.1,0,1,1,0-2.207H30.531a1.1,1.1,0,1,1,0,2.207Z" transform="translate(0 -155.826)" fill="#fff"/>
      </g>
    </g>
  </g>
</svg>
