<svg xmlns="http://www.w3.org/2000/svg" width="26.441" height="26.441" viewBox="0 0 26.441 26.441">
  <g id="carrot" transform="translate(0 -0.006)">
    <g id="Grupo_461" data-name="Grupo 461" transform="translate(10.559 17.431)">
      <g id="Grupo_460" data-name="Grupo 460">
        <path id="Caminho_2299" data-name="Caminho 2299" d="M205.344,337.575a.517.517,0,1,0,0,.731A.517.517,0,0,0,205.344,337.575Z" transform="translate(-204.461 -337.424)" fill="#fff"/>
      </g>
    </g>
    <g id="Grupo_463" data-name="Grupo 463" transform="translate(0 0.006)">
      <g id="Grupo_462" data-name="Grupo 462" transform="translate(0 0)">
        <path id="Caminho_2300" data-name="Caminho 2300" d="M24.533,8.715A11.28,11.28,0,0,0,21.95,8.1a9.912,9.912,0,0,0,1.658-2.525c.5-1.174.477-2.123-.073-2.673s-1.5-.576-2.673-.073A9.911,9.911,0,0,0,18.337,4.49a11.246,11.246,0,0,0-.613-2.579c-.608-1.574-1.349-1.9-1.863-1.9-.55,0-1.334.366-1.949,2.11a13.22,13.22,0,0,0-.573,5.367,4.134,4.134,0,0,0-3.883,1.5A64.213,64.213,0,0,0,1.54,19.928c-1.6,3.023-1.957,5.044-1.05,6.007l.022.022c1.328,1.251,4.384-.189,6.007-1.05a64.2,64.2,0,0,0,10.949-7.915,4.133,4.133,0,0,0,1.5-3.89,13.24,13.24,0,0,0,5.364-.573c1.747-.615,2.114-1.4,2.114-1.949C26.441,10.065,26.11,9.324,24.533,8.715ZM21.27,3.781c.715-.306,1.318-.364,1.535-.146s.16.82-.146,1.535a10.7,10.7,0,0,1-5.1,4.978,9.006,9.006,0,0,0-1.269-1.267A10.7,10.7,0,0,1,21.27,3.781ZM14.846,2.59c.313-.953.706-1.551,1.015-1.551.145,0,.519.26.9,1.243a10.961,10.961,0,0,1,.627,3.126,10.328,10.328,0,0,0-1.963,2.858,6.288,6.288,0,0,0-1.011-.5A12.186,12.186,0,0,1,14.846,2.59Zm1.947,13.619A63.2,63.2,0,0,1,6.035,23.994a9.869,9.869,0,0,1-4.071,1.421,1.1,1.1,0,0,1-.731-.2c-.4-.455-.293-1.95,1.221-4.8A63.211,63.211,0,0,1,10.238,9.654c1.7-1.977,4.154-1.277,5.992.564C18.087,12.072,18.756,14.517,16.793,16.209Zm7.191-4.655a12.221,12.221,0,0,1-5.309.474,6.294,6.294,0,0,0-.5-1.013,10.319,10.319,0,0,0,2.857-1.962,10.992,10.992,0,0,1,3.129.627c.986.38,1.247.755,1.247.9C25.408,10.743,25.11,11.157,23.984,11.554Z" transform="translate(0 -0.006)" fill="#fff"/>
      </g>
    </g>
    <g id="Grupo_465" data-name="Grupo 465" transform="translate(12.11 10.373)">
      <g id="Grupo_464" data-name="Grupo 464">
        <path id="Caminho_2301" data-name="Caminho 2301" d="M236.834,202.353l-1.462-1.462a.517.517,0,0,0-.731.731l1.462,1.462a.517.517,0,0,0,.731-.731Z" transform="translate(-234.49 -200.74)" fill="#fff"/>
      </g>
    </g>
    <g id="Grupo_467" data-name="Grupo 467" transform="translate(11.379 14.027)">
      <g id="Grupo_466" data-name="Grupo 466">
        <path id="Caminho_2302" data-name="Caminho 2302" d="M222.681,273.124l-1.462-1.462a.517.517,0,0,0-.731.731l1.462,1.462a.517.517,0,1,0,.731-.731Z" transform="translate(-220.337 -271.511)" fill="#fff"/>
      </g>
    </g>
    <g id="Grupo_469" data-name="Grupo 469" transform="translate(7.724 14.758)">
      <g id="Grupo_468" data-name="Grupo 468">
        <path id="Caminho_2303" data-name="Caminho 2303" d="M151.909,287.278l-1.462-1.462a.517.517,0,0,0-.731.731l1.462,1.462a.517.517,0,0,0,.731-.731Z" transform="translate(-149.565 -285.665)" fill="#fff"/>
      </g>
    </g>
    <g id="Grupo_471" data-name="Grupo 471" transform="translate(6.993 18.413)">
      <g id="Grupo_470" data-name="Grupo 470">
        <path id="Caminho_2304" data-name="Caminho 2304" d="M137.748,358.049l-1.462-1.462a.517.517,0,0,0-.731.731l1.462,1.462a.517.517,0,0,0,.731-.731Z" transform="translate(-135.403 -356.435)" fill="#fff"/>
      </g>
    </g>
    <g id="Grupo_473" data-name="Grupo 473" transform="translate(4.069 19.875)">
      <g id="Grupo_472" data-name="Grupo 472">
        <path id="Caminho_2305" data-name="Caminho 2305" d="M81.129,386.354l-1.462-1.462a.517.517,0,0,0-.731.731l1.462,1.462a.517.517,0,0,0,.731-.731Z" transform="translate(-78.784 -384.741)" fill="#fff"/>
      </g>
    </g>
  </g>
</svg>
