<svg xmlns="http://www.w3.org/2000/svg" width="29.583" height="25.339" viewBox="0 0 29.583 25.339">
  <g id="cama-de-hospital" transform="translate(0 -36.725)">
    <g id="Grupo_459" data-name="Grupo 459" transform="translate(0 36.725)">
      <g id="Grupo_458" data-name="Grupo 458" transform="translate(0 0)">
        <path id="Caminho_2296" data-name="Caminho 2296" d="M211.1,66.634v.857a.624.624,0,0,0,.623.623h1.154a.624.624,0,0,0,.623-.623v-.857h.857a.624.624,0,0,0,.623-.623V64.858a.624.624,0,0,0-.623-.623H213.5v-.857a.624.624,0,0,0-.623-.623h-1.154a.624.624,0,0,0-.623.623v.857h-.857a.624.624,0,0,0-.623.623v1.154a.624.624,0,0,0,.623.623ZM210.49,65.1h.9a.584.584,0,0,0,.584-.584v-.9h.666v.9a.584.584,0,0,0,.584.584h.9v.666h-.9a.584.584,0,0,0-.584.584v.9h-.666v-.9a.584.584,0,0,0-.584-.584h-.9Z" transform="translate(-197.511 -61.251)" fill="#fff"/>
        <path id="Caminho_2297" data-name="Caminho 2297" d="M29.15,168.036a.433.433,0,0,0,.433-.433v-.278a1.039,1.039,0,0,0-1.038-1.038h-1.5A1.039,1.039,0,0,0,26,167.324v.191H22.717l-.338-.759a1.884,1.884,0,0,0-1.719-1.116H15.918a1.882,1.882,0,0,0-1.882,1.875H11.041l.072-.121a1.228,1.228,0,0,0,0-1.263l-.174-.291a1.505,1.505,0,0,0-1.285-.729H5.532a1.505,1.505,0,0,0-1.285.728l-.174.291a1.228,1.228,0,0,0,0,1.263l.072.121H3.579v-3.454a1.039,1.039,0,0,0-1.038-1.038h-1.5A1.039,1.039,0,0,0,0,164.062v8.19a2.144,2.144,0,0,0,2.142,2.142H3.506v3.324a1.884,1.884,0,1,0,2.366,0v-.957H23.711v.957a1.884,1.884,0,1,0,2.366,0v-3.324h1.364a2.144,2.144,0,0,0,2.142-2.142v-2.666a.433.433,0,0,0-.867,0v2.666a1.277,1.277,0,0,1-1.275,1.275H8.447a.433.433,0,1,0,0,.867H23.711v1.5H5.872v-1.5H6.4a.433.433,0,1,0,0-.867H2.142a1.277,1.277,0,0,1-1.275-1.275v-8.19a.171.171,0,0,1,.171-.171h1.5a.171.171,0,0,1,.171.171V171.3a.914.914,0,0,0,.913.913H25.958a.914.914,0,0,0,.913-.913v-3.973a.171.171,0,0,1,.171-.171h1.5a.171.171,0,0,1,.171.171v.278A.433.433,0,0,0,29.15,168.036Zm-4.572,6.357h.633v2.932a1.86,1.86,0,0,0-.633,0Zm.316,3.771a1.017,1.017,0,1,1-1.017,1.017A1.018,1.018,0,0,1,24.894,178.165ZM4.373,174.393h.633v2.932a1.86,1.86,0,0,0-.633,0Zm.316,3.771a1.017,1.017,0,1,1-1.017,1.017A1.018,1.018,0,0,1,4.689,178.165ZM15.118,166.9a1.009,1.009,0,0,1,.8-.39H17.7l.23,1.008H14.9A1.009,1.009,0,0,1,15.118,166.9Zm-10.3-.32.174-.291a.634.634,0,0,1,.542-.307H9.654a.634.634,0,0,1,.542.307l.174.29a.363.363,0,0,1,0,.373l-.174.291a.633.633,0,0,1-.349.275H5.34a.633.633,0,0,1-.349-.275l-.174-.291A.362.362,0,0,1,4.817,166.577Zm-1.192,4.767a.046.046,0,0,1-.046-.046v-2.915H5.229a1.483,1.483,0,0,0,.3.032H9.654a1.482,1.482,0,0,0,.3-.032h4.235l.735,2.961Zm12.195,0-.735-2.961h3.043l.677,2.961Zm2.768-4.836H20.66a1.016,1.016,0,0,1,.927.6l.181.406h-2.95Zm4.1,4.836H19.694l-.677-2.961h3.138l.024.053a5.833,5.833,0,0,1,.509,2.39ZM26,171.3h0a.046.046,0,0,1-.046.046h-2.4v-.518a6.689,6.689,0,0,0-.459-2.443H26V171.3Z" transform="translate(0 -155.727)" fill="#fff"/>
        <path id="Caminho_2298" data-name="Caminho 2298" d="M187.778,45.092a4.184,4.184,0,1,0-4.184-4.184A4.188,4.188,0,0,0,187.778,45.092Zm0-7.5a3.317,3.317,0,1,1-3.317,3.317A3.321,3.321,0,0,1,187.778,37.592Z" transform="translate(-172.986 -36.725)" fill="#fff"/>
        <circle id="Elipse_93" data-name="Elipse 93" cx="0.421" cy="0.421" r="0.421" transform="translate(4.268 23.034)" fill="#fff"/>
        <circle id="Elipse_94" data-name="Elipse 94" cx="0.421" cy="0.421" r="0.421" transform="translate(24.473 23.034)" fill="#fff"/>
      </g>
    </g>
  </g>
</svg>
