<svg xmlns="http://www.w3.org/2000/svg" width="26.768" height="26.686" viewBox="0 0 26.768 26.686">
  <g id="medicacao" transform="translate(0 -0.541)">
    <path id="Caminho_2323" data-name="Caminho 2323" d="M203.977,197.582a5.853,5.853,0,1,0,5.853,5.853A5.86,5.86,0,0,0,203.977,197.582Zm0,10.566a4.713,4.713,0,1,1,4.713-4.713A4.718,4.718,0,0,1,203.977,208.148Z" transform="translate(-183.063 -182.062)" fill="#fff"/>
    <path id="Caminho_2324" data-name="Caminho 2324" d="M251.951,235.522a.57.57,0,0,0-.785.186l-2.966,4.811a.57.57,0,1,0,.971.6l2.966-4.811A.57.57,0,0,0,251.951,235.522Z" transform="translate(-229.254 -217.04)" fill="#fff"/>
    <path id="Caminho_2325" data-name="Caminho 2325" d="M34.119,252.384l-.087-.054a2.095,2.095,0,0,1-.663-2.883.57.57,0,0,0-.967-.6,3.235,3.235,0,0,0,1.025,4.454l.087.055a.57.57,0,1,0,.6-.967Z" transform="translate(-29.484 -229.178)" fill="#fff"/>
    <path id="Caminho_2326" data-name="Caminho 2326" d="M210.766,38.824l.087.054a2.094,2.094,0,0,1,.663,2.883.57.57,0,1,0,.967.6,3.236,3.236,0,0,0-1.025-4.454l-.087-.055a.57.57,0,0,0-.6.967Z" transform="translate(-194.496 -34.4)" fill="#fff"/>
    <path id="Caminho_2327" data-name="Caminho 2327" d="M15.29,16.843h0l4.751-7.59a5.656,5.656,0,0,0-1.793-7.795L18.161,1.4a5.654,5.654,0,0,0-7.8,1.794L.864,18.378a5.656,5.656,0,0,0,1.793,7.795l.087.055a5.654,5.654,0,0,0,7.795-1.794l4.751-7.59h0ZM11.332,3.8A4.514,4.514,0,0,1,17.556,2.37l.087.055a4.516,4.516,0,0,1,1.432,6.223l-4.448,7.107L6.884,10.909ZM9.573,23.829A4.514,4.514,0,0,1,3.35,25.261l-.087-.055A4.516,4.516,0,0,1,1.83,18.983l4.448-7.107,7.743,4.846L9.573,23.829Z" transform="translate(0 0)" fill="#fff"/>
  </g>
</svg>
