<svg xmlns="http://www.w3.org/2000/svg" width="19.161" height="26.867" viewBox="0 0 19.161 26.867">
  <g id="flask" transform="translate(0.002 0)">
    <path id="Caminho_2320" data-name="Caminho 2320" d="M18.964,23.278,13.282,9.43a6.319,6.319,0,0,1-.475-2.409V3.36a1.466,1.466,0,0,1,.432-1.044,1.788,1.788,0,0,0,.527-1.273V.525A.525.525,0,0,0,13.242,0H5.915a.525.525,0,0,0-.525.525v.519a1.788,1.788,0,0,0,.527,1.273A1.466,1.466,0,0,1,6.35,3.36V7.02A6.315,6.315,0,0,1,5.875,9.43L4.314,13.235l0,0L.194,23.278A2.6,2.6,0,0,0,2.6,26.868H16.556a2.6,2.6,0,0,0,2.407-3.59ZM6.846,9.828A7.36,7.36,0,0,0,7.4,7.02V3.36a2.509,2.509,0,0,0-.74-1.786.746.746,0,0,1-.22-.524h6.277a.745.745,0,0,1-.22.524,2.509,2.509,0,0,0-.74,1.786V7.02a7.363,7.363,0,0,0,.553,2.807l1.267,3.088h-8Zm11,15.3a1.53,1.53,0,0,1-1.29.688H2.6a1.555,1.555,0,0,1-1.538-1.777h.865a.525.525,0,0,0,0-1.05H1.446l.6-1.469h.885a.525.525,0,1,0,0-1.049H2.479L3.082,19h.91a.525.525,0,0,0,0-1.049H3.512l.6-1.469H5.05a.525.525,0,0,0,0-1.05h-.5l.6-1.469h8.86l3.984,9.711a1.53,1.53,0,0,1-.147,1.454Zm0,0" transform="translate(0 0)" fill="#fff"/>
    <path id="Caminho_2321" data-name="Caminho 2321" d="M293.783,438.326a.525.525,0,1,0-.971.4l0,.007a.525.525,0,1,0,.971-.4Zm0,0" transform="translate(-277.411 -415.015)" fill="#fff"/>
    <path id="Caminho_2322" data-name="Caminho 2322" d="M245.721,321.171l-1.879-4.58a.525.525,0,1,0-.971.4l1.879,4.581a.525.525,0,0,0,.971-.4Zm0,0" transform="translate(-230.091 -299.668)" fill="#fff"/>
  </g>
</svg>
