<svg xmlns="http://www.w3.org/2000/svg" width="32.842" height="32.842" viewBox="0 0 32.842 32.842">
  <g id="printer" style="isolation: isolate">
    <path id="Caminho_2159" data-name="Caminho 2159" d="M28.031,8.275h-.9V4.811A4.816,4.816,0,0,0,22.322,0H10.52A4.816,4.816,0,0,0,5.709,4.811V8.275h-.9A4.816,4.816,0,0,0,0,13.086v7.7a4.816,4.816,0,0,0,4.811,4.811h.9v4.362A2.89,2.89,0,0,0,8.6,32.842H24.247a2.89,2.89,0,0,0,2.887-2.887V25.594h.9a4.816,4.816,0,0,0,4.811-4.811v-7.7A4.816,4.816,0,0,0,28.031,8.275ZM7.633,4.811A2.89,2.89,0,0,1,10.52,1.924h11.8a2.89,2.89,0,0,1,2.887,2.887V8.275H7.633ZM25.209,29.956a.963.963,0,0,1-.962.962H8.6a.963.963,0,0,1-.962-.962V20.462H25.209Zm5.709-9.173a2.89,2.89,0,0,1-2.887,2.887h-.9V20.462h.577a.962.962,0,1,0,0-1.924H5.132a.962.962,0,1,0,0,1.924h.577v3.207h-.9a2.89,2.89,0,0,1-2.887-2.887v-7.7A2.89,2.89,0,0,1,4.811,10.2h23.22a2.89,2.89,0,0,1,2.887,2.887Z" fill="#138898"/>
    <path id="Caminho_2160" data-name="Caminho 2160" d="M207.094,353h-5.132a.962.962,0,0,0,0,1.924h5.132a.962.962,0,0,0,0-1.924Z" transform="translate(-188.107 -330.357)" fill="#138898"/>
    <path id="Caminho_2161" data-name="Caminho 2161" d="M207.094,417h-5.132a.962.962,0,0,0,0,1.924h5.132a.962.962,0,0,0,0-1.924Z" transform="translate(-188.107 -390.252)" fill="#138898"/>
    <path id="Caminho_2162" data-name="Caminho 2162" d="M69.041,193H65.962a.962.962,0,1,0,0,1.924h3.079a.962.962,0,1,0,0-1.924Z" transform="translate(-60.831 -180.62)" fill="#138898"/>
  </g>
</svg>
