<svg xmlns="http://www.w3.org/2000/svg" xmlns:xlink="http://www.w3.org/1999/xlink" width="103" zoomAndPan="magnify" viewBox="0 0 77.25 67.499996" height="90" preserveAspectRatio="xMidYMid meet" version="1.0"><defs><clipPath id="f9697d711d"><path d="M 1.773438 0.078125 L 51 0.078125 L 51 66.929688 L 1.773438 66.929688 Z M 1.773438 0.078125 " clip-rule="nonzero"/></clipPath><clipPath id="a804951b44"><path d="M 39 28 L 74.566406 28 L 74.566406 66.929688 L 39 66.929688 Z M 39 28 " clip-rule="nonzero"/></clipPath></defs><path fill="#5e17eb" d="M 20.390625 36.316406 C 19.875 36.320312 19.457031 36.746094 19.457031 37.269531 L 19.457031 43.441406 C 19.457031 43.960938 19.875 44.382812 20.390625 44.382812 L 41.28125 44.382812 L 41.28125 42.488281 L 21.34375 42.488281 L 21.34375 38.207031 L 40.03125 38.207031 L 38.152344 36.316406 Z M 20.390625 36.316406 " fill-opacity="1" fill-rule="evenodd"/><g clip-path="url(#f9697d711d)"><path fill="#5e17eb" d="M 14.414062 0.128906 C 14.140625 0.132812 13.882812 0.25 13.699219 0.457031 L 2 14.238281 C 1.851562 14.410156 1.769531 14.628906 1.769531 14.855469 L 1.769531 65.703125 C 1.773438 66.222656 2.191406 66.644531 2.707031 66.644531 L 49.703125 66.6875 C 50.222656 66.6875 50.644531 66.265625 50.644531 65.742188 L 50.644531 58.59375 L 48.761719 57.261719 L 48.761719 64.800781 L 3.65625 64.753906 L 3.65625 15.800781 L 16.078125 15.800781 C 16.597656 15.792969 17.015625 15.382812 17.015625 14.855469 L 17.015625 6.070312 C 17.023438 5.539062 16.589844 5.109375 16.058594 5.117188 C 15.546875 5.125 15.128906 5.550781 15.132812 6.070312 L 15.132812 13.910156 L 4.78125 13.910156 L 14.847656 2.011719 L 48.757812 2.011719 L 48.757812 30.820312 L 50.644531 29.613281 L 50.644531 1.082031 C 50.644531 0.558594 50.21875 0.132812 49.703125 0.128906 Z M 14.414062 0.128906 " fill-opacity="1" fill-rule="evenodd"/></g><path fill="#5e17eb" d="M 9.097656 49.5625 C 8.574219 49.5625 8.152344 49.988281 8.15625 50.511719 L 8.15625 56.683594 C 8.152344 57.199219 8.574219 57.628906 9.097656 57.628906 L 15.644531 57.628906 C 16.167969 57.628906 16.589844 57.207031 16.589844 56.683594 L 16.589844 50.511719 C 16.589844 49.984375 16.167969 49.558594 15.644531 49.5625 Z M 10.042969 51.445312 L 14.703125 51.445312 L 14.703125 55.734375 L 10.042969 55.734375 Z M 10.042969 51.445312 " fill-opacity="1" fill-rule="evenodd"/><path fill="#5e17eb" d="M 9.097656 36.316406 C 8.578125 36.316406 8.15625 36.742188 8.15625 37.261719 L 8.15625 43.441406 C 8.15625 43.960938 8.574219 44.378906 9.097656 44.382812 L 15.644531 44.382812 C 16.164062 44.382812 16.589844 43.960938 16.589844 43.441406 L 16.589844 37.261719 C 16.589844 36.742188 16.164062 36.316406 15.644531 36.316406 Z M 10.042969 38.207031 L 14.703125 38.207031 L 14.703125 42.492188 L 10.042969 42.492188 Z M 10.042969 38.207031 " fill-opacity="1" fill-rule="evenodd"/><path fill="#5e17eb" d="M 9.097656 21.539062 C 8.574219 21.546875 8.152344 21.972656 8.15625 22.492188 L 8.15625 28.664062 C 8.152344 29.1875 8.574219 29.613281 9.097656 29.613281 L 15.644531 29.613281 C 16.167969 29.613281 16.589844 29.1875 16.589844 28.664062 L 16.589844 22.492188 C 16.589844 21.96875 16.167969 21.539062 15.644531 21.539062 Z M 10.042969 23.433594 L 14.703125 23.433594 L 14.703125 27.71875 L 10.042969 27.71875 Z M 10.042969 23.433594 " fill-opacity="1" fill-rule="evenodd"/><path fill="#5e17eb" d="M 20.390625 21.539062 C 19.875 21.546875 19.449219 21.972656 19.449219 22.492188 L 19.449219 28.664062 C 19.449219 29.1875 19.875 29.613281 20.390625 29.613281 L 43.320312 29.613281 C 43.835938 29.613281 44.265625 29.1875 44.265625 28.664062 L 44.265625 22.492188 C 44.265625 21.96875 43.835938 21.539062 43.320312 21.539062 Z M 21.34375 23.433594 L 42.378906 23.433594 L 42.378906 27.71875 L 21.34375 27.71875 Z M 21.34375 23.433594 " fill-opacity="1" fill-rule="evenodd"/><path fill="#5e17eb" d="M 20.390625 49.558594 C 19.875 49.5625 19.457031 49.992188 19.457031 50.511719 L 19.457031 56.683594 C 19.457031 57.207031 19.875 57.628906 20.390625 57.628906 L 43.320312 57.628906 C 43.835938 57.628906 44.265625 57.207031 44.265625 56.683594 L 44.265625 54.097656 L 42.378906 52.769531 L 42.378906 55.734375 L 21.34375 55.734375 L 21.34375 51.453125 L 41.261719 51.453125 L 41.261719 49.558594 Z M 20.390625 49.558594 " fill-opacity="1" fill-rule="evenodd"/><g clip-path="url(#a804951b44)"><path fill="#5e17eb" d="M 54.367188 29.121094 L 48.09375 33.710938 C 47.710938 33.988281 47.46875 34.347656 47.320312 34.738281 L 44.800781 32.210938 C 44.671875 32.074219 44.496094 31.988281 44.3125 31.960938 L 40.769531 31.445312 C 40.152344 31.359375 39.703125 31.871094 39.785156 32.425781 L 40.300781 36.019531 C 40.320312 36.207031 40.40625 36.382812 40.535156 36.519531 L 42.734375 38.726562 L 43.222656 43.59375 L 43.054688 47.109375 C 42.980469 48.710938 43.136719 50.574219 44.585938 51.703125 L 54.800781 59.613281 C 56.007812 60.542969 56.550781 61.089844 57.34375 62.421875 C 57.707031 63.03125 58.105469 63.628906 58.484375 64.226562 C 59.296875 65.675781 60.34375 66.566406 61.589844 66.675781 C 62.835938 66.777344 64.015625 66.222656 65.382812 65.4375 L 71.078125 62.164062 C 72.441406 61.378906 73.519531 60.644531 74.0625 59.515625 C 74.605469 58.390625 74.398438 57.035156 73.582031 55.585938 L 72.492188 53.664062 C 71.578125 52.070312 71.617188 49.144531 71.410156 47.199219 L 70.730469 40.902344 C 70.519531 38.996094 69.652344 37.410156 68.105469 36.394531 C 65.699219 34.816406 61.558594 32.796875 61.246094 32.640625 L 59.855469 30.234375 C 58.554688 27.988281 56.445312 27.601562 54.367188 29.121094 Z M 58.347656 31.113281 L 63.355469 39.808594 C 63.933594 40.820312 65.449219 39.941406 64.867188 38.929688 L 62.839844 35.40625 C 64.28125 36.167969 66.007812 37.109375 67.144531 37.855469 C 68.285156 38.613281 68.820312 39.5625 68.984375 41.101562 L 69.671875 47.390625 C 69.875 49.207031 69.757812 51.671875 70.601562 53.742188 L 58.382812 60.8125 C 57.660156 59.75 56.898438 59.03125 55.863281 58.226562 L 45.652344 50.3125 C 44.929688 49.753906 44.730469 48.59375 44.796875 47.1875 L 44.972656 43.617188 L 44.546875 39.3125 C 44.914062 39.320312 45.265625 39.207031 45.679688 39.527344 C 46.351562 40.058594 47.222656 41.238281 47.871094 43.59375 C 47.964844 43.953125 48.128906 44.144531 48.355469 44.375 L 59.359375 55.453125 C 60.710938 56.816406 62.425781 56.589844 63.648438 55.453125 C 64.9375 54.253906 64.84375 52.359375 63.640625 51.160156 L 57.304688 44.78125 C 59.195312 43.300781 59.726562 41.015625 58.714844 39.269531 L 56.402344 35.242188 C 56.179688 34.855469 55.707031 34.703125 55.292969 34.878906 L 51.289062 36.65625 C 49.914062 37.265625 49.402344 36.882812 49.117188 36.390625 C 48.757812 35.765625 48.972656 35.234375 49.628906 34.75 L 55.394531 30.535156 C 56.632812 29.621094 57.648438 29.902344 58.347656 31.113281 Z M 41.679688 33.34375 L 43.773438 33.648438 L 62.414062 52.394531 C 62.769531 52.75 62.871094 53.050781 62.824219 53.351562 C 62.71875 54.082031 62.117188 54.628906 61.546875 54.628906 C 61.246094 54.628906 60.949219 54.570312 60.597656 54.214844 L 49.53125 43.078125 C 48.769531 40.550781 47.851562 39.019531 46.757812 38.160156 C 45.816406 37.414062 44.761719 37.257812 43.851562 37.378906 L 41.980469 35.484375 Z M 55.285156 36.796875 L 57.207031 40.144531 C 57.800781 41.179688 57.601562 42.488281 56.058594 43.53125 L 51.097656 38.539062 C 51.390625 38.476562 51.6875 38.390625 51.988281 38.253906 Z M 71.410156 55.289062 L 72.0625 56.449219 C 72.734375 57.644531 72.75 58.226562 72.496094 58.757812 C 72.234375 59.285156 71.480469 59.921875 70.214844 60.652344 L 64.515625 63.925781 C 63.242188 64.652344 62.3125 64.980469 61.738281 64.933594 C 61.164062 64.886719 60.683594 64.578125 60.007812 63.382812 L 59.324219 62.285156 Z M 71.410156 55.289062 " fill-opacity="1" fill-rule="nonzero"/></g></svg>