<svg xmlns="http://www.w3.org/2000/svg" width="30.086" height="30.086" viewBox="0 0 30.086 30.086">
  <g id="online-appointment" transform="translate(0 0)">
    <path id="Caminho_2206" data-name="Caminho 2206" d="M29.645,18.251a.441.441,0,0,0,.441-.441V8.443a2.206,2.206,0,0,0-2.2-2.2H23.26V2.2a2.206,2.206,0,0,0-2.2-2.2H9.029a2.206,2.206,0,0,0-2.2,2.2V6.239H2.2A2.206,2.206,0,0,0,0,8.443V23.406a2.206,2.206,0,0,0,2.2,2.2H12.885v1.832h-.557A2.03,2.03,0,0,0,10.3,29.469a.618.618,0,0,0,.617.617h8.25a.618.618,0,0,0,.617-.617,2.03,2.03,0,0,0-2.027-2.027H17.2V25.609H27.882a2.206,2.206,0,0,0,2.2-2.2V19.867a.441.441,0,0,0-.881,0v3.539a1.324,1.324,0,0,1-1.322,1.322H2.2A1.324,1.324,0,0,1,.881,23.406V8.443A1.324,1.324,0,0,1,2.2,7.121H6.826V8H2.38a.618.618,0,0,0-.617.617V23.406a.441.441,0,0,0,.441.441h25.5a.618.618,0,0,0,.617-.617V8.619A.618.618,0,0,0,27.706,8H23.26V7.121h4.622A1.324,1.324,0,0,1,29.2,8.443V17.81A.441.441,0,0,0,29.645,18.251ZM13.766,25.609H16.32v1.832H13.766Zm3.992,2.714a1.148,1.148,0,0,1,1.115.881h-7.66a1.148,1.148,0,0,1,1.115-.881ZM6.826,22.965H2.644V8.884H6.826Zm15.552,0H7.707V2.2A1.324,1.324,0,0,1,9.029.881H21.056A1.324,1.324,0,0,1,22.378,2.2ZM27.442,8.884V22.965H23.26V8.884Zm-7.324,7.041H9.968a.441.441,0,0,0,0,.881H20.117a.441.441,0,1,0,0-.881ZM15.043,2.644a5.589,5.589,0,0,0-3.373,1.122.441.441,0,0,0,.528.706,4.714,4.714,0,0,1,2.845-.947,4.763,4.763,0,1,1-4.1,2.344.441.441,0,1,0-.759-.449,5.64,5.64,0,1,0,4.859-2.777Zm-2.031,7.91a1.632,1.632,0,0,0,2.285,0L18.05,7.8a1.322,1.322,0,1,0-1.887-1.852L14.155,7.957l-.249-.249a1.322,1.322,0,1,0-1.87,1.87Zm-.353-2.223a.445.445,0,0,1,.623,0l.436.436a.622.622,0,0,0,.873,0l2.195-2.195a.459.459,0,0,1,.625-.033.445.445,0,0,1,.016.638L14.674,9.93a.736.736,0,0,1-1.039,0l-.976-.976a.441.441,0,0,1,0-.623Zm7.458,10.238H9.968a.441.441,0,0,0,0,.881H20.117a.441.441,0,1,0,0-.881Z" fill="#a11bb9"/>
  </g>
</svg>
