<svg id="waiting_1_" data-name="waiting (1)" xmlns="http://www.w3.org/2000/svg" width="26.92" height="26.92" viewBox="0 0 26.92 26.92">
  <g id="Grupo_341" data-name="Grupo 341" transform="translate(7.939)">
    <g id="Grupo_340" data-name="Grupo 340">
      <path id="Caminho_2185" data-name="Caminho 2185" d="M154.155,0a3.155,3.155,0,1,0,3.155,3.155A3.158,3.158,0,0,0,154.155,0Zm0,4.732a1.577,1.577,0,1,1,1.577-1.577A1.579,1.579,0,0,1,154.155,4.732Z" transform="translate(-151)" fill="#25c1fa"/>
    </g>
  </g>
  <g id="Grupo_343" data-name="Grupo 343" transform="translate(15.879)">
    <g id="Grupo_342" data-name="Grupo 342">
      <path id="Caminho_2186" data-name="Caminho 2186" d="M307.521,0a5.521,5.521,0,1,0,5.521,5.521A5.527,5.527,0,0,0,307.521,0Zm0,9.464a3.943,3.943,0,1,1,3.943-3.943A3.948,3.948,0,0,1,307.521,9.464Z" transform="translate(-302)" fill="#25c1fa"/>
    </g>
  </g>
  <g id="Grupo_345" data-name="Grupo 345" transform="translate(20.611 3.155)">
    <g id="Grupo_344" data-name="Grupo 344">
      <path id="Caminho_2187" data-name="Caminho 2187" d="M394.366,61.577h-.789v-.789a.789.789,0,0,0-1.577,0v1.577a.789.789,0,0,0,.789.789h1.577a.789.789,0,0,0,0-1.577Z" transform="translate(-392 -60)" fill="#25c1fa"/>
    </g>
  </g>
  <g id="Grupo_347" data-name="Grupo 347" transform="translate(0 4.732)">
    <g id="Grupo_346" data-name="Grupo 346">
      <path id="Caminho_2188" data-name="Caminho 2188" d="M18.245,99.517h-4V94.732a3.155,3.155,0,1,0-6.309,0v7.151a2.355,2.355,0,0,0,.136.789H6.02s-.84-6.716-1.288-10.359A2.366,2.366,0,0,0,0,92.366a.794.794,0,0,0,.006.1l1.572,12.628a2.37,2.37,0,0,0,1.577,2.177V111.4a.789.789,0,0,0,1.577,0v-4h6.362v4a.789.789,0,0,0,1.577,0v-4.132a2.365,2.365,0,0,0,1.442-3.019h1.766v5.573a2.366,2.366,0,0,0,4.732,0v-7.939A2.369,2.369,0,0,0,18.245,99.517Zm-6.362,6.309H3.943a.79.79,0,0,1-.789-.789c0-.074.086.64-1.576-12.712a.789.789,0,0,1,1.576.041c0,.1,1.386,11.192,1.386,11.192a.789.789,0,0,0,.783.691h6.559a.789.789,0,1,1,0,1.577Zm7.151,4a.789.789,0,1,1-1.577,0V103.46a.789.789,0,0,0-.789-.789H10.3a.79.79,0,0,1-.788-.789V94.732a1.577,1.577,0,1,1,3.155,0v5.573a.789.789,0,0,0,.789.789h4.785a.79.79,0,0,1,.789.789Z" transform="translate(0 -90)" fill="#25c1fa"/>
    </g>
  </g>
</svg>
