<svg xmlns="http://www.w3.org/2000/svg" width="28.869" height="24.981" viewBox="0 0 28.869 24.981">
  <g id="first-aid-kit" transform="translate(0 -26.184)">
    <g id="Grupo_370" data-name="Grupo 370" transform="translate(8.494 34.502)">
      <g id="Grupo_369" data-name="Grupo 369" transform="translate(0 0)">
        <path id="Caminho_2207" data-name="Caminho 2207" d="M125.4,141.531h-2.424v-2.424a.885.885,0,0,0-.879-.891h-3.5a.885.885,0,0,0-.885.885v2.424h-2.418a.885.885,0,0,0-.891.879v3.5a.885.885,0,0,0,.885.885h2.424v2.418a.885.885,0,0,0,.879.891h3.493a.885.885,0,0,0,.885-.885h0v-2.424h2.424a.885.885,0,0,0,.891-.879v-3.493A.885.885,0,0,0,125.4,141.531Zm-.3,4.069h-2.715a.594.594,0,0,0-.594.594v2.715H118.9v-2.715a.594.594,0,0,0-.594-.594h-2.715v-2.881H118.3a.594.594,0,0,0,.594-.594V139.4h2.881v2.715a.594.594,0,0,0,.594.594h2.721Z" transform="translate(-114.4 -138.216)" fill="#de1f44"/>
      </g>
    </g>
    <g id="Grupo_372" data-name="Grupo 372" transform="translate(0 26.184)">
      <g id="Grupo_371" data-name="Grupo 371" transform="translate(0 0)">
        <path id="Caminho_2208" data-name="Caminho 2208" d="M24.77,30.059H19.876V27.968A1.729,1.729,0,0,0,18.2,26.185q-.073,0-.146,0H10.811a1.729,1.729,0,0,0-1.816,1.636q0,.073,0,.146v2.079H4.1a3.852,3.852,0,0,0-4.1,4.1v12.92a3.852,3.852,0,0,0,4.1,4.1H24.77a3.852,3.852,0,0,0,4.1-4.1V34.158A3.85,3.85,0,0,0,24.77,30.059ZM10.181,27.968a.557.557,0,0,1,.636-.636h7.241c.636,0,.636.457.636.636v2.079H10.181Zm17.5,19.1a2.669,2.669,0,0,1-2.911,2.911H4.1a2.671,2.671,0,0,1-2.911-2.911V34.158A2.669,2.669,0,0,1,4.1,31.247H24.77a2.671,2.671,0,0,1,2.911,2.911V47.066Z" transform="translate(0 -26.184)" fill="#de1f44"/>
      </g>
    </g>
  </g>
</svg>
