<svg xmlns="http://www.w3.org/2000/svg" width="21.896" height="28.554" viewBox="0 0 21.896 28.554">
  <g id="medical-record" transform="translate(-59.694)">
    <g id="Grupo_352" data-name="Grupo 352" transform="translate(69.341 1.448)">
      <g id="Grupo_351" data-name="Grupo 351">
        <path id="Caminho_2189" data-name="Caminho 2189" d="M233.983,25.961a1.3,1.3,0,1,0,1.3,1.3A1.3,1.3,0,0,0,233.983,25.961Zm0,1.764a.464.464,0,1,1,.464-.464A.464.464,0,0,1,233.983,27.725Z" transform="translate(-232.683 -25.961)" fill="#815d22"/>
      </g>
    </g>
    <g id="Grupo_354" data-name="Grupo 354" transform="translate(66.367 4.569)">
      <g id="Grupo_353" data-name="Grupo 353">
        <path id="Caminho_2190" data-name="Caminho 2190" d="M179.775,81.926a.418.418,0,0,0-.418.418v.7a.418.418,0,0,0,.837,0v-.7A.418.418,0,0,0,179.775,81.926Z" transform="translate(-179.357 -81.926)" fill="#815d22"/>
      </g>
    </g>
    <g id="Grupo_356" data-name="Grupo 356" transform="translate(74.08 4.569)">
      <g id="Grupo_355" data-name="Grupo 355">
        <path id="Caminho_2191" data-name="Caminho 2191" d="M318.061,81.926a.418.418,0,0,0-.418.418v.7a.418.418,0,1,0,.837,0v-.7A.418.418,0,0,0,318.061,81.926Z" transform="translate(-317.643 -81.926)" fill="#815d22"/>
      </g>
    </g>
    <g id="Grupo_358" data-name="Grupo 358" transform="translate(69.272 5.218)">
      <g id="Grupo_357" data-name="Grupo 357">
        <path id="Caminho_2192" data-name="Caminho 2192" d="M234.032,93.673a.418.418,0,0,0-.59.04.868.868,0,0,1-1.274,0,.418.418,0,0,0-.63.551,1.7,1.7,0,0,0,2.533,0A.418.418,0,0,0,234.032,93.673Z" transform="translate(-231.435 -93.569)" fill="#815d22"/>
      </g>
    </g>
    <g id="Grupo_360" data-name="Grupo 360" transform="translate(65.613 16.813)">
      <g id="Grupo_359" data-name="Grupo 359">
        <path id="Caminho_2193" data-name="Caminho 2193" d="M175.468,301.476h-9.221a.418.418,0,1,0,0,.837h9.221a.418.418,0,1,0,0-.837Z" transform="translate(-165.829 -301.476)" fill="#815d22"/>
      </g>
    </g>
    <g id="Grupo_362" data-name="Grupo 362" transform="translate(65.613 19.338)">
      <g id="Grupo_361" data-name="Grupo 361">
        <path id="Caminho_2194" data-name="Caminho 2194" d="M175.468,346.748h-9.221a.418.418,0,1,0,0,.837h9.221a.418.418,0,0,0,0-.837Z" transform="translate(-165.829 -346.748)" fill="#815d22"/>
      </g>
    </g>
    <g id="Grupo_364" data-name="Grupo 364" transform="translate(65.613 21.863)">
      <g id="Grupo_363" data-name="Grupo 363">
        <path id="Caminho_2195" data-name="Caminho 2195" d="M175.468,392.021h-9.221a.418.418,0,1,0,0,.837h9.221a.418.418,0,1,0,0-.837Z" transform="translate(-165.829 -392.021)" fill="#815d22"/>
      </g>
    </g>
    <g id="Grupo_366" data-name="Grupo 366" transform="translate(67.858 9.769)">
      <g id="Grupo_365" data-name="Grupo 365">
        <path id="Caminho_2196" data-name="Caminho 2196" d="M211.229,176.656h-1.065V175.59a.418.418,0,0,0-.418-.418h-1.764a.418.418,0,0,0-.418.418v1.065H206.5a.418.418,0,0,0-.418.418v1.764a.418.418,0,0,0,.418.418h1.065v1.065a.418.418,0,0,0,.418.418h1.764a.418.418,0,0,0,.418-.418v-1.065h1.065a.418.418,0,0,0,.418-.418v-1.764A.418.418,0,0,0,211.229,176.656Zm-.418,1.764h-1.065a.418.418,0,0,0-.418.418V179.9H208.4v-1.065a.418.418,0,0,0-.418-.418h-1.065v-.928h1.065a.418.418,0,0,0,.418-.418v-1.065h.928v1.065a.418.418,0,0,0,.418.418h1.065Z" transform="translate(-206.079 -175.172)" fill="#815d22"/>
      </g>
    </g>
    <g id="Grupo_368" data-name="Grupo 368" transform="translate(59.694)">
      <g id="Grupo_367" data-name="Grupo 367">
        <path id="Caminho_2197" data-name="Caminho 2197" d="M79.159,4.39H77.372V3.733a1.26,1.26,0,0,0-1.258-1.258H73.5a2.893,2.893,0,0,0-5.726,0H65.17a1.26,1.26,0,0,0-1.258,1.258V4.39H62.125a2.433,2.433,0,0,0-2.431,2.431v19.3a2.433,2.433,0,0,0,2.431,2.431h2.008a.418.418,0,0,0,0-.837H62.125a1.6,1.6,0,0,1-1.594-1.594V6.821a1.6,1.6,0,0,1,1.594-1.594h1.787V6.311H62.125a.51.51,0,0,0-.51.51v19.3a.51.51,0,0,0,.51.51H79.159a.51.51,0,0,0,.51-.51V6.821a.51.51,0,0,0-.51-.51H77.372V5.227h1.787a1.6,1.6,0,0,1,1.594,1.594v19.3a1.6,1.6,0,0,1-1.594,1.594H65.806a.418.418,0,1,0,0,.837H79.159a2.433,2.433,0,0,0,2.431-2.431V6.821A2.433,2.433,0,0,0,79.159,4.39Zm-.327,2.758V25.8H62.452V7.148h1.46v.089A1.26,1.26,0,0,0,65.17,8.5h8.109a.418.418,0,0,0,0-.837H65.17a.422.422,0,0,1-.422-.422v-3.5a.422.422,0,0,1,.422-.422h3a.418.418,0,0,0,.418-.418,2.056,2.056,0,1,1,4.113,0,.418.418,0,0,0,.418.418h3a.422.422,0,0,1,.422.422v3.5a.422.422,0,0,1-.422.422H74.952a.418.418,0,0,0,0,.837h1.162a1.26,1.26,0,0,0,1.258-1.258V7.148Z" transform="translate(-59.694)" fill="#815d22"/>
      </g>
    </g>
  </g>
</svg>
