<svg xmlns="http://www.w3.org/2000/svg" xmlns:xlink="http://www.w3.org/1999/xlink" width="103" zoomAndPan="magnify" viewBox="0 0 77.25 67.499996" height="90" preserveAspectRatio="xMidYMid meet" version="1.0"><defs><clipPath id="5b526b1d08"><path d="M 8.128906 0.078125 L 68.292969 0.078125 L 68.292969 66.929688 L 8.128906 66.929688 Z M 8.128906 0.078125 " clip-rule="nonzero"/></clipPath></defs><g clip-path="url(#5b526b1d08)"><path fill="#ff3131" d="M 59.46875 62.203125 L 57.097656 61.609375 L 57.097656 7.972656 C 57.097656 7.363281 56.597656 6.863281 55.984375 6.863281 L 20.636719 6.863281 L 21.363281 2.507812 L 65.859375 6.75 Z M 54.875 64.703125 L 10.441406 64.703125 L 10.441406 9.085938 L 54.875 9.085938 Z M 20.542969 0.191406 C 19.953125 0.121094 19.4375 0.542969 19.34375 1.117188 L 18.386719 6.863281 L 9.332031 6.863281 C 8.71875 6.863281 8.21875 7.363281 8.21875 7.972656 L 8.21875 65.816406 C 8.21875 66.429688 8.71875 66.929688 9.332031 66.929688 L 55.984375 66.929688 C 56.597656 66.929688 57.097656 66.429688 57.097656 65.816406 L 57.097656 63.902344 L 60.160156 64.667969 C 60.25 64.691406 60.335938 64.703125 60.429688 64.703125 C 60.652344 64.703125 60.875 64.632812 61.0625 64.507812 C 61.324219 64.320312 61.496094 64.035156 61.53125 63.71875 L 68.195312 5.875 C 68.230469 5.582031 68.144531 5.285156 67.957031 5.050781 C 67.769531 4.816406 67.496094 4.671875 67.199219 4.640625 L 20.542969 0.191406 " fill-opacity="1" fill-rule="nonzero"/></g><path fill="#ff3131" d="M 14.882812 17.984375 L 12.664062 17.984375 L 12.664062 35.78125 L 52.652344 35.78125 L 52.652344 33.558594 L 14.882812 33.558594 L 14.882812 17.984375 " fill-opacity="1" fill-rule="nonzero"/><path fill="#ff3131" d="M 39.40625 24.484375 L 32.515625 19.894531 L 25.992188 26.421875 L 22.660156 23.085938 L 16.320312 29.433594 L 17.890625 31.007812 L 22.660156 26.230469 L 25.992188 29.570312 L 32.800781 22.75 L 39.238281 27.058594 L 53.152344 20.09375 L 52.152344 18.101562 L 39.40625 24.484375 " fill-opacity="1" fill-rule="nonzero"/><path fill="#ff3131" d="M 14.882812 15.761719 C 16.109375 15.761719 17.105469 14.761719 17.105469 13.535156 C 17.105469 12.3125 16.109375 11.3125 14.882812 11.3125 C 13.660156 11.3125 12.664062 12.3125 12.664062 13.535156 C 12.664062 14.761719 13.660156 15.761719 14.882812 15.761719 " fill-opacity="1" fill-rule="nonzero"/><path fill="#ff3131" d="M 50.429688 15.761719 C 51.65625 15.761719 52.652344 14.761719 52.652344 13.535156 C 52.652344 12.3125 51.65625 11.3125 50.429688 11.3125 C 49.207031 11.3125 48.210938 12.3125 48.210938 13.535156 C 48.210938 14.761719 49.207031 15.761719 50.429688 15.761719 " fill-opacity="1" fill-rule="nonzero"/><path fill="#ff3131" d="M 14.882812 58.027344 C 13.660156 58.027344 12.664062 59.027344 12.664062 60.253906 C 12.664062 61.480469 13.660156 62.480469 14.882812 62.480469 C 16.109375 62.480469 17.105469 61.480469 17.105469 60.253906 C 17.105469 59.027344 16.109375 58.027344 14.882812 58.027344 " fill-opacity="1" fill-rule="nonzero"/><path fill="#ff3131" d="M 50.429688 58.027344 C 49.207031 58.027344 48.210938 59.027344 48.210938 60.253906 C 48.210938 61.480469 49.207031 62.480469 50.429688 62.480469 C 51.65625 62.480469 52.652344 61.480469 52.652344 60.253906 C 52.652344 59.027344 51.65625 58.027344 50.429688 58.027344 " fill-opacity="1" fill-rule="nonzero"/><path fill="#ff3131" d="M 12.664062 40.230469 L 25.992188 40.230469 L 25.992188 38.007812 L 12.664062 38.007812 L 12.664062 40.230469 " fill-opacity="1" fill-rule="nonzero"/><path fill="#ff3131" d="M 32.65625 62.480469 L 45.988281 62.480469 L 45.988281 60.253906 L 32.65625 60.253906 L 32.65625 62.480469 " fill-opacity="1" fill-rule="nonzero"/><path fill="#ff3131" d="M 12.664062 44.679688 L 25.992188 44.679688 L 25.992188 42.457031 L 12.664062 42.457031 L 12.664062 44.679688 " fill-opacity="1" fill-rule="nonzero"/><path fill="#ff3131" d="M 12.664062 49.128906 L 25.992188 49.128906 L 25.992188 46.90625 L 12.664062 46.90625 L 12.664062 49.128906 " fill-opacity="1" fill-rule="nonzero"/><path fill="#ff3131" d="M 14.882812 51.355469 L 12.664062 51.355469 L 12.664062 53.578125 L 14.882812 53.578125 L 14.882812 51.355469 " fill-opacity="1" fill-rule="nonzero"/><path fill="#ff3131" d="M 17.105469 53.578125 L 19.328125 53.578125 L 19.328125 51.355469 L 17.105469 51.355469 L 17.105469 53.578125 " fill-opacity="1" fill-rule="nonzero"/><path fill="#ff3131" d="M 23.769531 51.355469 L 21.550781 51.355469 L 21.550781 53.578125 L 23.769531 53.578125 L 23.769531 51.355469 " fill-opacity="1" fill-rule="nonzero"/><path fill="#ff3131" d="M 30.4375 48.019531 C 30.4375 44.101562 33.339844 40.851562 37.101562 40.308594 L 37.101562 49.128906 L 45.910156 49.128906 C 45.367188 52.898438 42.121094 55.804688 38.210938 55.804688 C 33.925781 55.804688 30.4375 52.3125 30.4375 48.019531 Z M 48.210938 48.019531 L 48.210938 46.90625 L 39.324219 46.90625 L 39.324219 38.007812 L 38.210938 38.007812 C 32.695312 38.007812 28.214844 42.496094 28.214844 48.019531 C 28.214844 53.539062 32.695312 58.027344 38.210938 58.027344 C 43.726562 58.027344 48.210938 53.539062 48.210938 48.019531 " fill-opacity="1" fill-rule="nonzero"/><path fill="#ff3131" d="M 40.511719 44.269531 L 42.578125 45.09375 L 44.515625 40.230469 L 52.652344 40.230469 L 52.652344 38.007812 L 43.015625 38.007812 L 40.511719 44.269531 " fill-opacity="1" fill-rule="nonzero"/><path fill="#ff3131" d="M 28.214844 62.480469 L 30.4375 62.480469 L 30.4375 60.253906 L 28.214844 60.253906 L 28.214844 62.480469 " fill-opacity="1" fill-rule="nonzero"/><path fill="#ff3131" d="M 23.769531 62.480469 L 25.992188 62.480469 L 25.992188 60.253906 L 23.769531 60.253906 L 23.769531 62.480469 " fill-opacity="1" fill-rule="nonzero"/></svg>